<?xml version="1.0" encoding="UTF-8" standalone="no"?>
<!DOCTYPE svg PUBLIC "-//W3C//DTD SVG 1.1//EN" "http://www.w3.org/Graphics/SVG/1.1/DTD/svg11.dtd">
<svg xmlns="http://www.w3.org/2000/svg" xmlns:xlink="http://www.w3.org/1999/xlink" version="1.1" width="105.855pt" height="105.877pt" viewBox="0 0 105.855 105.877">
<path transform="matrix(1,0,0,-1,5.954,91.919)" d="M 1.99255 0 C 1.99255 1.10046 1.10046 1.99255 0 1.99255 C -1.10046 1.99255 -1.99255 1.10046 -1.99255 0 C -1.99255 -1.10046 -1.10046 -1.99255 0 -1.99255 C 1.10046 -1.99255 1.99255 -1.10046 1.99255 0 Z M 0 0 "/>
<symbol id="font_0_4">
<path d="M .355 .078999999 C .341 .065999988 .308 .037999989 .308 .01999998 C .308 .00999999 .318 0 .32800005 0 C .33700005 0 .34200005 .0069999697 .34700004 .013000011 C .359 .027999998 .382 .055999996 .42600004 .07800001 C .433 .08200002 .443 .08700001 .443 .09899998 C .443 .10899997 .43600003 .11400002 .429 .11900002 C .40700004 .134 .396 .15200001 .38800005 .176 C .386 .185 .382 .19800002 .368 .19800002 C .354 .19800002 .34800003 .185 .34800003 .17699999 C .34800003 .17199999 .35600005 .13999999 .372 .11900002 L .034999998 .11900002 C .017999992 .11900002 0 .11900002 0 .09899998 C 0 .078999999 .017999992 .078999999 .034999998 .078999999 L .355 .078999999 Z "/>
</symbol>
<symbol id="font_0_1">
<path d="M .33300004 .38900004 C .31500004 .42600004 .286 .45300005 .24100001 .45300005 C .124 .45300005 0 .30600003 0 .16000001 C 0 .06600001 .055000005 0 .133 0 C .153 0 .20300001 .0040000008 .263 .075 C .27100004 .033000005 .30600003 0 .35400004 0 C .38900004 0 .41200004 .023000002 .42800004 .055000005 C .44500003 .091000009 .45800004 .15200001 .45800004 .15400002 C .45800004 .16400002 .44900004 .16400002 .44600005 .16400002 C .43600003 .16400002 .43500004 .16000001 .43200005 .14600002 C .41500003 .081 .397 .022000002 .35600005 .022000002 C .32900004 .022000002 .32600004 .048 .32600004 .068 C .32600004 .09 .32800005 .098000008 .33900003 .14200002 C .35000003 .18400002 .35200004 .19400002 .36100004 .23200003 L .397 .37200005 C .40400005 .40000005 .40400005 .40200005 .40400005 .40600003 C .40400005 .42300005 .39200003 .43300004 .37500004 .43300004 C .35100005 .43300004 .33600004 .411 .33300004 .38900004 M .26800005 .13000001 C .263 .112 .263 .11000001 .24800001 .093 C .20400001 .038000004 .163 .022000002 .135 .022000002 C .08499999 .022000002 .07100001 .077 .07100001 .116000007 C .07100001 .16600001 .103 .28900004 .126 .335 C .157 .39400003 .202 .43100003 .242 .43100003 C .307 .43100003 .32100005 .34900005 .32100005 .34300003 C .32100005 .337 .31900005 .33100004 .31800003 .32600004 L .26800005 .13000001 Z "/>
</symbol>
<use xlink:href="#font_0_4" transform="matrix(9.9626,0,0,-9.9626,4.5101935,97.4153)"/>
<use xlink:href="#font_0_1" transform="matrix(9.9626,0,0,-9.9626,3.7231477,102.66559)"/>
<path transform="matrix(1,0,0,-1,5.954,91.919)" stroke-width="1" stroke-linecap="butt" stroke-dasharray="2.98883,2.98883" stroke-miterlimit="10" stroke-linejoin="miter" fill="none" stroke="#000000" d="M 0 0 L 84.71635 84.71637 "/>
<path transform="matrix(.70714,-.7071,-.7071,-.70714,90.67034,7.202629)" stroke-width="1" stroke-linecap="round" stroke-linejoin="round" fill="none" stroke="#000000" d="M -1.19551 1.59401 C -1.09587 .99626 0 .09961 .29886 0 C 0 -.09961 -1.09587 -.99626 -1.19551 -1.59401 "/>
<symbol id="font_0_3">
<path d="M .439 .38300003 C .439 .43700005 .41300003 .45300005 .395 .45300005 C .37 .45300005 .34600003 .42700003 .34600003 .40500004 C .34600003 .39200003 .351 .38600005 .36200003 .37500004 C .38300003 .35500003 .396 .32900004 .396 .293 C .396 .25100003 .335 .022000002 .21800001 .022000002 C .16700001 .022000002 .14400001 .057000005 .14400001 .109000008 C .14400001 .16500002 .171 .23800002 .202 .321 C .209 .33800004 .21400002 .35200004 .21400002 .37100003 C .21400002 .41600005 .18200001 .45300005 .13200002 .45300005 C .038000004 .45300005 0 .30800004 0 .29900003 C 0 .28900004 .01 .28900004 .012 .28900004 C .022000002 .28900004 .023 .291 .028000003 .307 C .057000005 .40800003 .10000001 .43100003 .12900001 .43100003 C .13700001 .43100003 .15400002 .43100003 .15400002 .39900003 C .15400002 .374 .14400001 .34700004 .13700001 .32900004 C .09300001 .21300002 .080000009 .16700001 .080000009 .124000009 C .080000009 .016 .16800002 0 .21400002 0 C .382 0 .439 .33100004 .439 .38300003 Z "/>
</symbol>
<use xlink:href="#font_0_4" transform="matrix(9.9626,0,0,-9.9626,98.77419,5.297294)"/>
<use xlink:href="#font_0_3" transform="matrix(9.9626,0,0,-9.9626,97.63846,10.547585)"/>
<path transform="matrix(1,0,0,-1,5.954,91.919)" stroke-width="1" stroke-linecap="butt" stroke-miterlimit="10" stroke-linejoin="miter" fill="none" stroke="#000000" d="M 0 0 L 27.84662 27.84663 "/>
<path transform="matrix(.70712,-.7071,-.7071,-.70712,33.80062,64.07238)" stroke-width="1" stroke-linecap="round" stroke-linejoin="round" fill="none" stroke="#000000" d="M -1.55415 2.0722 C -1.42464 1.29512 0 .1295 .38852 0 C 0 -.1295 -1.42464 -1.29512 -1.55415 -2.0722 "/>
<use xlink:href="#font_0_4" transform="matrix(9.9626,0,0,-9.9626,41.844194,61.575304)"/>
<use xlink:href="#font_0_1" transform="matrix(9.9626,0,0,-9.9626,41.057146,66.82559)"/>
<symbol id="font_1_1">
<path d="M .35300002 .31300003 L .632 .31300003 C .646 .31300003 .665 .31300003 .665 .333 C .665 .35300002 .646 .35300002 .632 .35300002 L .35300002 .35300002 L .35300002 .633 C .35300002 .647 .35300002 .666 .33300004 .666 C .31300003 .666 .31300003 .647 .31300003 .633 L .31300003 .35300002 L .033 .35300002 C .019000002 .35300002 0 .35300002 0 .333 C 0 .31300003 .019000002 .31300003 .033 .31300003 L .31300003 .31300003 L .31300003 .033000005 C .31300003 .019000002 .31300003 0 .33300004 0 C .35300002 0 .35300002 .019000002 .35300002 .033000005 L .35300002 .31300003 Z "/>
</symbol>
<use xlink:href="#font_1_1" transform="matrix(9.9626,0,0,-9.9626,48.692907,67.5429)"/>
<symbol id="font_0_2">
<path d="M .232 .694 C .232 .695 .232 .705 .21900001 .705 C .19600001 .705 .122999999 .697 .097 .695 C .089 .694 .077999997 .693 .077999997 .675 C .077999997 .663 .087 .663 .102 .663 C .15 .663 .15200001 .656 .15200001 .646 L .149 .626 L .0040000008 .05 C 0 .036000004 0 .034 0 .028 C 0 .005000001 .02 0 .029000003 0 C .044999999 0 .061 .012000001 .066 .026 L .08499999 .102000009 L .10699999 .19200002 C .113000009 .21400002 .119 .23600002 .124 .259 C .126 .26500003 .134 .298 .135 .30400003 C .138 .31300003 .169 .36900003 .20300001 .39600004 C .225 .41200004 .256 .43100003 .299 .43100003 C .342 .43100003 .35300002 .397 .35300002 .36100004 C .35300002 .307 .315 .19800002 .291 .13700001 C .28300003 .11400001 .278 .102000009 .278 .082 C .278 .035 .31300003 0 .36 0 C .454 0 .491 .14600002 .491 .15400002 C .491 .16400002 .482 .16400002 .47900004 .16400002 C .46900005 .16400002 .46900005 .16100002 .46400006 .14600002 C .449 .093 .41700004 .022000002 .36200003 .022000002 C .345 .022000002 .338 .032 .338 .055000005 C .338 .080000009 .347 .104 .356 .126 C .372 .16900002 .41700004 .28800003 .41700004 .34600003 C .41700004 .411 .377 .45300005 .30200003 .45300005 C .239 .45300005 .191 .42200003 .154 .37600003 L .232 .694 Z "/>
</symbol>
<use xlink:href="#font_0_2" transform="matrix(9.9626,0,0,-9.9626,58.644945,66.82559)"/>
<use xlink:href="#font_0_4" transform="matrix(9.9626,0,0,-9.9626,65.26011,61.575304)"/>
<use xlink:href="#font_0_3" transform="matrix(9.9626,0,0,-9.9626,64.124378,66.82559)"/>
</svg>
