<?xml version="1.0" encoding="UTF-8" standalone="no"?>
<!DOCTYPE svg PUBLIC "-//W3C//DTD SVG 1.1//EN" "http://www.w3.org/Graphics/SVG/1.1/DTD/svg11.dtd">
<svg xmlns="http://www.w3.org/2000/svg" xmlns:xlink="http://www.w3.org/1999/xlink" version="1.1" width="458.831pt" height="115.578pt" viewBox="0 0 458.831 115.578">
<path transform="matrix(1,0,0,-1,226.971,113.58501)" stroke-width="1" stroke-linecap="butt" stroke-miterlimit="10" stroke-linejoin="miter" fill="none" stroke="#ffffff" d="M -226.77448 0 L 226.77448 113.38724 "/>
<path transform="matrix(1,0,0,-1,226.971,113.58501)" d="M 1.99255 0 C 1.99255 1.10046 1.10046 1.99255 0 1.99255 C -1.10046 1.99255 -1.99255 1.10046 -1.99255 0 C -1.99255 -1.10046 -1.10046 -1.99255 0 -1.99255 C 1.10046 -1.99255 1.99255 -1.10046 1.99255 0 Z M 0 0 "/>
<path transform="matrix(1,0,0,-1,226.971,113.58501)" stroke-width="1" stroke-linecap="butt" stroke-dasharray="2.98883,2.98883" stroke-miterlimit="10" stroke-linejoin="miter" fill="none" stroke="#000000" d="M 0 0 L 84.71635 84.71637 "/>
<path transform="matrix(.70714,-.7071,-.7071,-.70714,311.68733,28.868638)" stroke-width="1" stroke-linecap="round" stroke-linejoin="round" fill="none" stroke="#000000" d="M -1.19551 1.59401 C -1.09587 .99626 0 .09961 .29886 0 C 0 -.09961 -1.09587 -.99626 -1.19551 -1.59401 "/>
<symbol id="font_0_7">
<path d="M .144 .44200004 L .0040000008 .43100003 L .0040000008 .4 C .069000009 .4 .07800001 .39400003 .07800001 .34500004 L .07800001 .076000008 C .07800001 .031000002 .067 .031000002 0 .031000002 L 0 0 C .032000007 .001 .086 .003 .11000001 .003 C .14500001 .003 .18 .001 .21400002 0 L .21400002 .031000002 C .148 .031000002 .144 .036000004 .144 .075 L .144 .44200004 M .148 .61600008 C .148 .648 .123 .669 .095000009 .669 C .064 .669 .042000005 .642 .042000005 .61600008 C .042000005 .58900007 .064 .563 .095000009 .563 C .123 .563 .148 .58400008 .148 .61600008 Z "/>
</symbol>
<symbol id="font_0_9">
<path d="M .07800001 .344 L .07800001 .076000008 C .07800001 .031000002 .067 .031000002 0 .031000002 L 0 0 C .035 .001 .08600001 .003 .113000009 .003 C .139 .003 .191 .001 .225 0 L .225 .031000002 C .158 .031000002 .147 .031000002 .147 .076000008 L .147 .26000003 C .147 .36400003 .218 .42000003 .282 .42000003 C .345 .42000003 .356 .36600004 .356 .30900003 L .356 .076000008 C .356 .031000002 .345 .031000002 .278 .031000002 L .278 0 C .31300003 .001 .36400003 .003 .391 .003 C .41700004 .003 .46900005 .001 .503 0 L .503 .031000002 C .451 .031000002 .42600004 .031000002 .425 .061000006 L .425 .252 C .425 .33800004 .425 .36900003 .39400003 .40500004 C .38000003 .42200003 .347 .44200004 .289 .44200004 C .216 .44200004 .169 .39900003 .141 .337 L .141 .44200004 L 0 .43100003 L 0 .4 C .07000001 .4 .07800001 .393 .07800001 .344 Z "/>
</symbol>
<symbol id="font_0_3">
<path d="M .083000008 .22900002 C .083000008 .39200003 .16500002 .43400003 .218 .43400003 C .227 .43400003 .29 .43300004 .32500003 .397 C .284 .39400003 .278 .36400003 .278 .351 C .278 .32500003 .296 .305 .324 .305 C .35 .305 .37 .32200004 .37 .35200004 C .37 .42000003 .294 .45900003 .21700001 .45900003 C .092 .45900003 0 .351 0 .22700002 C 0 .09900001 .099 0 .215 0 C .349 0 .381 .120000008 .381 .13000001 C .381 .14000002 .37100003 .14000002 .368 .14000002 C .359 .14000002 .35700003 .136 .35500003 .13000001 C .326 .037 .261 .025000003 .224 .025000003 C .171 .025000003 .083000008 .068 .083000008 .22900002 Z "/>
</symbol>
<symbol id="font_0_b">
<path d="M .13900002 .33200003 L .13900002 .44200004 L 0 .43100003 L 0 .4 C .07000001 .4 .07800001 .393 .07800001 .344 L .07800001 .076000008 C .07800001 .031000002 .067 .031000002 0 .031000002 L 0 0 C .039 .001 .08600001 .003 .11400001 .003 C .15400002 .003 .20100002 .003 .24100003 0 L .24100003 .031000002 L .22000002 .031000002 C .14600002 .031000002 .14400001 .042000005 .14400001 .078 L .14400001 .23200001 C .14400001 .33100004 .18600002 .42000003 .26200003 .42000003 C .26900003 .42000003 .27100004 .42000003 .27300004 .41900004 C .27 .418 .25000004 .40600003 .25000004 .38000003 C .25000004 .35200004 .27100004 .337 .293 .337 C .31100003 .337 .33600004 .349 .33600004 .381 C .33600004 .41300003 .305 .44200004 .26200003 .44200004 C .18900001 .44200004 .15300001 .37500004 .13900002 .33200003 Z "/>
</symbol>
<symbol id="font_0_5">
<path d="M .08400001 .263 C .09 .41200004 .17400001 .43700005 .20800002 .43700005 C .31100003 .43700005 .321 .30200003 .321 .263 L .08400001 .263 M .083000008 .24200002 L .36200003 .24200002 C .38400004 .24200002 .38700003 .24200002 .38700003 .263 C .38700003 .36200003 .33300004 .45900003 .20800002 .45900003 C .09200001 .45900003 0 .35600005 0 .23100002 C 0 .097 .105000007 0 .22000002 0 C .342 0 .38700003 .111 .38700003 .13000001 C .38700003 .14000002 .379 .14200002 .374 .14200002 C .365 .14200002 .36300005 .136 .36100004 .128 C .326 .025000003 .236 .025000003 .22600001 .025000003 C .17600002 .025000003 .136 .055000005 .113000009 .092 C .083000008 .14000002 .083000008 .20600002 .083000008 .24200002 Z "/>
</symbol>
<symbol id="font_0_2">
<path d="M .291 .087000008 C .29500003 .047000003 .32200004 .005000001 .36900003 .005000001 C .39000003 .005000001 .45100004 .019000002 .45100004 .1 L .45100004 .15600002 L .42600004 .15600002 L .42600004 .1 C .42600004 .042000005 .40100003 .036000004 .39000003 .036000004 C .35700003 .036000004 .35300002 .081 .35300002 .086 L .35300002 .286 C .35300002 .328 .35300002 .367 .31700004 .404 C .27800004 .44300003 .22800002 .45900003 .18 .45900003 C .098 .45900003 .029 .41200004 .029 .34600003 C .029 .316 .049000004 .29900003 .075 .29900003 C .10300001 .29900003 .121 .31900005 .121 .34500004 C .121 .35700003 .116000007 .39000003 .07 .39100004 C .09700001 .42600004 .146 .43700005 .178 .43700005 C .22700003 .43700005 .284 .39800004 .284 .30900003 L .284 .272 C .23300001 .26900003 .16300002 .26600004 .1 .23600002 C .024999999 .20200002 0 .15000002 0 .106000009 C 0 .025000003 .09700001 0 .16 0 C .22600001 0 .272 .040000004 .291 .087000008 M .284 .25100003 L .284 .15100001 C .284 .056 .21200001 .022000002 .167 .022000002 C .11800001 .022000002 .077 .057000005 .077 .107 C .077 .16200002 .11900001 .24500002 .284 .25100003 Z "/>
</symbol>
<symbol id="font_0_c">
<path d="M .17500001 .20500002 C .197 .20100002 .279 .18500002 .279 .113000009 C .279 .062000004 .24400002 .022000002 .16600001 .022000002 C .082 .022000002 .046000005 .079 .027000003 .16400002 C .024000004 .17700002 .023000002 .18100001 .013000004 .18100001 C 0 .18100001 0 .17400001 0 .15600002 L 0 .024 C 0 .0070000009 0 0 .011000004 0 C .016000003 0 .017 .0010000002 .036000007 .020000002 C .038000004 .022000002 .038000004 .024 .056 .043 C .1 .0010000002 .14500001 0 .16600001 0 C .28100003 0 .32700003 .067 .32700003 .13900002 C .32700003 .19200002 .29700003 .22200002 .28500004 .23400001 C .25200004 .26600004 .213 .27400003 .171 .28200004 C .115 .293 .048 .30600003 .048 .36400003 C .048 .39900003 .07400001 .44000004 .16 .44000004 C .27 .44000004 .27500005 .35000003 .277 .31900005 C .27800004 .31000004 .28700004 .31000004 .28900004 .31000004 C .30200003 .31000004 .30200003 .31500004 .30200003 .33400003 L .30200003 .43500004 C .30200003 .45200003 .30200003 .45900003 .291 .45900003 C .286 .45900003 .284 .45900003 .27100004 .44700004 C .26800005 .44300003 .25800003 .43400003 .254 .43100003 C .21600002 .45900003 .17500001 .45900003 .16 .45900003 C .038000004 .45900003 0 .39200003 0 .33600004 C 0 .30100004 .016000003 .27300004 .043000007 .25100003 C .075 .22500003 .10300001 .21900001 .17500001 .20500002 Z "/>
</symbol>
<symbol id="font_0_6">
<path d="M .19400002 .37800003 C .10700001 .37800003 .10700001 .47800005 .10700001 .50100007 C .10700001 .52800008 .10800001 .56 .12300001 .58500006 C .13100001 .59700009 .15400002 .62500008 .19400002 .62500008 C .28100003 .62500008 .28100003 .52500006 .28100003 .50200006 C .28100003 .47500003 .28000004 .44300003 .26500003 .41800005 C .25700004 .40600003 .23400003 .37800003 .19400002 .37800003 M .07800001 .33900003 C .07800001 .34300003 .07800001 .36600004 .095 .38600005 C .134 .35800005 .17500001 .35500003 .19400002 .35500003 C .28700004 .35500003 .356 .42400003 .356 .50100007 C .356 .53800007 .34000004 .57500007 .31500004 .59800007 C .351 .632 .38700003 .637 .40500004 .637 C .40700004 .637 .41200004 .637 .41500003 .63600006 C .404 .632 .39900003 .62100008 .39900003 .609 C .39900003 .592 .41200004 .58000007 .42800004 .58000007 C .43800003 .58000007 .45700003 .587 .45700003 .61 C .45700003 .62700006 .44500003 .65900006 .40600003 .65900006 C .38600005 .65900006 .342 .65300008 .3 .61200007 C .25800003 .64500007 .21600002 .64800009 .19400002 .64800009 C .10100001 .64800009 .032 .57900008 .032 .50200006 C .032 .458 .054 .42000003 .07900001 .39900003 C .066 .384 .048000006 .351 .048000006 .316 C .048000006 .28500004 .061 .24700001 .09200001 .22700002 C .032 .21000001 0 .16700001 0 .127 C 0 .055000009 .09900001 0 .22100002 0 C .33900003 0 .44300003 .051000015 .44300003 .12900001 C .44300003 .164 .42900003 .21500002 .37800003 .24300002 C .32500003 .27100004 .26700003 .27100004 .20600002 .27100004 C .18100001 .27100004 .13800001 .27100004 .13100001 .272 C .09900001 .27600003 .07800001 .307 .07800001 .33900003 M .222 .023000002 C .12100001 .023000002 .052000006 .074000019 .052000006 .127 C .052000006 .17300001 .09 .21000001 .134 .21300002 L .19300002 .21300002 C .279 .21300002 .39100004 .21300002 .39100004 .127 C .39100004 .073000017 .32000003 .023000002 .222 .023000002 Z "/>
</symbol>
<use xlink:href="#font_0_7" transform="matrix(9.9626,0,0,-9.9626,321.52775,31.03701)"/>
<use xlink:href="#font_0_9" transform="matrix(9.9626,0,0,-9.9626,324.28739,31.03701)"/>
<use xlink:href="#font_0_3" transform="matrix(9.9626,0,0,-9.9626,329.8465,31.146599)"/>
<use xlink:href="#font_0_b" transform="matrix(9.9626,0,0,-9.9626,334.21015,31.03701)"/>
<use xlink:href="#font_0_5" transform="matrix(9.9626,0,0,-9.9626,338.11549,31.146599)"/>
<use xlink:href="#font_0_2" transform="matrix(9.9626,0,0,-9.9626,342.67835,31.146599)"/>
<use xlink:href="#font_0_c" transform="matrix(9.9626,0,0,-9.9626,347.56999,31.146599)"/>
<use xlink:href="#font_0_7" transform="matrix(9.9626,0,0,-9.9626,351.49525,31.03701)"/>
<use xlink:href="#font_0_9" transform="matrix(9.9626,0,0,-9.9626,354.25489,31.03701)"/>
<use xlink:href="#font_0_6" transform="matrix(9.9626,0,0,-9.9626,359.75425,33.089307)"/>
<symbol id="font_1_1">
<path d="M .305 .31300003 C .311 .33900003 .334 .43100003 .404 .43100003 C .409 .43100003 .433 .43100003 .454 .418 C .426 .41300003 .40600003 .388 .40600003 .36400003 C .40600003 .34800003 .417 .32900004 .444 .32900004 C .46600003 .32900004 .498 .34700004 .498 .38700003 C .498 .43900005 .439 .45300005 .405 .45300005 C .347 .45300005 .312 .40000005 .3 .37700004 C .275 .44300003 .221 .45300005 .19200002 .45300005 C .08800001 .45300005 .031000002 .32400004 .031000002 .29900003 C .031000002 .28900004 .041 .28900004 .043000007 .28900004 C .051000008 .28900004 .054000006 .291 .056 .3 C .09 .40600003 .156 .43100003 .19000001 .43100003 C .209 .43100003 .244 .42200003 .244 .36400003 C .244 .33300004 .22700002 .26600004 .19000001 .126 C .17400001 .064 .13900002 .022000002 .095000009 .022000002 C .08900001 .022000002 .06600001 .022000002 .045 .035 C .07000001 .040000004 .09200001 .061 .09200001 .089 C .09200001 .116000007 .07000001 .124000009 .055000009 .124000009 C .025 .124000009 0 .098000008 0 .06600001 C 0 .020000002 .050000006 0 .094000007 0 C .16000001 0 .19600001 .07000001 .19900002 .076000008 C .21100001 .039 .24700003 0 .307 0 C .41 0 .467 .12900001 .467 .15400002 C .467 .16400002 .458 .16400002 .455 .16400002 C .446 .16400002 .444 .16000001 .442 .15300001 C .409 .046 .341 .022000002 .30900003 .022000002 C .27 .022000002 .254 .054 .254 .08800001 C .254 .11000001 .26 .13200002 .271 .17600002 L .305 .31300003 Z "/>
</symbol>
<use xlink:href="#font_1_1" transform="matrix(9.9626,0,0,-9.9626,368.06388,31.146599)"/>
<symbol id="font_0_4">
<path d="M .34600003 .06600001 L .34600003 0 L .493 .011000001 L .493 .042000005 C .423 .042000005 .41500003 .049000004 .41500003 .098000008 L .41500003 .705 L .271 .694 L .271 .663 C .34100003 .663 .349 .656 .349 .607 L .349 .39100004 C .32 .42700003 .277 .45300005 .22299999 .45300005 C .10500001 .45300005 0 .35500003 0 .22600001 C 0 .09900001 .098 0 .21200001 0 C .276 0 .321 .034 .34600003 .06600001 M .34600003 .33400003 L .34600003 .12900001 C .34600003 .111 .34600003 .109000008 .335 .092 C .305 .044 .26 .022000002 .21700001 .022000002 C .17200002 .022000002 .136 .048 .11200001 .086 C .086 .127 .083000008 .18400002 .083000008 .22500003 C .083000008 .26200003 .085 .32200004 .114 .367 C .13500002 .39800004 .17300001 .43100003 .227 .43100003 C .262 .43100003 .30400003 .41600005 .335 .37100003 C .34600003 .35400004 .34600003 .35200004 .34600003 .33400003 Z "/>
</symbol>
<use xlink:href="#font_0_2" transform="matrix(9.9626,0,0,-9.9626,377.2074,31.146599)"/>
<use xlink:href="#font_0_9" transform="matrix(9.9626,0,0,-9.9626,382.08909,31.03701)"/>
<use xlink:href="#font_0_4" transform="matrix(9.9626,0,0,-9.9626,387.6482,31.146599)"/>
<symbol id="font_1_2">
<path d="M .45700003 .586 C .461 .6 .461 .602 .461 .609 C .461 .62700006 .447 .63600006 .432 .63600006 C .42200003 .63600006 .40600003 .63 .397 .615 C .395 .61 .387 .579 .38300003 .561 C .37600003 .535 .36900003 .508 .363 .48100005 L .318 .301 C .314 .286 .271 .21600002 .20500002 .21600002 C .15400002 .21600002 .143 .26000003 .143 .29700003 C .143 .34300003 .16000001 .40500004 .194 .49300004 C .21000001 .53400006 .21400002 .545 .21400002 .56500008 C .21400002 .61 .18200001 .6470001 .13200002 .6470001 C .037 .6470001 0 .50200006 0 .49300004 C 0 .48300005 .01 .48300005 .012 .48300005 C .022000002 .48300005 .023 .485 .028000003 .50100007 C .055000009 .595 .095000009 .625 .12900001 .625 C .13700001 .625 .15400002 .625 .15400002 .59300008 C .15400002 .568 .14400001 .54200008 .13700001 .523 C .097 .41700004 .079 .36 .079 .31300003 C .079 .224 .142 .194 .201 .194 C .24000003 .194 .274 .21100001 .30200003 .23900002 C .289 .187 .277 .13800001 .237 .08500001 C .21100001 .051 .17300001 .022 .127 .022 C .113000009 .022 .068 .025000006 .051000008 .06400001 C .067 .06400001 .080000009 .06400001 .094000007 .076000008 C .104 .08500001 .11400001 .098000008 .11400001 .117000009 C .11400001 .148 .087000008 .15200001 .07700001 .15200001 C .054000006 .15200001 .021 .136 .021 .087000008 C .021 .037 .065000008 0 .127 0 C .23 0 .333 .091000009 .361 .20400001 L .45700003 .586 Z "/>
</symbol>
<use xlink:href="#font_1_2" transform="matrix(9.9626,0,0,-9.9626,396.4499,33.07934)"/>
<symbol id="font_0_8">
<path d="M .144 .694 L 0 .683 L 0 .652 C .07000001 .652 .07800001 .64500007 .07800001 .596 L .07800001 .076000008 C .07800001 .031000002 .067 .031000002 0 .031000002 L 0 0 C .033 .001 .086 .003 .11100001 .003 C .136 .003 .185 .001 .22200004 0 L .22200004 .031000002 C .155 .031000002 .144 .031000002 .144 .076000008 L .144 .694 Z "/>
</symbol>
<symbol id="font_0_a">
<path d="M .44300003 .22500003 C .44300003 .35300002 .34300003 .45900003 .222 .45900003 C .097 .45900003 0 .35000003 0 .22500003 C 0 .096 .104 0 .22100002 0 C .342 0 .44300003 .098000008 .44300003 .22500003 M .222 .025000003 C .17900002 .025000003 .135 .046 .10800001 .092 C .083000008 .136 .083000008 .19700001 .083000008 .23300003 C .083000008 .272 .083000008 .32600004 .10700001 .37000004 C .134 .41600005 .18100001 .43700005 .22100002 .43700005 C .26500003 .43700005 .30800004 .41500003 .33400003 .37200005 C .36 .32900004 .36 .27100004 .36 .23300003 C .36 .19700001 .36 .143 .33800004 .09900001 C .316 .054 .272 .025000003 .222 .025000003 Z "/>
</symbol>
<use xlink:href="#font_0_2" transform="matrix(9.9626,0,0,-9.9626,405.1424,31.146599)"/>
<use xlink:href="#font_0_8" transform="matrix(9.9626,0,0,-9.9626,410.03404,31.03701)"/>
<use xlink:href="#font_0_a" transform="matrix(9.9626,0,0,-9.9626,412.7538,31.146599)"/>
<use xlink:href="#font_0_9" transform="matrix(9.9626,0,0,-9.9626,417.77497,31.03701)"/>
<use xlink:href="#font_0_6" transform="matrix(9.9626,0,0,-9.9626,423.27433,33.089307)"/>
<use xlink:href="#font_1_1" transform="matrix(9.9626,0,0,-9.9626,431.57987,31.146599)"/>
<symbol id="font_0_1">
<path d="M .63100007 .19400002 C .646 .19400002 .665 .19400002 .665 .214 C .665 .23400001 .646 .23400001 .632 .23400001 L .033 .23400001 C .019000002 .23400001 0 .23400001 0 .214 C 0 .19400002 .019000002 .19400002 .034 .19400002 L .63100007 .19400002 M .632 0 C .646 0 .665 0 .665 .02000001 C .665 .040000008 .646 .040000008 .63100007 .040000008 L .034 .040000008 C .019000002 .040000008 0 .040000008 0 .02000001 C 0 0 .019000002 0 .033 0 L .632 0 Z "/>
</symbol>
<use xlink:href="#font_0_1" transform="matrix(9.9626,0,0,-9.9626,440.30986,29.711985)"/>
<use xlink:href="#font_1_2" transform="matrix(9.9626,0,0,-9.9626,450.55686,33.07934)"/>
</svg>
