<?xml version="1.0" encoding="UTF-8" standalone="no"?>
<!DOCTYPE svg PUBLIC "-//W3C//DTD SVG 1.1//EN" "http://www.w3.org/Graphics/SVG/1.1/DTD/svg11.dtd">
<svg xmlns="http://www.w3.org/2000/svg" xmlns:xlink="http://www.w3.org/1999/xlink" version="1.1" width="142.131pt" height="142.131pt" viewBox="0 0 142.131 142.131">
<path transform="matrix(1,0,0,-1,28.546,113.585)" stroke-width="1" stroke-linecap="butt" stroke-miterlimit="10" stroke-linejoin="miter" fill="none" stroke="#000000" d="M -27.88852 0 L 112.92896 0 "/>
<path transform="matrix(-1,0,0,1,.65748026,113.585)" stroke-width="1" stroke-linecap="round" stroke-linejoin="round" fill="none" stroke="#000000" d="M -1.19551 1.59401 C -1.09587 .99626 0 .09961 .29886 0 C 0 -.09961 -1.09587 -.99626 -1.19551 -1.59401 "/>
<path transform="matrix(1,0,0,-1,141.47496,113.585)" stroke-width="1" stroke-linecap="round" stroke-linejoin="round" fill="none" stroke="#000000" d="M -1.19551 1.59401 C -1.09587 .99626 0 .09961 .29886 0 C 0 -.09961 -1.09587 -.99626 -1.19551 -1.59401 "/>
<path transform="matrix(1,0,0,-1,28.546,113.585)" stroke-width="1" stroke-linecap="butt" stroke-miterlimit="10" stroke-linejoin="miter" fill="none" stroke="#000000" d="M 0 -27.88852 L 0 112.92896 "/>
<path transform="matrix(0,1,1,0,28.546,141.47351)" stroke-width="1" stroke-linecap="round" stroke-linejoin="round" fill="none" stroke="#000000" d="M -1.19551 1.59401 C -1.09587 .99626 0 .09961 .29886 0 C 0 -.09961 -1.09587 -.99626 -1.19551 -1.59401 "/>
<path transform="matrix(0,-1,-1,0,28.546,.6560364)" stroke-width="1" stroke-linecap="round" stroke-linejoin="round" fill="none" stroke="#000000" d="M -1.19551 1.59401 C -1.09587 .99626 0 .09961 .29886 0 C 0 -.09961 -1.09587 -.99626 -1.19551 -1.59401 "/>
<path transform="matrix(1,0,0,-1,28.546,113.585)" d="M 1.41731 0 C 1.41731 .78276 .78276 1.41731 0 1.41731 C -.78276 1.41731 -1.41731 .78276 -1.41731 0 C -1.41731 -.78276 -.78276 -1.41731 0 -1.41731 C .78276 -1.41731 1.41731 -.78276 1.41731 0 Z M 0 0 "/>
<path transform="matrix(1,0,0,-1,28.546,113.585)" stroke-width="1" stroke-linecap="butt" stroke-miterlimit="10" stroke-linejoin="miter" fill="none" stroke="#000000" d="M 1.41731 0 C 1.41731 .78276 .78276 1.41731 0 1.41731 C -.78276 1.41731 -1.41731 .78276 -1.41731 0 C -1.41731 -.78276 -.78276 -1.41731 0 -1.41731 C .78276 -1.41731 1.41731 -.78276 1.41731 0 Z M 0 0 "/>
<path transform="matrix(1,0,0,-1,28.546,113.585)" stroke-width="1.19553" stroke-linecap="butt" stroke-miterlimit="10" stroke-linejoin="miter" fill="none" stroke="#000000" d="M 0 0 L 28.04405 84.1322 "/>
<path transform="matrix(.31654,-.94962,-.94962,-.31654,56.59005,29.452797)" stroke-width="1" stroke-linecap="round" stroke-linejoin="round" fill="none" stroke="#000000" d="M -1.91284 2.55046 C -1.75343 1.59402 0 .15938 .4782 0 C 0 -.15938 -1.75343 -1.59402 -1.91284 -2.55046 "/>
<path transform="matrix(1,0,0,-1,28.546,113.585)" stroke-width="1.19553" stroke-linecap="butt" stroke-miterlimit="10" stroke-linejoin="miter" fill="none" stroke="#000000" d="M 0 0 L 84.13219 28.04405 "/>
<path transform="matrix(.94963,-.31654,-.31654,-.94963,112.678188,85.54095)" stroke-width="1" stroke-linecap="round" stroke-linejoin="round" fill="none" stroke="#000000" d="M -1.91284 2.55046 C -1.75343 1.59402 0 .15938 .4782 0 C 0 -.15938 -1.75343 -1.59402 -1.91284 -2.55046 "/>
<path transform="matrix(1,0,0,-1,28.546,113.585)" stroke-width="1" stroke-linecap="butt" stroke-miterlimit="10" stroke-linejoin="miter" fill="none" stroke="#000000" d="M 9.35448 3.11815 C 8.20828 6.26715 5.72676 8.74867 2.57776 9.89487 "/>
<symbol id="font_0_1">
<path d="M .41300003 .511 C .41300003 .577 .395 .716 .293 .716 C .15400002 .716 0 .43400003 0 .20500002 C 0 .111 .029 0 .12 0 C .261 0 .41300003 .28700004 .41300003 .511 M .106 .374 C .123 .43800003 .143 .518 .183 .589 C .21000001 .638 .24700001 .694 .29200004 .694 C .34100003 .694 .34700004 .63 .34700004 .573 C .34700004 .524 .33900003 .47300003 .31500004 .374 L .106 .374 M .30600003 .34200005 C .29500003 .29600004 .27400003 .21100001 .23600003 .13900002 C .201 .071 .16300002 .022000002 .12 .022000002 C .087000008 .022000002 .066 .051000004 .066 .14400001 C .066 .18600002 .072000008 .24400002 .098 .34200005 L .30600003 .34200005 Z "/>
</symbol>
<use xlink:href="#font_0_1" transform="matrix(9.9626,0,0,-9.9626,37.825429,105.81558)"/>
<symbol id="font_0_4">
<path d="M .355 .078999999 C .341 .065999988 .308 .037999989 .308 .01999998 C .308 .00999999 .318 0 .32800005 0 C .33700005 0 .34200005 .0069999697 .34700004 .013000011 C .359 .027999998 .382 .055999996 .42600004 .07800001 C .433 .08200002 .443 .08700001 .443 .09899998 C .443 .10899997 .43600003 .11400002 .429 .11900002 C .40700004 .134 .396 .15200001 .38800005 .176 C .386 .185 .382 .19800002 .368 .19800002 C .354 .19800002 .34800003 .185 .34800003 .17699999 C .34800003 .17199999 .35600005 .13999999 .372 .11900002 L .034999998 .11900002 C .017999992 .11900002 0 .11900002 0 .09899998 C 0 .078999999 .017999992 .078999999 .034999998 .078999999 L .355 .078999999 Z "/>
</symbol>
<symbol id="font_0_2">
<path d="M .439 .38300003 C .439 .43700005 .41300003 .45300005 .395 .45300005 C .37 .45300005 .34600003 .42700003 .34600003 .40500004 C .34600003 .39200003 .351 .38600005 .36200003 .37500004 C .38300003 .35500003 .396 .32900004 .396 .293 C .396 .25100003 .335 .022000002 .21800001 .022000002 C .16700001 .022000002 .14400001 .057000005 .14400001 .109000008 C .14400001 .16500002 .171 .23800002 .202 .321 C .209 .33800004 .21400002 .35200004 .21400002 .37100003 C .21400002 .41600005 .18200001 .45300005 .13200002 .45300005 C .038000004 .45300005 0 .30800004 0 .29900003 C 0 .28900004 .01 .28900004 .012 .28900004 C .022000002 .28900004 .023 .291 .028000003 .307 C .057000005 .40800003 .10000001 .43100003 .12900001 .43100003 C .13700001 .43100003 .15400002 .43100003 .15400002 .39900003 C .15400002 .374 .14400001 .34700004 .13700001 .32900004 C .09300001 .21300002 .080000009 .16700001 .080000009 .124000009 C .080000009 .016 .16800002 0 .21400002 0 C .382 0 .439 .33100004 .439 .38300003 Z "/>
</symbol>
<use xlink:href="#font_0_4" transform="matrix(9.9626,0,0,-9.9626,120.92219,83.657299)"/>
<use xlink:href="#font_0_2" transform="matrix(9.9626,0,0,-9.9626,119.78645,88.907588)"/>
<symbol id="font_0_3">
<path d="M .433 .35000003 C .438 .37200005 .448 .40900005 .448 .41500003 C .448 .43300004 .43400003 .44200004 .419 .44200004 C .407 .44200004 .389 .43400003 .382 .41400004 C .379 .40700004 .33200003 .21600002 .325 .19000001 C .318 .16000001 .316 .14200002 .316 .124000009 C .316 .113000009 .316 .111 .317 .106000009 C .294 .053000004 .264 .022000002 .22500001 .022000002 C .14500001 .022000002 .14500001 .096 .14500001 .113000009 C .14500001 .14500001 .15 .18400002 .19700001 .307 C .20800002 .337 .21400002 .351 .21400002 .37100003 C .21400002 .41600005 .18100001 .45300005 .13200002 .45300005 C .037 .45300005 0 .30800004 0 .29900003 C 0 .28900004 .01 .28900004 .012 .28900004 C .022000002 .28900004 .023 .291 .028000003 .307 C .055000009 .40000005 .094000007 .43100003 .12900001 .43100003 C .13800001 .43100003 .15400002 .43000005 .15400002 .39800004 C .15400002 .37300004 .143 .34500004 .136 .328 C .09200001 .21000003 .080000009 .16400002 .080000009 .126 C .080000009 .035 .14700002 0 .22200002 0 C .23900001 0 .286 0 .326 .07000001 C .352 .0060000007 .421 0 .451 0 C .526 0 .57000008 .063 .596 .123 C .63000008 .20100002 .66200008 .335 .66200008 .38300003 C .66200008 .43800003 .63500007 .45300005 .61800006 .45300005 C .59300008 .45300005 .568 .42700003 .568 .40500004 C .568 .39200003 .57400009 .38600005 .58300009 .37800003 C .59400007 .367 .619 .34100003 .619 .293 C .619 .259 .59000006 .16100002 .56400009 .11000001 C .53800007 .057000005 .503 .022000002 .454 .022000002 C .407 .022000002 .38 .052 .38 .109000008 C .38 .13700001 .387 .16800002 .391 .18200001 L .433 .35000003 Z "/>
</symbol>
<use xlink:href="#font_0_4" transform="matrix(9.9626,0,0,-9.9626,56.279195,18.460297)"/>
<use xlink:href="#font_0_3" transform="matrix(9.9626,0,0,-9.9626,53.479703,23.710587)"/>
</svg>
