<?xml version="1.0" encoding="UTF-8" standalone="no"?>
<!DOCTYPE svg PUBLIC "-//W3C//DTD SVG 1.1//EN" "http://www.w3.org/Graphics/SVG/1.1/DTD/svg11.dtd">
<svg xmlns="http://www.w3.org/2000/svg" xmlns:xlink="http://www.w3.org/1999/xlink" version="1.1" width="425.595pt" height="142.131pt" viewBox="0 0 425.595 142.131">
<path transform="matrix(1,0,0,-1,28.546,113.585)" stroke-width="1" stroke-linecap="butt" stroke-miterlimit="10" stroke-linejoin="miter" fill="none" stroke="#000000" d="M -27.88852 0 L 112.92896 0 "/>
<path transform="matrix(-1,0,0,1,.65748026,113.585)" stroke-width="1" stroke-linecap="round" stroke-linejoin="round" fill="none" stroke="#000000" d="M -1.19551 1.59401 C -1.09587 .99626 0 .09961 .29886 0 C 0 -.09961 -1.09587 -.99626 -1.19551 -1.59401 "/>
<path transform="matrix(1,0,0,-1,141.47496,113.585)" stroke-width="1" stroke-linecap="round" stroke-linejoin="round" fill="none" stroke="#000000" d="M -1.19551 1.59401 C -1.09587 .99626 0 .09961 .29886 0 C 0 -.09961 -1.09587 -.99626 -1.19551 -1.59401 "/>
<path transform="matrix(1,0,0,-1,28.546,113.585)" stroke-width="1" stroke-linecap="butt" stroke-miterlimit="10" stroke-linejoin="miter" fill="none" stroke="#000000" d="M 0 -27.88852 L 0 112.92896 "/>
<path transform="matrix(0,1,1,0,28.546,141.47351)" stroke-width="1" stroke-linecap="round" stroke-linejoin="round" fill="none" stroke="#000000" d="M -1.19551 1.59401 C -1.09587 .99626 0 .09961 .29886 0 C 0 -.09961 -1.09587 -.99626 -1.19551 -1.59401 "/>
<path transform="matrix(0,-1,-1,0,28.546,.6560364)" stroke-width="1" stroke-linecap="round" stroke-linejoin="round" fill="none" stroke="#000000" d="M -1.19551 1.59401 C -1.09587 .99626 0 .09961 .29886 0 C 0 -.09961 -1.09587 -.99626 -1.19551 -1.59401 "/>
<path transform="matrix(1,0,0,-1,28.546,113.585)" stroke-width="1" stroke-linecap="butt" stroke-miterlimit="10" stroke-linejoin="miter" fill="none" stroke="#000000" d="M 0 2.98883 L 0 -2.98883 "/>
<path transform="matrix(1,0,0,-1,28.546,113.585)" stroke-width="1" stroke-linecap="butt" stroke-miterlimit="10" stroke-linejoin="miter" fill="none" stroke="#000000" d="M 28.3468 2.98883 L 28.3468 -2.98883 "/>
<path transform="matrix(1,0,0,-1,28.546,113.585)" stroke-width="1" stroke-linecap="butt" stroke-miterlimit="10" stroke-linejoin="miter" fill="none" stroke="#000000" d="M 0 0 L 0 -2.98883 "/>
<symbol id="font_0_3">
<path d="M .421 .34200005 C .421 .42200003 .416 .50200006 .381 .57600006 C .335 .67200008 .25300003 .688 .211 .688 C .15100001 .688 .07800001 .66200008 .037000006 .56900009 C .0050000029 .5 0 .42200003 0 .34200005 C 0 .26700003 .0040000008 .177 .045000007 .101 C .088 .020000002 .161 0 .21000001 0 C .264 0 .34 .021000002 .384 .116000007 C .416 .185 .421 .263 .421 .34200005 M .21000001 .022000002 C .171 .022000002 .112 .047000003 .094 .143 C .083000008 .20300001 .083000008 .29500003 .083000008 .35400004 C .083000008 .41800005 .083000008 .48400004 .091000009 .53800007 C .11 .65700009 .185 .66600009 .21000001 .66600009 C .243 .66600009 .30900003 .64800009 .328 .549 C .338 .49300004 .338 .41700004 .338 .35400004 C .338 .279 .338 .21100001 .32700003 .147 C .312 .052 .255 .022000002 .21000001 .022000002 Z "/>
</symbol>
<use xlink:href="#font_0_3" transform="matrix(9.9626,0,0,-9.9626,26.443543,126.73318)"/>
<path transform="matrix(1,0,0,-1,28.546,113.585)" stroke-width="1" stroke-linecap="butt" stroke-miterlimit="10" stroke-linejoin="miter" fill="none" stroke="#000000" d="M 28.3468 0 L 28.3468 -2.98883 "/>
<symbol id="font_0_4">
<path d="M .205 .64000007 C .205 .66400006 .205 .666 .18200003 .666 C .120000008 .60200008 .032000007 .60200008 0 .60200008 L 0 .57100006 C .020000004 .57100006 .07900001 .57100006 .13100001 .597 L .13100001 .079 C .13100001 .043 .128 .031000002 .038000004 .031000002 L .0060000049 .031000002 L .0060000049 0 C .04100001 .003 .128 .003 .168 .003 C .20800002 .003 .29500003 .003 .33000005 0 L .33000005 .031000002 L .29800005 .031000002 C .20800002 .031000002 .205 .042000005 .205 .079 L .205 .64000007 Z "/>
</symbol>
<use xlink:href="#font_0_4" transform="matrix(9.9626,0,0,-9.9626,55.287675,126.514)"/>
<path transform="matrix(1,0,0,-1,28.546,113.585)" stroke-width="1" stroke-linecap="butt" stroke-miterlimit="10" stroke-linejoin="miter" fill="none" stroke="#000000" d="M 2.98883 0 L -2.98883 0 "/>
<path transform="matrix(1,0,0,-1,28.546,113.585)" stroke-width="1" stroke-linecap="butt" stroke-miterlimit="10" stroke-linejoin="miter" fill="none" stroke="#000000" d="M 2.98883 85.04042 L -2.98883 85.04042 "/>
<path transform="matrix(1,0,0,-1,28.546,113.585)" stroke-width="1" stroke-linecap="butt" stroke-miterlimit="10" stroke-linejoin="miter" fill="none" stroke="#000000" d="M 0 0 L -2.98883 0 "/>
<use xlink:href="#font_0_3" transform="matrix(9.9626,0,0,-9.9626,17.444542,117.014179)"/>
<path transform="matrix(1,0,0,-1,28.546,113.585)" stroke-width="1" stroke-linecap="butt" stroke-miterlimit="10" stroke-linejoin="miter" fill="none" stroke="#000000" d="M 0 85.04042 L -2.98883 85.04042 "/>
<symbol id="font_0_6">
<path d="M .24800003 .37400005 C .33 .40100003 .388 .47100006 .388 .55 C .388 .632 .3 .688 .204 .688 C .10300001 .688 .027000003 .628 .027000003 .55200007 C .027000003 .519 .049000004 .5 .078 .5 C .109000008 .5 .12900001 .522 .12900001 .55100008 C .12900001 .6010001 .082 .6010001 .067 .6010001 C .098 .65000006 .164 .66300007 .20000002 .66300007 C .24100003 .66300007 .29600004 .64100006 .29600004 .55100008 C .29600004 .53900006 .29400004 .48100005 .268 .43700005 C .238 .38900004 .204 .38600005 .17900002 .38500003 C .171 .38400004 .14700002 .38200004 .14000002 .38200004 C .132 .38100005 .125 .38000003 .125 .37000004 C .125 .35900004 .132 .35900004 .14900002 .35900004 L .19300002 .35900004 C .275 .35900004 .312 .29100005 .312 .193 C .312 .057000005 .24300003 .028 .199 .028 C .15600002 .028 .081 .045 .046000005 .104 C .081 .09900001 .11200001 .12100001 .11200001 .15900001 C .11200001 .19500001 .085 .215 .056 .215 C .031999999 .215 0 .201 0 .157 C 0 .06600001 .093 0 .20200002 0 C .32400004 0 .41500003 .091000009 .41500003 .193 C .41500003 .27500005 .35200004 .35300005 .24800003 .37400005 Z "/>
</symbol>
<use xlink:href="#font_0_6" transform="matrix(9.9626,0,0,-9.9626,17.474429,31.975174)"/>
<path transform="matrix(1,0,0,-1,28.546,113.585)" d="M 1.41731 0 C 1.41731 .78276 .78276 1.41731 0 1.41731 C -.78276 1.41731 -1.41731 .78276 -1.41731 0 C -1.41731 -.78276 -.78276 -1.41731 0 -1.41731 C .78276 -1.41731 1.41731 -.78276 1.41731 0 Z M 0 0 "/>
<path transform="matrix(1,0,0,-1,28.546,113.585)" stroke-width="1" stroke-linecap="butt" stroke-miterlimit="10" stroke-linejoin="miter" fill="none" stroke="#000000" d="M 1.41731 0 C 1.41731 .78276 .78276 1.41731 0 1.41731 C -.78276 1.41731 -1.41731 .78276 -1.41731 0 C -1.41731 -.78276 -.78276 -1.41731 0 -1.41731 C .78276 -1.41731 1.41731 -.78276 1.41731 0 Z M 0 0 "/>
<path transform="matrix(1,0,0,-1,28.546,113.585)" stroke-width="1.19553" stroke-linecap="butt" stroke-miterlimit="10" stroke-linejoin="miter" fill="none" stroke="#000000" d="M 0 0 L 28.04405 84.1322 "/>
<path transform="matrix(.31654,-.94962,-.94962,-.31654,56.59005,29.452797)" stroke-width="1" stroke-linecap="round" stroke-linejoin="round" fill="none" stroke="#000000" d="M -1.91284 2.55046 C -1.75343 1.59402 0 .15938 .4782 0 C 0 -.15938 -1.75343 -1.59402 -1.91284 -2.55046 "/>
<symbol id="font_0_1">
<path d="M .23200003 .00999999 C .23200003 .012999982 .23200003 .014999986 .215 .03199999 C .09 .15799999 .058 .347 .058 .5 C .058 .674 .096 .84800007 .21900001 .97300007 C .23200003 .985 .23200003 .98700007 .23200003 .99 C .23200003 .99700006 .22800002 1 .222 1 C .21200001 1 .12200001 .93200007 .06299999 .805 C .012000002 .69500008 0 .584 0 .5 C 0 .422 .011 .301 .066 .188 C .126 .065 .21200001 0 .222 0 C .22800002 0 .23200003 .0029999912 .23200003 .00999999 Z "/>
</symbol>
<use xlink:href="#font_0_1" transform="matrix(9.9626,0,0,-9.9626,60.9823,33.52766)"/>
<use xlink:href="#font_0_4" transform="matrix(9.9626,0,0,-9.9626,64.758129,31.03701)"/>
<symbol id="font_1_1">
<path d="M .117000009 .194 C .117000009 .26 .092 .29900003 .05300001 .29900003 C .020000004 .29900003 0 .274 0 .246 C 0 .21900001 .020000004 .193 .05300001 .193 C .065000008 .193 .078 .197 .08800001 .206 C .091 .208 .092 .209 .093 .209 C .094000007 .209 .095000009 .208 .095000009 .194 C .095000009 .12 .06000001 .060000004 .027000003 .026999996 C .016000003 .016000003 .016000003 .013999999 .016000003 .0109999929 C .016000003 .003999993 .021000006 0 .026 0 C .037 0 .117000009 .077 .117000009 .194 Z "/>
</symbol>
<use xlink:href="#font_1_1" transform="matrix(9.9626,0,0,-9.9626,69.70778,32.959794)"/>
<symbol id="font_0_2">
<path d="M .232 .5 C .232 .578 .22100002 .699 .16600001 .81200006 C .106 .93500009 .020000004 1 .009999998 1 C .0040000008 1 0 .99600008 0 .99 C 0 .98700007 0 .985 .019000002 .967 C .117000009 .86800006 .174 .709 .174 .5 C .174 .329 .137 .153 .012999997 .026999996 C 0 .014999986 0 .012999982 0 .00999999 C 0 .003999993 .0040000008 0 .009999998 0 C .020000004 0 .11000001 .06799999 .169 .195 C .22 .305 .232 .416 .232 .5 Z "/>
</symbol>
<use xlink:href="#font_0_6" transform="matrix(9.9626,0,0,-9.9626,73.69743,31.256188)"/>
<use xlink:href="#font_0_2" transform="matrix(9.9626,0,0,-9.9626,78.82817,33.52766)"/>
<path transform="matrix(1,0,0,-1,28.546,113.585)" stroke-width="1" stroke-linecap="butt" stroke-miterlimit="10" stroke-linejoin="miter" fill="none" stroke="#000000" d="M 255.57968 0 L 396.39717 0 "/>
<path transform="matrix(-1,0,0,1,284.12568,113.585)" stroke-width="1" stroke-linecap="round" stroke-linejoin="round" fill="none" stroke="#000000" d="M -1.19551 1.59401 C -1.09587 .99626 0 .09961 .29886 0 C 0 -.09961 -1.09587 -.99626 -1.19551 -1.59401 "/>
<path transform="matrix(1,0,0,-1,424.94316,113.585)" stroke-width="1" stroke-linecap="round" stroke-linejoin="round" fill="none" stroke="#000000" d="M -1.19551 1.59401 C -1.09587 .99626 0 .09961 .29886 0 C 0 -.09961 -1.09587 -.99626 -1.19551 -1.59401 "/>
<path transform="matrix(1,0,0,-1,28.546,113.585)" stroke-width="1" stroke-linecap="butt" stroke-miterlimit="10" stroke-linejoin="miter" fill="none" stroke="#000000" d="M 283.46824 -27.88852 L 283.46824 112.92896 "/>
<path transform="matrix(0,1,1,0,312.01423,141.47351)" stroke-width="1" stroke-linecap="round" stroke-linejoin="round" fill="none" stroke="#000000" d="M -1.19551 1.59401 C -1.09587 .99626 0 .09961 .29886 0 C 0 -.09961 -1.09587 -.99626 -1.19551 -1.59401 "/>
<path transform="matrix(0,-1,-1,0,312.01423,.6560364)" stroke-width="1" stroke-linecap="round" stroke-linejoin="round" fill="none" stroke="#000000" d="M -1.19551 1.59401 C -1.09587 .99626 0 .09961 .29886 0 C 0 -.09961 -1.09587 -.99626 -1.19551 -1.59401 "/>
<path transform="matrix(1,0,0,-1,28.546,113.585)" stroke-width="1" stroke-linecap="butt" stroke-miterlimit="10" stroke-linejoin="miter" fill="none" stroke="#000000" d="M 283.46824 2.98883 L 283.46824 -2.98883 "/>
<path transform="matrix(1,0,0,-1,28.546,113.585)" stroke-width="1" stroke-linecap="butt" stroke-miterlimit="10" stroke-linejoin="miter" fill="none" stroke="#000000" d="M 311.81504 2.98883 L 311.81504 -2.98883 "/>
<path transform="matrix(1,0,0,-1,28.546,113.585)" stroke-width="1" stroke-linecap="butt" stroke-miterlimit="10" stroke-linejoin="miter" fill="none" stroke="#000000" d="M 283.46824 0 L 283.46824 -2.98883 "/>
<use xlink:href="#font_0_3" transform="matrix(9.9626,0,0,-9.9626,309.90855,126.73318)"/>
<path transform="matrix(1,0,0,-1,28.546,113.585)" stroke-width="1" stroke-linecap="butt" stroke-miterlimit="10" stroke-linejoin="miter" fill="none" stroke="#000000" d="M 311.81504 0 L 311.81504 -2.98883 "/>
<use xlink:href="#font_0_4" transform="matrix(9.9626,0,0,-9.9626,338.75267,126.514)"/>
<path transform="matrix(1,0,0,-1,28.546,113.585)" stroke-width="1" stroke-linecap="butt" stroke-miterlimit="10" stroke-linejoin="miter" fill="none" stroke="#000000" d="M 286.45707 0 L 280.4794 0 "/>
<path transform="matrix(1,0,0,-1,28.546,113.585)" stroke-width="1" stroke-linecap="butt" stroke-miterlimit="10" stroke-linejoin="miter" fill="none" stroke="#000000" d="M 286.45707 85.04042 L 280.4794 85.04042 "/>
<path transform="matrix(1,0,0,-1,28.546,113.585)" stroke-width="1" stroke-linecap="butt" stroke-miterlimit="10" stroke-linejoin="miter" fill="none" stroke="#000000" d="M 283.46824 0 L 280.4794 0 "/>
<use xlink:href="#font_0_3" transform="matrix(9.9626,0,0,-9.9626,300.90855,117.014179)"/>
<path transform="matrix(1,0,0,-1,28.546,113.585)" stroke-width="1" stroke-linecap="butt" stroke-miterlimit="10" stroke-linejoin="miter" fill="none" stroke="#000000" d="M 283.46824 85.04042 L 280.4794 85.04042 "/>
<use xlink:href="#font_0_6" transform="matrix(9.9626,0,0,-9.9626,300.93843,31.975174)"/>
<path transform="matrix(1,0,0,-1,28.546,113.585)" d="M 284.88554 0 C 284.88554 .78276 284.25099 1.41731 283.46824 1.41731 C 282.68544 1.41731 282.0509 .78276 282.0509 0 C 282.0509 -.78276 282.68544 -1.41731 283.46824 -1.41731 C 284.25099 -1.41731 284.88554 -.78276 284.88554 0 Z M 283.46824 0 "/>
<path transform="matrix(1,0,0,-1,28.546,113.585)" stroke-width="1" stroke-linecap="butt" stroke-miterlimit="10" stroke-linejoin="miter" fill="none" stroke="#000000" d="M 284.88554 0 C 284.88554 .78276 284.25099 1.41731 283.46824 1.41731 C 282.68544 1.41731 282.0509 .78276 282.0509 0 C 282.0509 -.78276 282.68544 -1.41731 283.46824 -1.41731 C 284.25099 -1.41731 284.88554 -.78276 284.88554 0 Z M 283.46824 0 "/>
<path transform="matrix(1,0,0,-1,28.546,113.585)" stroke-width="1.19553" stroke-linecap="butt" stroke-miterlimit="10" stroke-linejoin="miter" fill="none" stroke="#000000" d="M 283.46824 0 L 297.33888 41.61197 "/>
<path transform="matrix(.31653,-.94962,-.94962,-.31653,325.88487,71.97303)" stroke-width="1" stroke-linecap="round" stroke-linejoin="round" fill="none" stroke="#000000" d="M -1.91284 2.55046 C -1.75343 1.59402 0 .15938 .4782 0 C 0 -.15938 -1.75343 -1.59402 -1.91284 -2.55046 "/>
<symbol id="font_2_1">
<path d="M .49200005 .00999999 C .49200005 .014000177 .49 .016000033 .48800005 .019000054 C .45100004 .055999996 .384 .123000148 .31700004 .23100019 C .15600002 .48900009 .083000008 .8140001 .083000008 1.1990001 C .083000008 1.4680002 .11900002 1.8150002 .284 2.1130002 C .36300005 2.255 .44500006 2.3370002 .48900003 2.3810003 C .49200005 2.3840004 .49200005 2.3860002 .49200005 2.3890002 C .49200005 2.3990002 .485 2.3990002 .47100003 2.3990002 C .45700003 2.3990002 .45500005 2.3990002 .44 2.3840004 C .10500002 2.0790003 0 1.6210002 0 1.2000002 C 0 .80700019 .09 .41100014 .34400005 .11199999 C .36400003 .08899999 .402 .048000099 .44300003 .012000084 C .45500005 0 .45700003 0 .47100003 0 C .485 0 .49200005 0 .49200005 .00999999 Z "/>
</symbol>
<use xlink:href="#font_2_1" transform="matrix(9.9626,0,0,-9.9626,332.5952,83.01077)"/>
<use xlink:href="#font_0_4" transform="matrix(9.9626,0,0,-9.9626,339.93965,66.815998)"/>
<path transform="matrix(1,0,0,-1,339.05299,71.065998)" stroke-width="1" stroke-linecap="butt" stroke-miterlimit="10" stroke-linejoin="miter" fill="none" stroke="#000000" d="M 0 0 L 4.981 0 "/>
<symbol id="font_0_5">
<path d="M .07700001 .07700001 L .18300002 .18 C .33900003 .31800003 .39900003 .372 .39900003 .47200004 C .39900003 .586 .30900003 .666 .18700002 .666 C .074 .666 0 .574 0 .485 C 0 .42900003 .05 .42900003 .053000008 .42900003 C .07000001 .42900003 .105000007 .441 .105000007 .48200003 C .105000007 .508 .08700001 .53400006 .052000006 .53400006 C .044000005 .53400006 .042000008 .53400006 .039 .53300008 C .062000004 .59800007 .11600001 .63500007 .17400001 .63500007 C .26500003 .63500007 .308 .554 .308 .47200004 C .308 .39200003 .25800003 .31300003 .20300003 .25100003 L .011000004 .037 C 0 .026 0 .024 0 0 L .37100003 0 L .39900003 .17400001 L .374 .17400001 C .36900003 .14400001 .36200003 .1 .352 .085 C .345 .07700001 .279 .07700001 .257 .07700001 L .07700001 .07700001 Z "/>
</symbol>
<use xlink:href="#font_0_5" transform="matrix(9.9626,0,0,-9.9626,339.55113,80.39)"/>
<use xlink:href="#font_1_1" transform="matrix(9.9626,0,0,-9.9626,346.08576,75.478778)"/>
<use xlink:href="#font_0_6" transform="matrix(9.9626,0,0,-9.9626,351.2714,67.03517)"/>
<path transform="matrix(1,0,0,-1,350.85298,71.065998)" stroke-width="1" stroke-linecap="butt" stroke-miterlimit="10" stroke-linejoin="miter" fill="none" stroke="#000000" d="M 0 0 L 4.981 0 "/>
<use xlink:href="#font_0_5" transform="matrix(9.9626,0,0,-9.9626,351.3511,80.39)"/>
<symbol id="font_2_2">
<path d="M .492 1.1990001 C .492 1.5920003 .402 1.9880002 .14800002 2.2870002 C .128 2.3100003 .09 2.3510004 .049000008 2.3870004 C .037000006 2.3990002 .035 2.3990002 .021000002 2.3990002 C .009000003 2.3990002 0 2.3990002 0 2.3890002 C 0 2.3850003 .0040000008 2.3810003 .006000001 2.3790003 C .041000006 2.3430002 .10800001 2.2760003 .17500001 2.1680003 C .33600004 1.9100002 .40900005 1.5850002 .40900005 1.2000002 C .40900005 .9310001 .37300004 .5840001 .20800002 .286 C .12900001 .14400006 .046 .06100011 .0040000008 .019000054 C .0020000004 .016000033 0 .013000011 0 .00999999 C 0 0 .009000003 0 .021000002 0 C .035 0 .037000006 0 .052000006 .015000105 C .38700003 .32000018 .492 .7780001 .492 1.1990001 Z "/>
</symbol>
<use xlink:href="#font_2_2" transform="matrix(9.9626,0,0,-9.9626,357.37867,83.01077)"/>
</svg>
