<?xml version="1.0" encoding="UTF-8" standalone="no"?>
<!DOCTYPE svg PUBLIC "-//W3C//DTD SVG 1.1//EN" "http://www.w3.org/Graphics/SVG/1.1/DTD/svg11.dtd">
<svg xmlns="http://www.w3.org/2000/svg" xmlns:xlink="http://www.w3.org/1999/xlink" version="1.1" width="369.799pt" height="136.623pt" viewBox="0 0 369.799 136.623">
<path transform="matrix(1,0,0,-1,82.922,63.127)" stroke-width="1" stroke-linecap="butt" stroke-miterlimit="10" stroke-linejoin="miter" fill="none" stroke="#000000" d="M -56.23534 0 L 56.23534 0 "/>
<path transform="matrix(-1,0,0,1,26.686657,63.127)" stroke-width="1" stroke-linecap="round" stroke-linejoin="round" fill="none" stroke="#000000" d="M -1.19551 1.59401 C -1.09587 .99626 0 .09961 .29886 0 C 0 -.09961 -1.09587 -.99626 -1.19551 -1.59401 "/>
<path transform="matrix(1,0,0,-1,139.15734,63.127)" stroke-width="1" stroke-linecap="round" stroke-linejoin="round" fill="none" stroke="#000000" d="M -1.19551 1.59401 C -1.09587 .99626 0 .09961 .29886 0 C 0 -.09961 -1.09587 -.99626 -1.19551 -1.59401 "/>
<symbol id="font_0_6">
<path d="M .305 .31300003 C .311 .33900003 .334 .43100003 .404 .43100003 C .409 .43100003 .433 .43100003 .454 .418 C .426 .41300003 .40600003 .388 .40600003 .36400003 C .40600003 .34800003 .417 .32900004 .444 .32900004 C .46600003 .32900004 .498 .34700004 .498 .38700003 C .498 .43900005 .439 .45300005 .405 .45300005 C .347 .45300005 .312 .40000005 .3 .37700004 C .275 .44300003 .221 .45300005 .19200002 .45300005 C .08800001 .45300005 .031000002 .32400004 .031000002 .29900003 C .031000002 .28900004 .041 .28900004 .043000007 .28900004 C .051000008 .28900004 .054000006 .291 .056 .3 C .09 .40600003 .156 .43100003 .19000001 .43100003 C .209 .43100003 .244 .42200003 .244 .36400003 C .244 .33300004 .22700002 .26600004 .19000001 .126 C .17400001 .064 .13900002 .022000002 .095000009 .022000002 C .08900001 .022000002 .06600001 .022000002 .045 .035 C .07000001 .040000004 .09200001 .061 .09200001 .089 C .09200001 .116000007 .07000001 .124000009 .055000009 .124000009 C .025 .124000009 0 .098000008 0 .06600001 C 0 .020000002 .050000006 0 .094000007 0 C .16000001 0 .19600001 .07000001 .19900002 .076000008 C .21100001 .039 .24700003 0 .307 0 C .41 0 .467 .12900001 .467 .15400002 C .467 .16400002 .458 .16400002 .455 .16400002 C .446 .16400002 .444 .16000001 .442 .15300001 C .409 .046 .341 .022000002 .30900003 .022000002 C .27 .022000002 .254 .054 .254 .08800001 C .254 .11000001 .26 .13200002 .271 .17600002 L .305 .31300003 Z "/>
</symbol>
<use xlink:href="#font_0_6" transform="matrix(9.9626,0,0,-9.9626,137.05692,71.04558)"/>
<path transform="matrix(1,0,0,-1,82.922,63.127)" stroke-width="1" stroke-linecap="butt" stroke-miterlimit="10" stroke-linejoin="miter" fill="none" stroke="#000000" d="M 0 -56.23534 L 0 56.23534 "/>
<path transform="matrix(0,1,1,0,82.922,119.362339)" stroke-width="1" stroke-linecap="round" stroke-linejoin="round" fill="none" stroke="#000000" d="M -1.19551 1.59401 C -1.09587 .99626 0 .09961 .29886 0 C 0 -.09961 -1.09587 -.99626 -1.19551 -1.59401 "/>
<path transform="matrix(0,-1,-1,0,82.922,6.891659)" stroke-width="1" stroke-linecap="round" stroke-linejoin="round" fill="none" stroke="#000000" d="M -1.19551 1.59401 C -1.09587 .99626 0 .09961 .29886 0 C 0 -.09961 -1.09587 -.99626 -1.19551 -1.59401 "/>
<symbol id="font_0_7">
<path d="M .45700003 .586 C .461 .6 .461 .602 .461 .609 C .461 .62700006 .447 .63600006 .432 .63600006 C .42200003 .63600006 .40600003 .63 .397 .615 C .395 .61 .387 .579 .38300003 .561 C .37600003 .535 .36900003 .508 .363 .48100005 L .318 .301 C .314 .286 .271 .21600002 .20500002 .21600002 C .15400002 .21600002 .143 .26000003 .143 .29700003 C .143 .34300003 .16000001 .40500004 .194 .49300004 C .21000001 .53400006 .21400002 .545 .21400002 .56500008 C .21400002 .61 .18200001 .6470001 .13200002 .6470001 C .037 .6470001 0 .50200006 0 .49300004 C 0 .48300005 .01 .48300005 .012 .48300005 C .022000002 .48300005 .023 .485 .028000003 .50100007 C .055000009 .595 .095000009 .625 .12900001 .625 C .13700001 .625 .15400002 .625 .15400002 .59300008 C .15400002 .568 .14400001 .54200008 .13700001 .523 C .097 .41700004 .079 .36 .079 .31300003 C .079 .224 .142 .194 .201 .194 C .24000003 .194 .274 .21100001 .30200003 .23900002 C .289 .187 .277 .13800001 .237 .08500001 C .21100001 .051 .17300001 .022 .127 .022 C .113000009 .022 .068 .025000006 .051000008 .06400001 C .067 .06400001 .080000009 .06400001 .094000007 .076000008 C .104 .08500001 .11400001 .098000008 .11400001 .117000009 C .11400001 .148 .087000008 .15200001 .07700001 .15200001 C .054000006 .15200001 .021 .136 .021 .087000008 C .021 .037 .065000008 0 .127 0 C .23 0 .333 .091000009 .361 .20400001 L .45700003 .586 Z "/>
</symbol>
<use xlink:href="#font_0_7" transform="matrix(9.9626,0,0,-9.9626,74.44891,9.652334)"/>
<path transform="matrix(1,0,0,-1,82.922,63.127)" stroke-width="1" stroke-linecap="butt" stroke-miterlimit="10" stroke-linejoin="miter" fill="none" stroke="#000000" d="M -42.5202 42.5202 C -42.5202 42.5202 -34.2464 -16.5476 -28.3468 -28.3468 C -22.4472 -40.146 -7.86612 -42.5202 0 -42.5202 C 7.86612 -42.5202 22.4472 -40.146 28.3468 -28.3468 C 34.2464 -16.5476 42.5202 42.5202 42.5202 42.5202 "/>
<symbol id="font_0_4">
<path d="M .314 .605 L .4 .605 C .42000003 .605 .43 .605 .43 .625 C .43 .63600006 .42000003 .63600006 .40300004 .63600006 L .32000003 .63600006 L .34100003 .75 C .34500004 .771 .35900004 .842 .365 .8540001 C .374 .873 .39100004 .888 .41200004 .888 C .416 .888 .44200004 .888 .461 .87 C .41700004 .86600008 .407 .8310001 .407 .816 C .407 .793 .425 .781 .444 .781 C .47 .781 .49900005 .8030001 .49900005 .8410001 C .49900005 .8870001 .45300005 .9100001 .41200004 .9100001 C .37800003 .9100001 .31500004 .8920001 .28500004 .793 C .279 .7720001 .27600003 .7620001 .252 .63600006 L .18300002 .63600006 C .164 .63600006 .15300001 .63600006 .15300001 .61700007 C .15300001 .605 .162 .605 .18100001 .605 L .24700001 .605 L .172 .21000001 C .15400002 .113000009 .13700001 .022 .08500001 .022 C .081 .022 .056 .022 .037 .040000008 C .083000008 .043000014 .09200001 .07900001 .09200001 .094000007 C .09200001 .117000009 .074 .12900001 .055 .12900001 C .029 .12900001 0 .10700001 0 .069000009 C 0 .024000004 .044 0 .08500001 0 C .14 0 .18 .059 .19800002 .09700001 C .23000002 .16000001 .25300003 .28100003 .254 .28800003 L .314 .605 Z "/>
</symbol>
<use xlink:href="#font_0_4" transform="matrix(9.9626,0,0,-9.9626,129.48902,25.140334)"/>
<path transform="matrix(1,0,0,-1,82.922,63.127)" stroke-width="1" stroke-linecap="butt" stroke-miterlimit="10" stroke-linejoin="miter" fill="none" stroke="#000000" d="M -42.5202 2.83484 L -42.5202 -2.83484 "/>
<symbol id="font_0_2">
<path d="M .33300004 .38900004 C .31500004 .42600004 .286 .45300005 .24100001 .45300005 C .124 .45300005 0 .30600003 0 .16000001 C 0 .06600001 .055000005 0 .133 0 C .153 0 .20300001 .0040000008 .263 .075 C .27100004 .033000005 .30600003 0 .35400004 0 C .38900004 0 .41200004 .023000002 .42800004 .055000005 C .44500003 .091000009 .45800004 .15200001 .45800004 .15400002 C .45800004 .16400002 .44900004 .16400002 .44600005 .16400002 C .43600003 .16400002 .43500004 .16000001 .43200005 .14600002 C .41500003 .081 .397 .022000002 .35600005 .022000002 C .32900004 .022000002 .32600004 .048 .32600004 .068 C .32600004 .09 .32800005 .098000008 .33900003 .14200002 C .35000003 .18400002 .35200004 .19400002 .36100004 .23200003 L .397 .37200005 C .40400005 .40000005 .40400005 .40200005 .40400005 .40600003 C .40400005 .42300005 .39200003 .43300004 .37500004 .43300004 C .35100005 .43300004 .33600004 .411 .33300004 .38900004 M .26800005 .13000001 C .263 .112 .263 .11000001 .24800001 .093 C .20400001 .038000004 .163 .022000002 .135 .022000002 C .08499999 .022000002 .07100001 .077 .07100001 .116000007 C .07100001 .16600001 .103 .28900004 .126 .335 C .157 .39400003 .202 .43100003 .242 .43100003 C .307 .43100003 .32100005 .34900005 .32100005 .34300003 C .32100005 .337 .31900005 .33100004 .31800003 .32600004 L .26800005 .13000001 Z "/>
</symbol>
<use xlink:href="#font_0_2" transform="matrix(9.9626,0,0,-9.9626,38.1675,73.880588)"/>
<path transform="matrix(1,0,0,-1,82.922,63.127)" stroke-width="1" stroke-linecap="butt" stroke-miterlimit="10" stroke-linejoin="miter" fill="none" stroke="#000000" d="M 42.5202 2.83484 L 42.5202 -2.83484 "/>
<symbol id="font_0_3">
<path d="M .192 .694 C .192 .695 .192 .705 .179 .705 C .156 .705 .083000008 .697 .057 .695 C .049 .694 .038 .693 .038 .675 C .038 .663 .047000003 .663 .062000004 .663 C .11 .663 .112 .656 .112 .646 C .112 .639 .103 .605 .098000008 .584 L .015999999 .25800003 C .0040000008 .20800002 0 .19200002 0 .15700002 C 0 .062000004 .053 0 .127 0 C .24500002 0 .36800004 .14900002 .36800004 .293 C .36800004 .38400004 .31500004 .45300005 .235 .45300005 C .18900001 .45300005 .148 .42400003 .118 .39300005 L .192 .694 M .098000008 .316 C .104 .33800004 .104 .34000004 .113000009 .351 C .162 .41600005 .207 .43100003 .233 .43100003 C .26900003 .43100003 .29600004 .40100003 .29600004 .337 C .29600004 .27800004 .263 .16300002 .24500002 .12500002 C .212 .058000003 .16600001 .022000002 .127 .022000002 C .092999998 .022000002 .060000007 .049000004 .060000007 .123 C .060000007 .14200002 .060000007 .16100002 .076000008 .22400002 L .098000008 .316 Z "/>
</symbol>
<use xlink:href="#font_0_3" transform="matrix(9.9626,0,0,-9.9626,123.77224,76.50959)"/>
<use xlink:href="#font_0_4" transform="matrix(9.9626,0,0,-9.9626,3.849017,132.85433)"/>
<symbol id="font_1_8">
<path d="M .144 .44200004 L .0040000008 .43100003 L .0040000008 .4 C .069000009 .4 .07800001 .39400003 .07800001 .34500004 L .07800001 .076000008 C .07800001 .031000002 .067 .031000002 0 .031000002 L 0 0 C .032000007 .001 .086 .003 .11000001 .003 C .14500001 .003 .18 .001 .21400002 0 L .21400002 .031000002 C .148 .031000002 .144 .036000004 .144 .075 L .144 .44200004 M .148 .61600008 C .148 .648 .123 .669 .095000009 .669 C .064 .669 .042000005 .642 .042000005 .61600008 C .042000005 .58900007 .064 .563 .095000009 .563 C .123 .563 .148 .58400008 .148 .61600008 Z "/>
</symbol>
<symbol id="font_1_e">
<path d="M .17500001 .20500002 C .197 .20100002 .279 .18500002 .279 .113000009 C .279 .062000004 .24400002 .022000002 .16600001 .022000002 C .082 .022000002 .046000005 .079 .027000003 .16400002 C .024000004 .17700002 .023000002 .18100001 .013000004 .18100001 C 0 .18100001 0 .17400001 0 .15600002 L 0 .024 C 0 .0070000009 0 0 .011000004 0 C .016000003 0 .017 .0010000002 .036000007 .020000002 C .038000004 .022000002 .038000004 .024 .056 .043 C .1 .0010000002 .14500001 0 .16600001 0 C .28100003 0 .32700003 .067 .32700003 .13900002 C .32700003 .19200002 .29700003 .22200002 .28500004 .23400001 C .25200004 .26600004 .213 .27400003 .171 .28200004 C .115 .293 .048 .30600003 .048 .36400003 C .048 .39900003 .07400001 .44000004 .16 .44000004 C .27 .44000004 .27500005 .35000003 .277 .31900005 C .27800004 .31000004 .28700004 .31000004 .28900004 .31000004 C .30200003 .31000004 .30200003 .31500004 .30200003 .33400003 L .30200003 .43500004 C .30200003 .45200003 .30200003 .45900003 .291 .45900003 C .286 .45900003 .284 .45900003 .27100004 .44700004 C .26800005 .44300003 .25800003 .43400003 .254 .43100003 C .21600002 .45900003 .17500001 .45900003 .16 .45900003 C .038000004 .45900003 0 .39200003 0 .33600004 C 0 .30100004 .016000003 .27300004 .043000007 .25100003 C .075 .22500003 .10300001 .21900001 .17500001 .20500002 Z "/>
</symbol>
<symbol id="font_1_4">
<path d="M .083000008 .22900002 C .083000008 .39200003 .16500002 .43400003 .218 .43400003 C .227 .43400003 .29 .43300004 .32500003 .397 C .284 .39400003 .278 .36400003 .278 .351 C .278 .32500003 .296 .305 .324 .305 C .35 .305 .37 .32200004 .37 .35200004 C .37 .42000003 .294 .45900003 .21700001 .45900003 C .092 .45900003 0 .351 0 .22700002 C 0 .09900001 .099 0 .215 0 C .349 0 .381 .120000008 .381 .13000001 C .381 .14000002 .37100003 .14000002 .368 .14000002 C .359 .14000002 .35700003 .136 .35500003 .13000001 C .326 .037 .261 .025000003 .224 .025000003 C .171 .025000003 .083000008 .068 .083000008 .22900002 Z "/>
</symbol>
<symbol id="font_1_b">
<path d="M .44300003 .22500003 C .44300003 .35300002 .34300003 .45900003 .222 .45900003 C .097 .45900003 0 .35000003 0 .22500003 C 0 .096 .104 0 .22100002 0 C .342 0 .44300003 .098000008 .44300003 .22500003 M .222 .025000003 C .17900002 .025000003 .135 .046 .10800001 .092 C .083000008 .136 .083000008 .19700001 .083000008 .23300003 C .083000008 .272 .083000008 .32600004 .10700001 .37000004 C .134 .41600005 .18100001 .43700005 .22100002 .43700005 C .26500003 .43700005 .30800004 .41500003 .33400003 .37200005 C .36 .32900004 .36 .27100004 .36 .23300003 C .36 .19700001 .36 .143 .33800004 .09900001 C .316 .054 .272 .025000003 .222 .025000003 Z "/>
</symbol>
<symbol id="font_1_a">
<path d="M .07800001 .344 L .07800001 .076000008 C .07800001 .031000002 .067 .031000002 0 .031000002 L 0 0 C .035 .001 .08600001 .003 .113000009 .003 C .139 .003 .191 .001 .225 0 L .225 .031000002 C .158 .031000002 .147 .031000002 .147 .076000008 L .147 .26000003 C .147 .36400003 .218 .42000003 .282 .42000003 C .345 .42000003 .356 .36600004 .356 .30900003 L .356 .076000008 C .356 .031000002 .345 .031000002 .278 .031000002 L .278 0 C .31300003 .001 .36400003 .003 .391 .003 C .41700004 .003 .46900005 .001 .503 0 L .503 .031000002 C .451 .031000002 .42600004 .031000002 .425 .061000006 L .425 .252 C .425 .33800004 .425 .36900003 .39400003 .40500004 C .38000003 .42200003 .347 .44200004 .289 .44200004 C .216 .44200004 .169 .39900003 .141 .337 L .141 .44200004 L 0 .43100003 L 0 .4 C .07000001 .4 .07800001 .393 .07800001 .344 Z "/>
</symbol>
<symbol id="font_1_3">
<path d="M .291 .087000008 C .29500003 .047000003 .32200004 .005000001 .36900003 .005000001 C .39000003 .005000001 .45100004 .019000002 .45100004 .1 L .45100004 .15600002 L .42600004 .15600002 L .42600004 .1 C .42600004 .042000005 .40100003 .036000004 .39000003 .036000004 C .35700003 .036000004 .35300002 .081 .35300002 .086 L .35300002 .286 C .35300002 .328 .35300002 .367 .31700004 .404 C .27800004 .44300003 .22800002 .45900003 .18 .45900003 C .098 .45900003 .029 .41200004 .029 .34600003 C .029 .316 .049000004 .29900003 .075 .29900003 C .10300001 .29900003 .121 .31900005 .121 .34500004 C .121 .35700003 .116000007 .39000003 .07 .39100004 C .09700001 .42600004 .146 .43700005 .178 .43700005 C .22700003 .43700005 .284 .39800004 .284 .30900003 L .284 .272 C .23300001 .26900003 .16300002 .26600004 .1 .23600002 C .024999999 .20200002 0 .15000002 0 .106000009 C 0 .025000003 .09700001 0 .16 0 C .22600001 0 .272 .040000004 .291 .087000008 M .284 .25100003 L .284 .15100001 C .284 .056 .21200001 .022000002 .167 .022000002 C .11800001 .022000002 .077 .057000005 .077 .107 C .077 .16200002 .11900001 .24500002 .284 .25100003 Z "/>
</symbol>
<symbol id="font_1_11">
<path d="M .397 .344 C .40600003 .367 .42300005 .41000004 .48900003 .411 L .48900003 .44200004 C .46600003 .44000004 .43700005 .43900005 .41400004 .43900005 C .39000003 .43900005 .344 .441 .32700003 .44200004 L .32700003 .411 C .36400003 .41000004 .37500004 .38700003 .37500004 .36800004 C .37500004 .35900004 .37300004 .35500003 .36900003 .344 L .26700003 .089 L .155 .36800004 C .14900002 .381 .14900002 .38300003 .14900002 .38500003 C .14900002 .411 .18800003 .411 .206 .411 L .206 .44200004 C .176 .441 .12000001 .43900005 .097 .43900005 C .07 .43900005 .030000002 .44000004 0 .44200004 L 0 .411 C .063 .411 .067 .40500004 .080000009 .374 L .224 .019000002 C .23000002 .005000001 .23200003 0 .245 0 C .25800003 0 .26200003 .009000001 .26600004 .019000002 L .397 .344 Z "/>
</symbol>
<symbol id="font_1_6">
<path d="M .08400001 .263 C .09 .41200004 .17400001 .43700005 .20800002 .43700005 C .31100003 .43700005 .321 .30200003 .321 .263 L .08400001 .263 M .083000008 .24200002 L .36200003 .24200002 C .38400004 .24200002 .38700003 .24200002 .38700003 .263 C .38700003 .36200003 .33300004 .45900003 .20800002 .45900003 C .09200001 .45900003 0 .35600005 0 .23100002 C 0 .097 .105000007 0 .22000002 0 C .342 0 .38700003 .111 .38700003 .13000001 C .38700003 .14000002 .379 .14200002 .374 .14200002 C .365 .14200002 .36300005 .136 .36100004 .128 C .326 .025000003 .236 .025000003 .22600001 .025000003 C .17600002 .025000003 .136 .055000005 .113000009 .092 C .083000008 .14000002 .083000008 .20600002 .083000008 .24200002 Z "/>
</symbol>
<symbol id="font_1_10">
<path d="M .35900004 .09 L .35900004 0 L .503 .011000001 L .503 .042000005 C .43300004 .042000005 .425 .049000004 .425 .098000008 L .425 .45300005 L .278 .44200004 L .278 .411 C .34800003 .411 .356 .404 .356 .35500003 L .356 .17700002 C .356 .09 .308 .022000002 .23500002 .022000002 C .15100001 .022000002 .147 .069000009 .147 .12100001 L .147 .45300005 L 0 .44200004 L 0 .411 C .07800001 .411 .07800001 .40800003 .07800001 .31900005 L .07800001 .16900002 C .07800001 .091000009 .07800001 0 .23000002 0 C .286 0 .33 .028 .35900004 .09 Z "/>
</symbol>
<symbol id="font_1_c">
<path d="M .14400001 .57000008 L .14400001 .63600006 L 0 .625 L 0 .594 C .07100001 .594 .07800001 .58800008 .07800001 .544 L .07800001 .076 C .07800001 .031000004 .067 .031000004 0 .031000004 L 0 0 C .034 .001000002 .08600001 .0029999912 .112 .0029999912 C .13900002 .0029999912 .19000001 .001000002 .22500003 0 L .22500003 .031000004 C .158 .031000004 .14700002 .031000004 .14700002 .076 L .14700002 .244 L .14700002 .25300003 C .15200001 .237 .19400002 .183 .27 .183 C .38900004 .183 .49300004 .28100003 .49300004 .41000004 C .49300004 .53700008 .39600004 .63600006 .284 .63600006 C .20600002 .63600006 .164 .592 .14400001 .57000008 M .14700002 .30800004 L .14700002 .531 C .17600002 .582 .22500003 .61100009 .27600003 .61100009 C .349 .61100009 .41000004 .523 .41000004 .41000004 C .41000004 .289 .34000004 .20500002 .266 .20500002 C .22600001 .20500002 .18800001 .22500001 .16100002 .266 C .14700002 .287 .14700002 .28800003 .14700002 .30800004 Z "/>
</symbol>
<symbol id="font_1_f">
<path d="M .15400002 .411 L .29700003 .411 L .29700003 .44200004 L .15400002 .44200004 L .15400002 .626 L .12900001 .626 C .12799999 .544 .098000008 .43700005 0 .43300004 L 0 .411 L .085 .411 L .085 .135 C .085 .012000001 .178 0 .21400002 0 C .28500004 0 .31300003 .071 .31300003 .135 L .31300003 .19200002 L .28800003 .19200002 L .28800003 .13700001 C .28800003 .063 .25800003 .025000003 .22100002 .025000003 C .15400002 .025000003 .15400002 .116000007 .15400002 .13300002 L .15400002 .411 Z "/>
</symbol>
<symbol id="font_1_7">
<path d="M .07800001 .076000008 C .07800001 .031000002 .067 .031000002 0 .031000002 L 0 0 C .035 .001 .08600001 .003 .113000009 .003 C .139 .003 .191 .001 .225 0 L .225 .031000002 C .158 .031000002 .147 .031000002 .147 .076000008 L .147 .26000003 C .147 .36400003 .218 .42000003 .282 .42000003 C .345 .42000003 .356 .36600004 .356 .30900003 L .356 .076000008 C .356 .031000002 .345 .031000002 .278 .031000002 L .278 0 C .31300003 .001 .36400003 .003 .391 .003 C .41700004 .003 .46900005 .001 .503 0 L .503 .031000002 C .451 .031000002 .42600004 .031000002 .425 .061000006 L .425 .252 C .425 .33800004 .425 .36900003 .39400003 .40500004 C .38000003 .42200003 .347 .44200004 .289 .44200004 C .20500002 .44200004 .161 .38200004 .14400001 .344 L .14400001 .694 L 0 .683 L 0 .652 C .07000001 .652 .07800001 .64500007 .07800001 .596 L .07800001 .076000008 Z "/>
</symbol>
<symbol id="font_1_d">
<path d="M .13900002 .33200003 L .13900002 .44200004 L 0 .43100003 L 0 .4 C .07000001 .4 .07800001 .393 .07800001 .344 L .07800001 .076000008 C .07800001 .031000002 .067 .031000002 0 .031000002 L 0 0 C .039 .001 .08600001 .003 .11400001 .003 C .15400002 .003 .20100002 .003 .24100003 0 L .24100003 .031000002 L .22000002 .031000002 C .14600002 .031000002 .14400001 .042000005 .14400001 .078 L .14400001 .23200001 C .14400001 .33100004 .18600002 .42000003 .26200003 .42000003 C .26900003 .42000003 .27100004 .42000003 .27300004 .41900004 C .27 .418 .25000004 .40600003 .25000004 .38000003 C .25000004 .35200004 .27100004 .337 .293 .337 C .31100003 .337 .33600004 .349 .33600004 .381 C .33600004 .41300003 .305 .44200004 .26200003 .44200004 C .18900001 .44200004 .15300001 .37500004 .13900002 .33200003 Z "/>
</symbol>
<symbol id="font_1_9">
<path d="M .144 .694 L 0 .683 L 0 .652 C .07000001 .652 .07800001 .64500007 .07800001 .596 L .07800001 .076000008 C .07800001 .031000002 .067 .031000002 0 .031000002 L 0 0 C .033 .001 .086 .003 .11100001 .003 C .136 .003 .185 .001 .22200004 0 L .22200004 .031000002 C .155 .031000002 .144 .031000002 .144 .076000008 L .144 .694 Z "/>
</symbol>
<symbol id="font_1_1">
<path d="M .23200003 .00999999 C .23200003 .012999982 .23200003 .014999986 .215 .03199999 C .09 .15799999 .058 .347 .058 .5 C .058 .674 .096 .84800007 .21900001 .97300007 C .23200003 .985 .23200003 .98700007 .23200003 .99 C .23200003 .99700006 .22800002 1 .222 1 C .21200001 1 .12200001 .93200007 .06299999 .805 C .012000002 .69500008 0 .584 0 .5 C 0 .422 .011 .301 .066 .188 C .126 .065 .21200001 0 .222 0 C .22800002 0 .23200003 .0029999912 .23200003 .00999999 Z "/>
</symbol>
<use xlink:href="#font_1_8" transform="matrix(9.9626,0,0,-9.9626,12.919765,130.812)"/>
<use xlink:href="#font_1_e" transform="matrix(9.9626,0,0,-9.9626,15.689368,130.92159)"/>
<use xlink:href="#font_1_4" transform="matrix(9.9626,0,0,-9.9626,22.94214,130.92159)"/>
<use xlink:href="#font_1_b" transform="matrix(9.9626,0,0,-9.9626,27.30576,130.92159)"/>
<use xlink:href="#font_1_a" transform="matrix(9.9626,0,0,-9.9626,32.32691,130.812)"/>
<use xlink:href="#font_1_4" transform="matrix(9.9626,0,0,-9.9626,37.886045,130.92159)"/>
<use xlink:href="#font_1_3" transform="matrix(9.9626,0,0,-9.9626,42.389139,130.92159)"/>
<use xlink:href="#font_1_11" transform="matrix(9.9626,0,0,-9.9626,46.872308,130.92159)"/>
<use xlink:href="#font_1_6" transform="matrix(9.9626,0,0,-9.9626,51.94327,130.92159)"/>
<use xlink:href="#font_1_10" transform="matrix(9.9626,0,0,-9.9626,59.72406,130.92159)"/>
<use xlink:href="#font_1_c" transform="matrix(9.9626,0,0,-9.9626,65.22342,132.74474)"/>
<use xlink:href="#font_1_b" transform="matrix(9.9626,0,0,-9.9626,74.09013,130.92159)"/>
<use xlink:href="#font_1_a" transform="matrix(9.9626,0,0,-9.9626,79.11128,130.812)"/>
<use xlink:href="#font_1_f" transform="matrix(9.9626,0,0,-9.9626,87.838527,130.92159)"/>
<use xlink:href="#font_1_7" transform="matrix(9.9626,0,0,-9.9626,91.84348,130.812)"/>
<use xlink:href="#font_1_6" transform="matrix(9.9626,0,0,-9.9626,97.34284,130.92159)"/>
<use xlink:href="#font_1_8" transform="matrix(9.9626,0,0,-9.9626,105.13359,130.812)"/>
<use xlink:href="#font_1_a" transform="matrix(9.9626,0,0,-9.9626,107.89323,130.812)"/>
<use xlink:href="#font_1_f" transform="matrix(9.9626,0,0,-9.9626,113.02397,130.92159)"/>
<use xlink:href="#font_1_6" transform="matrix(9.9626,0,0,-9.9626,116.98908,130.92159)"/>
<use xlink:href="#font_1_d" transform="matrix(9.9626,0,0,-9.9626,121.412479,130.812)"/>
<use xlink:href="#font_1_11" transform="matrix(9.9626,0,0,-9.9626,125.22816,130.92159)"/>
<use xlink:href="#font_1_3" transform="matrix(9.9626,0,0,-9.9626,130.1696,130.92159)"/>
<use xlink:href="#font_1_9" transform="matrix(9.9626,0,0,-9.9626,135.06124,130.812)"/>
<use xlink:href="#font_1_1" transform="matrix(9.9626,0,0,-9.9626,141.80593,133.30265)"/>
<symbol id="font_0_1">
<path d="M .117000009 .194 C .117000009 .26 .092 .29900003 .05300001 .29900003 C .020000004 .29900003 0 .274 0 .246 C 0 .21900001 .020000004 .193 .05300001 .193 C .065000008 .193 .078 .197 .08800001 .206 C .091 .208 .092 .209 .093 .209 C .094000007 .209 .095000009 .208 .095000009 .194 C .095000009 .12 .06000001 .060000004 .027000003 .026999996 C .016000003 .016000003 .016000003 .013999999 .016000003 .0109999929 C .016000003 .003999993 .021000006 0 .026 0 C .037 0 .117000009 .077 .117000009 .194 Z "/>
</symbol>
<use xlink:href="#font_0_2" transform="matrix(9.9626,0,0,-9.9626,145.0785,130.92159)"/>
<use xlink:href="#font_0_1" transform="matrix(9.9626,0,0,-9.9626,150.807,132.73477)"/>
<use xlink:href="#font_0_3" transform="matrix(9.9626,0,0,-9.9626,154.85184,130.92159)"/>
<symbol id="font_1_2">
<path d="M .232 .5 C .232 .578 .22100002 .699 .16600001 .81200006 C .106 .93500009 .020000004 1 .009999998 1 C .0040000008 1 0 .99600008 0 .99 C 0 .98700007 0 .985 .019000002 .967 C .117000009 .86800006 .174 .709 .174 .5 C .174 .329 .137 .153 .012999997 .026999996 C 0 .014999986 0 .012999982 0 .00999999 C 0 .003999993 .0040000008 0 .009999998 0 C .020000004 0 .11000001 .06799999 .169 .195 C .22 .305 .232 .416 .232 .5 Z "/>
</symbol>
<use xlink:href="#font_1_2" transform="matrix(9.9626,0,0,-9.9626,159.21688,133.30265)"/>
<path transform="matrix(1,0,0,-1,82.922,63.127)" stroke-width="1" stroke-linecap="butt" stroke-miterlimit="10" stroke-linejoin="miter" fill="none" stroke="#000000" d="M 142.1924 0 L 254.66307 0 "/>
<path transform="matrix(-1,0,0,1,225.1144,63.127)" stroke-width="1" stroke-linecap="round" stroke-linejoin="round" fill="none" stroke="#000000" d="M -1.19551 1.59401 C -1.09587 .99626 0 .09961 .29886 0 C 0 -.09961 -1.09587 -.99626 -1.19551 -1.59401 "/>
<path transform="matrix(1,0,0,-1,337.58509,63.127)" stroke-width="1" stroke-linecap="round" stroke-linejoin="round" fill="none" stroke="#000000" d="M -1.19551 1.59401 C -1.09587 .99626 0 .09961 .29886 0 C 0 -.09961 -1.09587 -.99626 -1.19551 -1.59401 "/>
<use xlink:href="#font_0_6" transform="matrix(9.9626,0,0,-9.9626,335.4819,71.04558)"/>
<path transform="matrix(1,0,0,-1,82.922,63.127)" stroke-width="1" stroke-linecap="butt" stroke-miterlimit="10" stroke-linejoin="miter" fill="none" stroke="#000000" d="M 198.42774 -56.23534 L 198.42774 56.23534 "/>
<path transform="matrix(0,1,1,0,281.34974,119.362339)" stroke-width="1" stroke-linecap="round" stroke-linejoin="round" fill="none" stroke="#000000" d="M -1.19551 1.59401 C -1.09587 .99626 0 .09961 .29886 0 C 0 -.09961 -1.09587 -.99626 -1.19551 -1.59401 "/>
<path transform="matrix(0,-1,-1,0,281.34974,6.891659)" stroke-width="1" stroke-linecap="round" stroke-linejoin="round" fill="none" stroke="#000000" d="M -1.19551 1.59401 C -1.09587 .99626 0 .09961 .29886 0 C 0 -.09961 -1.09587 -.99626 -1.19551 -1.59401 "/>
<use xlink:href="#font_0_7" transform="matrix(9.9626,0,0,-9.9626,272.8739,9.652334)"/>
<path transform="matrix(1,0,0,-1,82.922,63.127)" stroke-width="1" stroke-linecap="butt" stroke-miterlimit="10" stroke-linejoin="miter" fill="none" stroke="#000000" d="M 155.90753 -42.5202 C 155.90753 -42.5202 164.18134 16.5476 170.08094 28.3468 C 175.98053 40.146 190.56162 42.5202 198.42774 42.5202 C 206.29387 42.5202 220.87496 40.146 226.77455 28.3468 C 232.67415 16.5476 240.94794 -42.5202 240.94794 -42.5202 "/>
<symbol id="font_0_5">
<path d="M .45600004 .582 C .45700003 .58800008 .45900006 .59300008 .45900006 .6 C .45900006 .61700007 .44700004 .62700006 .43 .62700006 C .42000003 .62700006 .393 .62 .389 .584 C .371 .62100008 .33600004 .6470001 .296 .6470001 C .18200001 .6470001 .058000007 .507 .058000007 .36300005 C .058000007 .26400004 .119 .20500002 .19100002 .20500002 C .25 .20500002 .297 .252 .30700005 .263 L .30800004 .26200003 C .287 .17300001 .27500005 .132 .27500005 .13000001 C .27100004 .12100001 .237 .022 .13100001 .022 C .112 .022 .079 .023000002 .051 .032000007 C .081 .04100001 .09200001 .067 .09200001 .08400001 C .09200001 .10000001 .081 .11900001 .054000006 .11900001 C .032 .11900001 0 .10100001 0 .061000006 C 0 .02000001 .037 0 .133 0 C .25800003 0 .33000005 .07800001 .34500004 .13800001 L .45600004 .582 M .32600004 .333 C .32 .307 .297 .282 .27500005 .263 C .254 .24500002 .223 .22700002 .194 .22700002 C .14400001 .22700002 .12900001 .279 .12900001 .319 C .12900001 .367 .158 .485 .185 .536 C .21200001 .58500006 .255 .625 .297 .625 C .36300005 .625 .37700004 .544 .37700004 .53900006 C .37700004 .53400006 .375 .528 .374 .52400007 L .32600004 .333 Z "/>
</symbol>
<use xlink:href="#font_0_5" transform="matrix(9.9626,0,0,-9.9626,327.53645,108.86533)"/>
<path transform="matrix(1,0,0,-1,82.922,63.127)" stroke-width="1" stroke-linecap="butt" stroke-miterlimit="10" stroke-linejoin="miter" fill="none" stroke="#000000" d="M 155.90753 2.83484 L 155.90753 -2.83484 "/>
<use xlink:href="#font_0_2" transform="matrix(9.9626,0,0,-9.9626,236.5925,73.880588)"/>
<path transform="matrix(1,0,0,-1,82.922,63.127)" stroke-width="1" stroke-linecap="butt" stroke-miterlimit="10" stroke-linejoin="miter" fill="none" stroke="#000000" d="M 240.94794 2.83484 L 240.94794 -2.83484 "/>
<use xlink:href="#font_0_3" transform="matrix(9.9626,0,0,-9.9626,322.19725,76.50959)"/>
<use xlink:href="#font_0_5" transform="matrix(9.9626,0,0,-9.9626,196.36545,132.85433)"/>
<symbol id="font_1_5">
<path d="M .34600003 .06600001 L .34600003 0 L .493 .011000001 L .493 .042000005 C .423 .042000005 .41500003 .049000004 .41500003 .098000008 L .41500003 .705 L .271 .694 L .271 .663 C .34100003 .663 .349 .656 .349 .607 L .349 .39100004 C .32 .42700003 .277 .45300005 .22299999 .45300005 C .10500001 .45300005 0 .35500003 0 .22600001 C 0 .09900001 .098 0 .21200001 0 C .276 0 .321 .034 .34600003 .06600001 M .34600003 .33400003 L .34600003 .12900001 C .34600003 .111 .34600003 .109000008 .335 .092 C .305 .044 .26 .022000002 .21700001 .022000002 C .17200002 .022000002 .136 .048 .11200001 .086 C .086 .127 .083000008 .18400002 .083000008 .22500003 C .083000008 .26200003 .085 .32200004 .114 .367 C .13500002 .39800004 .17300001 .43100003 .227 .43100003 C .262 .43100003 .30400003 .41600005 .335 .37100003 C .34600003 .35400004 .34600003 .35200004 .34600003 .33400003 Z "/>
</symbol>
<symbol id="font_1_12">
<path d="M .601 .34700004 C .619 .397 .65000006 .41000004 .685 .411 L .685 .44200004 C .66300007 .44000004 .634 .43900005 .61200007 .43900005 C .583 .43900005 .53800007 .441 .519 .44200004 L .519 .411 C .555 .41000004 .577 .39200003 .577 .36300005 C .577 .35700003 .577 .35500003 .572 .34200005 L .481 .086 L .382 .365 C .37800003 .37700004 .377 .37900005 .377 .38400004 C .377 .411 .416 .411 .43600003 .411 L .43600003 .44200004 C .407 .441 .356 .43900005 .33200003 .43900005 C .30200003 .43900005 .273 .44000004 .243 .44200004 L .243 .411 C .28 .411 .296 .40900005 .306 .39600004 C .31100003 .39000003 .322 .36 .329 .34100003 L .243 .09900001 L .148 .36600004 C .143 .37800003 .143 .38000003 .143 .38400004 C .143 .411 .182 .411 .202 .411 L .202 .44200004 C .172 .441 .116000007 .43900005 .09300001 .43900005 C .08900001 .43900005 .036 .44000004 0 .44200004 L 0 .411 C .050000006 .411 .062000008 .40800003 .07400001 .37600003 L .2 .022000002 C .205 .008000001 .208 0 .221 0 C .234 0 .236 .0060000007 .241 .020000002 L .342 .30300004 L .444 .019000002 C .448 .008000001 .451 0 .46400003 0 C .47700004 0 .48000003 .009000001 .48400004 .019000002 L .601 .34700004 Z "/>
</symbol>
<use xlink:href="#font_1_8" transform="matrix(9.9626,0,0,-9.9626,204.97476,130.812)"/>
<use xlink:href="#font_1_e" transform="matrix(9.9626,0,0,-9.9626,207.74437,130.92159)"/>
<use xlink:href="#font_1_4" transform="matrix(9.9626,0,0,-9.9626,214.99715,130.92159)"/>
<use xlink:href="#font_1_b" transform="matrix(9.9626,0,0,-9.9626,219.36077,130.92159)"/>
<use xlink:href="#font_1_a" transform="matrix(9.9626,0,0,-9.9626,224.38191,130.812)"/>
<use xlink:href="#font_1_4" transform="matrix(9.9626,0,0,-9.9626,229.94104,130.92159)"/>
<use xlink:href="#font_1_3" transform="matrix(9.9626,0,0,-9.9626,234.44414,130.92159)"/>
<use xlink:href="#font_1_11" transform="matrix(9.9626,0,0,-9.9626,238.92729,130.92159)"/>
<use xlink:href="#font_1_6" transform="matrix(9.9626,0,0,-9.9626,243.99826,130.92159)"/>
<use xlink:href="#font_1_5" transform="matrix(9.9626,0,0,-9.9626,251.799,130.92159)"/>
<use xlink:href="#font_1_b" transform="matrix(9.9626,0,0,-9.9626,257.27845,130.92159)"/>
<use xlink:href="#font_1_12" transform="matrix(9.9626,0,0,-9.9626,261.88114,130.92159)"/>
<use xlink:href="#font_1_a" transform="matrix(9.9626,0,0,-9.9626,269.21363,130.812)"/>
<use xlink:href="#font_1_b" transform="matrix(9.9626,0,0,-9.9626,278.0405,130.92159)"/>
<use xlink:href="#font_1_a" transform="matrix(9.9626,0,0,-9.9626,283.06166,130.812)"/>
<use xlink:href="#font_1_f" transform="matrix(9.9626,0,0,-9.9626,291.78889,130.92159)"/>
<use xlink:href="#font_1_7" transform="matrix(9.9626,0,0,-9.9626,295.79386,130.812)"/>
<use xlink:href="#font_1_6" transform="matrix(9.9626,0,0,-9.9626,301.2932,130.92159)"/>
<use xlink:href="#font_1_8" transform="matrix(9.9626,0,0,-9.9626,309.08396,130.812)"/>
<use xlink:href="#font_1_a" transform="matrix(9.9626,0,0,-9.9626,311.8436,130.812)"/>
<use xlink:href="#font_1_f" transform="matrix(9.9626,0,0,-9.9626,316.9843,130.92159)"/>
<use xlink:href="#font_1_6" transform="matrix(9.9626,0,0,-9.9626,320.94944,130.92159)"/>
<use xlink:href="#font_1_d" transform="matrix(9.9626,0,0,-9.9626,325.37284,130.812)"/>
<use xlink:href="#font_1_11" transform="matrix(9.9626,0,0,-9.9626,329.1885,130.92159)"/>
<use xlink:href="#font_1_3" transform="matrix(9.9626,0,0,-9.9626,334.12,130.92159)"/>
<use xlink:href="#font_1_9" transform="matrix(9.9626,0,0,-9.9626,339.01164,130.812)"/>
<use xlink:href="#font_1_1" transform="matrix(9.9626,0,0,-9.9626,345.7563,133.30265)"/>
<use xlink:href="#font_0_2" transform="matrix(9.9626,0,0,-9.9626,349.0325,130.92159)"/>
<use xlink:href="#font_0_1" transform="matrix(9.9626,0,0,-9.9626,354.761,132.73477)"/>
<use xlink:href="#font_0_3" transform="matrix(9.9626,0,0,-9.9626,358.8058,130.92159)"/>
<use xlink:href="#font_1_2" transform="matrix(9.9626,0,0,-9.9626,363.17189,133.30265)"/>
</svg>
