<?xml version="1.0" encoding="UTF-8" standalone="no"?>
<!DOCTYPE svg PUBLIC "-//W3C//DTD SVG 1.1//EN" "http://www.w3.org/Graphics/SVG/1.1/DTD/svg11.dtd">
<svg xmlns="http://www.w3.org/2000/svg" xmlns:xlink="http://www.w3.org/1999/xlink" version="1.1" width="227.17pt" height="137.526pt" viewBox="0 0 227.17 137.526">
<path transform="matrix(1,0,0,-1,56.892,93.722)" stroke-width="1" stroke-linecap="butt" stroke-miterlimit="10" stroke-linejoin="miter" fill="none" stroke="#ffffff" d="M -56.69362 0 L 170.08086 0 "/>
<path transform="matrix(1,0,0,-1,56.892,93.722)" d="M 1.41731 0 C 1.41731 .78276 .78276 1.41731 0 1.41731 C -.78276 1.41731 -1.41731 .78276 -1.41731 0 C -1.41731 -.78276 -.78276 -1.41731 0 -1.41731 C .78276 -1.41731 1.41731 -.78276 1.41731 0 Z M 0 0 "/>
<path transform="matrix(1,0,0,-1,56.892,93.722)" stroke-width="1" stroke-linecap="butt" stroke-miterlimit="10" stroke-linejoin="miter" fill="none" stroke="#000000" d="M 1.41731 0 C 1.41731 .78276 .78276 1.41731 0 1.41731 C -.78276 1.41731 -1.41731 .78276 -1.41731 0 C -1.41731 -.78276 -.78276 -1.41731 0 -1.41731 C .78276 -1.41731 1.41731 -.78276 1.41731 0 Z M 0 0 "/>
<path transform="matrix(1,0,0,-1,56.892,93.722)" stroke-width="1.19553" stroke-linecap="butt" stroke-miterlimit="10" stroke-linejoin="miter" fill="none" stroke="#000000" d="M 0 0 L 84.084 0 "/>
<path transform="matrix(1,0,0,-1,140.976,93.722)" stroke-width="1" stroke-linecap="round" stroke-linejoin="round" fill="none" stroke="#000000" d="M -1.91284 2.55046 C -1.75343 1.59402 0 .15938 .4782 0 C 0 -.15938 -1.75343 -1.59402 -1.91284 -2.55046 "/>
<path transform="matrix(1,0,0,-1,56.892,93.722)" stroke-width="1.19553" stroke-linecap="butt" stroke-miterlimit="10" stroke-linejoin="miter" fill="none" stroke="#000000" d="M 0 0 L 55.83818 -27.9191 "/>
<path transform="matrix(.89442,.4472,.4472,-.89442,112.73016,121.6411)" stroke-width="1" stroke-linecap="round" stroke-linejoin="round" fill="none" stroke="#000000" d="M -1.91284 2.55046 C -1.75343 1.59402 0 .15938 .4782 0 C 0 -.15938 -1.75343 -1.59402 -1.91284 -2.55046 "/>
<path transform="matrix(1,0,0,-1,56.892,93.722)" stroke-width="1.19553" stroke-linecap="butt" stroke-miterlimit="10" stroke-linejoin="miter" fill="none" stroke="#000000" d="M 0 0 L 0 84.084 "/>
<path transform="matrix(0,-1,-1,-0,56.892,9.6380009)" stroke-width="1" stroke-linecap="round" stroke-linejoin="round" fill="none" stroke="#000000" d="M -1.91284 2.55046 C -1.75343 1.59402 0 .15938 .4782 0 C 0 -.15938 -1.75343 -1.59402 -1.91284 -2.55046 "/>
<symbol id="font_0_3">
<path d="M .355 .078999999 C .341 .065999988 .308 .037999989 .308 .01999998 C .308 .00999999 .318 0 .32800005 0 C .33700005 0 .34200005 .0069999697 .34700004 .013000011 C .359 .027999998 .382 .055999996 .42600004 .07800001 C .433 .08200002 .443 .08700001 .443 .09899998 C .443 .10899997 .43600003 .11400002 .429 .11900002 C .40700004 .134 .396 .15200001 .38800005 .176 C .386 .185 .382 .19800002 .368 .19800002 C .354 .19800002 .34800003 .185 .34800003 .17699999 C .34800003 .17199999 .35600005 .13999999 .372 .11900002 L .034999998 .11900002 C .017999992 .11900002 0 .11900002 0 .09899998 C 0 .078999999 .017999992 .078999999 .034999998 .078999999 L .355 .078999999 Z "/>
</symbol>
<symbol id="font_0_2">
<path d="M .192 .694 C .192 .695 .192 .705 .179 .705 C .156 .705 .083000008 .697 .057 .695 C .049 .694 .038 .693 .038 .675 C .038 .663 .047000003 .663 .062000004 .663 C .11 .663 .112 .656 .112 .646 C .112 .639 .103 .605 .098000008 .584 L .015999999 .25800003 C .0040000008 .20800002 0 .19200002 0 .15700002 C 0 .062000004 .053 0 .127 0 C .24500002 0 .36800004 .14900002 .36800004 .293 C .36800004 .38400004 .31500004 .45300005 .235 .45300005 C .18900001 .45300005 .148 .42400003 .118 .39300005 L .192 .694 M .098000008 .316 C .104 .33800004 .104 .34000004 .113000009 .351 C .162 .41600005 .207 .43100003 .233 .43100003 C .26900003 .43100003 .29600004 .40100003 .29600004 .337 C .29600004 .27800004 .263 .16300002 .24500002 .12500002 C .212 .058000003 .16600001 .022000002 .127 .022000002 C .092999998 .022000002 .060000007 .049000004 .060000007 .123 C .060000007 .14200002 .060000007 .16100002 .076000008 .22400002 L .098000008 .316 Z "/>
</symbol>
<use xlink:href="#font_0_3" transform="matrix(9.9626,0,0,-9.9626,140.48819,82.322299)"/>
<use xlink:href="#font_0_2" transform="matrix(9.9626,0,0,-9.9626,140.26226,90.20159)"/>
<symbol id="font_0_1">
<path d="M .33300004 .38900004 C .31500004 .42600004 .286 .45300005 .24100001 .45300005 C .124 .45300005 0 .30600003 0 .16000001 C 0 .06600001 .055000005 0 .133 0 C .153 0 .20300001 .0040000008 .263 .075 C .27100004 .033000005 .30600003 0 .35400004 0 C .38900004 0 .41200004 .023000002 .42800004 .055000005 C .44500003 .091000009 .45800004 .15200001 .45800004 .15400002 C .45800004 .16400002 .44900004 .16400002 .44600005 .16400002 C .43600003 .16400002 .43500004 .16000001 .43200005 .14600002 C .41500003 .081 .397 .022000002 .35600005 .022000002 C .32900004 .022000002 .32600004 .048 .32600004 .068 C .32600004 .09 .32800005 .098000008 .33900003 .14200002 C .35000003 .18400002 .35200004 .19400002 .36100004 .23200003 L .397 .37200005 C .40400005 .40000005 .40400005 .40200005 .40400005 .40600003 C .40400005 .42300005 .39200003 .43300004 .37500004 .43300004 C .35100005 .43300004 .33600004 .411 .33300004 .38900004 M .26800005 .13000001 C .263 .112 .263 .11000001 .24800001 .093 C .20400001 .038000004 .163 .022000002 .135 .022000002 C .08499999 .022000002 .07100001 .077 .07100001 .116000007 C .07100001 .16600001 .103 .28900004 .126 .335 C .157 .39400003 .202 .43100003 .242 .43100003 C .307 .43100003 .32100005 .34900005 .32100005 .34300003 C .32100005 .337 .31900005 .33100004 .31800003 .32600004 L .26800005 .13000001 Z "/>
</symbol>
<use xlink:href="#font_0_3" transform="matrix(9.9626,0,0,-9.9626,112.14119,128.9913)"/>
<use xlink:href="#font_0_1" transform="matrix(9.9626,0,0,-9.9626,111.35415,134.2416)"/>
<use xlink:href="#font_0_3" transform="matrix(9.9626,0,0,-9.9626,75.56919,8.000298)"/>
<use xlink:href="#font_0_1" transform="matrix(9.9626,0,0,-9.9626,74.78215,13.250587)"/>
<symbol id="font_1_1">
<path d="M .24200003 .26900003 L .04200001 .46800003 C .030000002 .48000003 .028000012 .48200003 .02000001 .48200003 C .010000005 .48200003 0 .47300003 0 .462 C 0 .455 .002000004 .453 .013000011 .44200004 L .21300002 .241 L .013000011 .040000004 C .002000004 .029000003 0 .027000003 0 .02 C 0 .009000001 .010000005 0 .02000001 0 C .028000012 0 .030000002 .0020000004 .04200001 .014000001 L .24100001 .21300002 L .448 .006 C .45 .005 .45700003 0 .463 0 C .47500003 0 .48300005 .009000001 .48300005 .02 C .48300005 .022 .48300005 .026 .48000003 .031000004 C .47900004 .033000005 .32 .19000001 .27000005 .241 L .453 .42400003 C .458 .43 .473 .44300003 .478 .44900004 C .47900004 .451 .48300005 .455 .48300005 .462 C .48300005 .47300003 .47500003 .48200003 .463 .48200003 C .45500005 .48200003 .45100004 .47800002 .44 .467 L .24200003 .26900003 Z "/>
</symbol>
<use xlink:href="#font_1_1" transform="matrix(9.9626,0,0,-9.9626,83.323497,13.051335)"/>
<use xlink:href="#font_0_3" transform="matrix(9.9626,0,0,-9.9626,92.51619,5.3712995)"/>
<use xlink:href="#font_0_2" transform="matrix(9.9626,0,0,-9.9626,92.29024,13.250587)"/>
</svg>
