<?xml version="1.0" encoding="UTF-8" standalone="no"?>
<!DOCTYPE svg PUBLIC "-//W3C//DTD SVG 1.1//EN" "http://www.w3.org/Graphics/SVG/1.1/DTD/svg11.dtd">
<svg xmlns="http://www.w3.org/2000/svg" xmlns:xlink="http://www.w3.org/1999/xlink" version="1.1" width="170.477pt" height="114.581pt" viewBox="0 0 170.477 114.581">
<path transform="matrix(1,0,0,-1,56.892,57.29)" stroke-width="1" stroke-linecap="butt" stroke-miterlimit="10" stroke-linejoin="miter" fill="none" stroke="#ffffff" d="M -56.69362 0 L 113.38724 28.3468 "/>
<path transform="matrix(1,0,0,-1,56.892,57.29)" d="M 14.17339 0 C 14.17339 7.82784 7.82784 14.17339 0 14.17339 C -7.82784 14.17339 -14.17339 7.82784 -14.17339 0 C -14.17339 -7.82784 -7.82784 -14.17339 0 -14.17339 C 7.82784 -14.17339 14.17339 -7.82784 14.17339 0 Z M 0 0 " fill="#f5f5f5"/>
<path transform="matrix(1,0,0,-1,56.892,57.29)" stroke-width="1" stroke-linecap="butt" stroke-dasharray="2.98883,2.98883" stroke-miterlimit="10" stroke-linejoin="miter" fill="none" stroke="#000000" d="M 14.17339 0 C 14.17339 7.82784 7.82784 14.17339 0 14.17339 C -7.82784 14.17339 -14.17339 7.82784 -14.17339 0 C -14.17339 -7.82784 -7.82784 -14.17339 0 -14.17339 C 7.82784 -14.17339 14.17339 -7.82784 14.17339 0 Z M 0 0 "/>
<path transform="matrix(1,0,0,-1,56.892,57.29)" d="M 0 -56.69362 L 0 56.69362 L 56.69362 56.69362 L 56.69362 -56.69362 L 0 -56.69362 " fill="#929292"/>
<path transform="matrix(1,0,0,-1,56.892,57.29)" stroke-width="1" stroke-linecap="butt" stroke-miterlimit="10" stroke-linejoin="miter" fill="none" stroke="#929292" d="M 0 -56.69362 L 0 56.69362 L 56.69362 56.69362 L 56.69362 -56.69362 L 0 -56.69362 "/>
<path transform="matrix(1,0,0,-1,56.892,57.29)" stroke-width="1.19553" stroke-linecap="butt" stroke-dasharray="2.98883,2.98883" stroke-miterlimit="10" stroke-linejoin="miter" fill="none" stroke="#000000" d="M 0 -56.69362 L 0 56.69362 "/>
<path transform="matrix(1,0,0,-1,56.892,57.29)" d="M .99628 0 C .99628 .55023 .55023 .99628 0 .99628 C -.55023 .99628 -.99628 .55023 -.99628 0 C -.99628 -.55023 -.55023 -.99628 0 -.99628 C .55023 -.99628 .99628 -.55023 .99628 0 Z M 0 0 "/>
<path transform="matrix(1,0,0,-1,56.892,57.29)" stroke-width="1" stroke-linecap="butt" stroke-miterlimit="10" stroke-linejoin="miter" fill="none" stroke="#000000" d="M .99628 0 C .99628 .55023 .55023 .99628 0 .99628 C -.55023 .99628 -.99628 .55023 -.99628 0 C -.99628 -.55023 -.55023 -.99628 0 -.99628 C .55023 -.99628 .99628 -.55023 .99628 0 Z M 0 0 "/>
<symbol id="font_0_2">
<path d="M .355 .078999999 C .341 .065999988 .308 .037999989 .308 .01999998 C .308 .00999999 .318 0 .32800005 0 C .33700005 0 .34200005 .0069999697 .34700004 .013000011 C .359 .027999998 .382 .055999996 .42600004 .07800001 C .433 .08200002 .443 .08700001 .443 .09899998 C .443 .10899997 .43600003 .11400002 .429 .11900002 C .40700004 .134 .396 .15200001 .38800005 .176 C .386 .185 .382 .19800002 .368 .19800002 C .354 .19800002 .34800003 .185 .34800003 .17699999 C .34800003 .17199999 .35600005 .13999999 .372 .11900002 L .034999998 .11900002 C .017999992 .11900002 0 .11900002 0 .09899998 C 0 .078999999 .017999992 .078999999 .034999998 .078999999 L .355 .078999999 Z "/>
</symbol>
<symbol id="font_0_1">
<path d="M .305 .31300003 C .311 .33900003 .334 .43100003 .404 .43100003 C .409 .43100003 .433 .43100003 .454 .418 C .426 .41300003 .40600003 .388 .40600003 .36400003 C .40600003 .34800003 .417 .32900004 .444 .32900004 C .46600003 .32900004 .498 .34700004 .498 .38700003 C .498 .43900005 .439 .45300005 .405 .45300005 C .347 .45300005 .312 .40000005 .3 .37700004 C .275 .44300003 .221 .45300005 .19200002 .45300005 C .08800001 .45300005 .031000002 .32400004 .031000002 .29900003 C .031000002 .28900004 .041 .28900004 .043000007 .28900004 C .051000008 .28900004 .054000006 .291 .056 .3 C .09 .40600003 .156 .43100003 .19000001 .43100003 C .209 .43100003 .244 .42200003 .244 .36400003 C .244 .33300004 .22700002 .26600004 .19000001 .126 C .17400001 .064 .13900002 .022000002 .095000009 .022000002 C .08900001 .022000002 .06600001 .022000002 .045 .035 C .07000001 .040000004 .09200001 .061 .09200001 .089 C .09200001 .116000007 .07000001 .124000009 .055000009 .124000009 C .025 .124000009 0 .098000008 0 .06600001 C 0 .020000002 .050000006 0 .094000007 0 C .16000001 0 .19600001 .07000001 .19900002 .076000008 C .21100001 .039 .24700003 0 .307 0 C .41 0 .467 .12900001 .467 .15400002 C .467 .16400002 .458 .16400002 .455 .16400002 C .446 .16400002 .444 .16000001 .442 .15300001 C .409 .046 .341 .022000002 .30900003 .022000002 C .27 .022000002 .254 .054 .254 .08800001 C .254 .11000001 .26 .13200002 .271 .17600002 L .305 .31300003 Z "/>
</symbol>
<use xlink:href="#font_0_2" transform="matrix(9.9626,0,0,-9.9626,49.285196,55.708295)"/>
<use xlink:href="#font_0_1" transform="matrix(9.9626,0,0,-9.9626,47.890428,60.958585)"/>
<path transform="matrix(1,0,0,-1,56.892,57.29)" stroke-width="1" stroke-linecap="butt" stroke-dasharray="2.98883,2.98883" stroke-miterlimit="10" stroke-linejoin="miter" fill="none" stroke="#000000" d="M 14.17339 0 C 14.17339 7.82784 7.82784 14.17339 0 14.17339 C -7.82784 14.17339 -14.17339 7.82784 -14.17339 0 C -14.17339 -7.82784 -7.82784 -14.17339 0 -14.17339 C 7.82784 -14.17339 14.17339 -7.82784 14.17339 0 Z M 0 0 "/>
</svg>
