<?xml version="1.0" encoding="UTF-8" standalone="no"?>
<!DOCTYPE svg PUBLIC "-//W3C//DTD SVG 1.1//EN" "http://www.w3.org/Graphics/SVG/1.1/DTD/svg11.dtd">
<svg xmlns="http://www.w3.org/2000/svg" xmlns:xlink="http://www.w3.org/1999/xlink" version="1.1" width="338.059pt" height="147.908pt" viewBox="0 0 338.059 147.908">
<path transform="matrix(1,0,0,-1,16.371,116.685009)" stroke-width="1" stroke-linecap="butt" stroke-miterlimit="10" stroke-linejoin="miter" fill="none" stroke="#000000" d="M 0 0 C -9.67674 17.38846 -8.04736 38.38644 0 56.69363 C 19.79381 101.72258 66.63942 78.84435 56.69363 56.69363 C 53.87392 50.41362 45.86589 48.47496 42.51979 42.51979 C 33.78685 26.97696 57.40602 15.3499 56.69363 0 C 55.59456 -23.67972 17.26518 -31.02422 0 0 Z "/>
<symbol id="font_0_1">
<path d="M .252 .314 L .28800003 .314 L .43800003 .082 C .448 .066 .47200004 .027 .483 .012 C .49000005 0 .493 0 .51600006 0 L .65400007 0 C .67200008 0 .68700006 0 .68700006 .018000002 C .68700006 .026 .68100008 .033 .67200008 .035 C .63500007 .043 .5860001 .109000008 .56200006 .141 C .55500009 .15100001 .50500008 .21700001 .43800003 .32500003 C .52700009 .34100003 .61300006 .379 .61300006 .49800004 C .61300006 .637 .46600003 .68500009 .34800003 .68500009 L .034 .68500009 C .016 .68500009 0 .68500009 0 .66700008 C 0 .65000006 .019 .65000006 .027 .65000006 C .084 .65000006 .089 .643 .089 .59300008 L .089 .09200001 C .089 .042000005 .084 .035 .027 .035 C .019 .035 0 .035 0 .018000002 C 0 0 .016 0 .034 0 L .308 0 C .326 0 .34100003 0 .34100003 .018000002 C .34100003 .035 .324 .035 .31300003 .035 C .256 .035 .252 .043 .252 .09200001 L .252 .314 M .44500003 .363 C .47300003 .4 .476 .453 .476 .497 C .476 .545 .47000004 .59800007 .43800003 .63900008 C .47900004 .63000008 .57800009 .59900006 .57800009 .49800004 C .57800009 .43300004 .54800006 .38200004 .44500003 .363 M .252 .596 C .252 .61700007 .252 .65000006 .314 .65000006 C .39900003 .65000006 .441 .615 .441 .497 C .441 .36800004 .41000004 .349 .252 .349 L .252 .596 M .116 .035 C .124 .053000004 .124 .081 .124 .09 L .124 .595 C .124 .605 .124 .632 .116 .65000006 L .23 .65000006 C .21700001 .634 .21700001 .614 .21700001 .59900006 L .21700001 .09 C .21700001 .080000009 .21700001 .053000004 .22500001 .035 L .116 .035 M .32900004 .314 C .33600004 .31500004 .34 .316 .34800003 .316 C .363 .316 .38500003 .31800003 .4 .32000003 C .41500003 .296 .52300009 .11800001 .60600009 .035 L .50900009 .035 L .32900004 .314 Z "/>
</symbol>
<use xlink:href="#font_0_1" transform="matrix(9.9626,0,0,-9.9626,3.4804018,125.912)"/>
<symbol id="font_1_1">
<path d="M .38700003 .091 C .38200004 .071 .37300004 .037 .37300004 .032 C .37300004 .010000001 .39100004 0 .40700004 0 C .42500005 0 .44100005 .013 .44600005 .022 C .45100004 .031000004 .45900006 .063 .46400006 .084 C .46900005 .103 .48000003 .14900002 .48600007 .17400001 C .49200005 .19600001 .49800004 .21800001 .503 .24100001 C .51400008 .284 .51400008 .286 .53400006 .317 C .56600007 .366 .61600008 .423 .69400009 .423 C .75000008 .423 .753 .377 .753 .35300002 C .753 .293 .71000006 .18200001 .69400009 .14000002 C .683 .112 .679 .103 .679 .086 C .679 .033000005 .72300007 0 .77400007 0 C .8740001 0 .91800007 .13800001 .91800007 .15300001 C .91800007 .16600001 .90500006 .16600001 .90200009 .16600001 C .8880001 .16600001 .887 .16000001 .8830001 .14900002 C .8600001 .069000009 .81700006 .028 .77700009 .028 C .75600007 .028 .75200006 .042000005 .75200006 .063 C .75200006 .086 .757 .099 .77500006 .14400001 C .78700008 .17500001 .82800009 .28100003 .82800009 .337 C .82800009 .35300002 .82800009 .395 .79100009 .42400003 C .77400007 .437 .74500009 .451 .6980001 .451 C .60800006 .451 .55300006 .39200003 .521 .35 C .513 .435 .44200004 .451 .39100004 .451 C .30800004 .451 .25200004 .4 .22200002 .36 C .21500002 .42900003 .156 .451 .114999998 .451 C .072 .451 .049 .42000003 .036000004 .397 C .014000002 .36 0 .303 0 .298 C 0 .285 .014000002 .285 .017 .285 C .031 .285 .032 .28800003 .039 .315 C .054 .374 .073 .423 .112 .423 C .138 .423 .145 .40100003 .145 .374 C .145 .35500003 .136 .31800003 .12900001 .291 C .12200001 .264 .112 .22300002 .10700001 .20100002 L .075 .073 C .07100001 .060000004 .065 .035 .065 .032 C .065 .010000001 .083000008 0 .09900001 0 C .117 0 .133 .013 .138 .022 C .143 .031000004 .15100001 .063 .156 .084 C .161 .103 .172 .14900002 .178 .17400001 C .184 .19600001 .19000001 .21800001 .19500001 .24100001 C .20600002 .282 .20800002 .29 .237 .331 C .26500003 .37100003 .31200005 .423 .38700003 .423 C .44500003 .423 .44600005 .372 .44600005 .35300002 C .44600005 .328 .44300003 .315 .42900003 .259 L .38700003 .091 Z "/>
</symbol>
<use xlink:href="#font_1_1" transform="matrix(6.9738,0,0,-6.9738,10.843769,121.868747)"/>
<use xlink:href="#font_0_1" transform="matrix(9.9626,0,0,-9.9626,118.347408,125.912)"/>
<symbol id="font_1_3">
<path d="M .076000008 .072 C .069000009 .044 .067 .036 .027 .036 C .014 .036 0 .036 0 .015000001 C 0 .003999993 .009000001 0 .014 0 C .04 0 .07300001 .003999993 .10000001 .003999993 C .134 .003999993 .172 0 .20500002 0 C .21400002 0 .22500001 .0029999912 .22500001 .022 C .22500001 .036 .21100001 .036 .19900002 .036 C .17700002 .036 .15 .036 .15 .047999994 C .15 .053000004 .157 .079 .16100002 .094000007 C .17300001 .147 .187 .201 .19800002 .243 C .21000001 .223 .24100001 .184 .301 .184 C .423 .184 .558 .319 .558 .46800003 C .558 .58500006 .477 .635 .408 .635 C .34600003 .635 .293 .59300008 .266 .56500008 C .24900002 .62200006 .193 .635 .163 .635 C .124000009 .635 .10000001 .609 .08400001 .582 C .064 .548 .048 .488 .048 .48200003 C .048 .469 .062000004 .469 .065000008 .469 C .079 .469 .080000009 .47200004 .087000008 .499 C .102000009 .55700007 .12100001 .607 .16000001 .607 C .186 .607 .193 .58500006 .193 .558 C .193 .54700008 .19100002 .53400006 .19000001 .528 L .076000008 .072 M .265 .515 C .323 .592 .373 .607 .405 .607 C .444 .607 .47800002 .578 .47800002 .51 C .47800002 .469 .456 .367 .426 .30900003 C .401 .26 .352 .21200001 .301 .21200001 C .23000002 .21200001 .21200001 .289 .21200001 .29900003 C .21200001 .303 .21400002 .31 .21500002 .314 L .265 .515 Z "/>
</symbol>
<use xlink:href="#font_1_3" transform="matrix(6.9738,0,0,-6.9738,125.37603,123.151927)"/>
<path transform="matrix(1,0,0,-1,16.371,116.685009)" stroke-width="1" stroke-linecap="butt" stroke-miterlimit="10" stroke-linejoin="miter" fill="none" stroke="#000000" d="M 113.38728 0 C 99.8216 15.0134 106.12584 37.15157 113.38728 56.69363 C 124.29025 86.03487 141.13936 116.48727 170.08092 113.38728 C 216.22669 108.44466 227.32389 35.74927 170.08092 0 C 151.29839 -11.73 127.33618 -15.43771 113.38728 0 Z "/>
<path transform="matrix(1,0,0,-1,16.371,116.685009)" stroke-width="1" stroke-linecap="butt" stroke-miterlimit="10" stroke-linejoin="miter" fill="none" stroke="#006600" d="M 116.22212 2.83484 C 104.78625 15.10767 106.88667 33.64021 113.38728 49.60692 C 122.4589 71.88783 141.22803 90.39224 162.9942 85.04045 C 198.41086 76.33217 202.73366 23.17062 162.9942 0 C 147.5435 -9.0089 127.9772 -9.7814 116.22212 2.83484 Z "/>
<symbol id="font_2_2">
<path d="M .34600003 .06600001 L .34600003 0 L .493 .011000001 L .493 .042000005 C .423 .042000005 .41500003 .049000004 .41500003 .098000008 L .41500003 .705 L .271 .694 L .271 .663 C .34100003 .663 .349 .656 .349 .607 L .349 .39100004 C .32 .42700003 .277 .45300005 .22299999 .45300005 C .10500001 .45300005 0 .35500003 0 .22600001 C 0 .09900001 .098 0 .21200001 0 C .276 0 .321 .034 .34600003 .06600001 M .34600003 .33400003 L .34600003 .12900001 C .34600003 .111 .34600003 .109000008 .335 .092 C .305 .044 .26 .022000002 .21700001 .022000002 C .17200002 .022000002 .136 .048 .11200001 .086 C .086 .127 .083000008 .18400002 .083000008 .22500003 C .083000008 .26200003 .085 .32200004 .114 .367 C .13500002 .39800004 .17300001 .43100003 .227 .43100003 C .262 .43100003 .30400003 .41600005 .335 .37100003 C .34600003 .35400004 .34600003 .35200004 .34600003 .33400003 Z "/>
</symbol>
<symbol id="font_2_9">
<path d="M .44300003 .22500003 C .44300003 .35300002 .34300003 .45900003 .222 .45900003 C .097 .45900003 0 .35000003 0 .22500003 C 0 .096 .104 0 .22100002 0 C .342 0 .44300003 .098000008 .44300003 .22500003 M .222 .025000003 C .17900002 .025000003 .135 .046 .10800001 .092 C .083000008 .136 .083000008 .19700001 .083000008 .23300003 C .083000008 .272 .083000008 .32600004 .10700001 .37000004 C .134 .41600005 .18100001 .43700005 .22100002 .43700005 C .26500003 .43700005 .30800004 .41500003 .33400003 .37200005 C .36 .32900004 .36 .27100004 .36 .23300003 C .36 .19700001 .36 .143 .33800004 .09900001 C .316 .054 .272 .025000003 .222 .025000003 Z "/>
</symbol>
<symbol id="font_2_7">
<path d="M .07800001 .344 L .07800001 .076000008 C .07800001 .031000002 .067 .031000002 0 .031000002 L 0 0 C .035 .001 .08600001 .003 .113000009 .003 C .139 .003 .191 .001 .225 0 L .225 .031000002 C .158 .031000002 .147 .031000002 .147 .076000008 L .147 .26000003 C .147 .36400003 .218 .42000003 .282 .42000003 C .345 .42000003 .356 .36600004 .356 .30900003 L .356 .076000008 C .356 .031000002 .345 .031000002 .278 .031000002 L .278 0 C .31300003 .001 .36400003 .003 .391 .003 C .41700004 .003 .46900005 .001 .503 0 L .503 .031000002 C .43600003 .031000002 .425 .031000002 .425 .076000008 L .425 .26000003 C .425 .36400003 .496 .42000003 .56 .42000003 C .623 .42000003 .634 .36600004 .634 .30900003 L .634 .076000008 C .634 .031000002 .623 .031000002 .556 .031000002 L .556 0 C .591 .001 .642 .003 .669 .003 C .69500008 .003 .74700006 .001 .781 0 L .781 .031000002 C .72900006 .031000002 .70400008 .031000002 .703 .061000006 L .703 .252 C .703 .33800004 .703 .36900003 .67200008 .40500004 C .65800008 .42200003 .625 .44200004 .56700006 .44200004 C .48300005 .44200004 .439 .38200004 .42200003 .344 C .40800003 .43100003 .33400003 .44200004 .289 .44200004 C .216 .44200004 .169 .39900003 .141 .337 L .141 .44200004 L 0 .43100003 L 0 .4 C .07000001 .4 .07800001 .393 .07800001 .344 Z "/>
</symbol>
<symbol id="font_2_1">
<path d="M .291 .087000008 C .29500003 .047000003 .32200004 .005000001 .36900003 .005000001 C .39000003 .005000001 .45100004 .019000002 .45100004 .1 L .45100004 .15600002 L .42600004 .15600002 L .42600004 .1 C .42600004 .042000005 .40100003 .036000004 .39000003 .036000004 C .35700003 .036000004 .35300002 .081 .35300002 .086 L .35300002 .286 C .35300002 .328 .35300002 .367 .31700004 .404 C .27800004 .44300003 .22800002 .45900003 .18 .45900003 C .098 .45900003 .029 .41200004 .029 .34600003 C .029 .316 .049000004 .29900003 .075 .29900003 C .10300001 .29900003 .121 .31900005 .121 .34500004 C .121 .35700003 .116000007 .39000003 .07 .39100004 C .09700001 .42600004 .146 .43700005 .178 .43700005 C .22700003 .43700005 .284 .39800004 .284 .30900003 L .284 .272 C .23300001 .26900003 .16300002 .26600004 .1 .23600002 C .024999999 .20200002 0 .15000002 0 .106000009 C 0 .025000003 .09700001 0 .16 0 C .22600001 0 .272 .040000004 .291 .087000008 M .284 .25100003 L .284 .15100001 C .284 .056 .21200001 .022000002 .167 .022000002 C .11800001 .022000002 .077 .057000005 .077 .107 C .077 .16200002 .11900001 .24500002 .284 .25100003 Z "/>
</symbol>
<symbol id="font_2_6">
<path d="M .144 .44200004 L .0040000008 .43100003 L .0040000008 .4 C .069000009 .4 .07800001 .39400003 .07800001 .34500004 L .07800001 .076000008 C .07800001 .031000002 .067 .031000002 0 .031000002 L 0 0 C .032000007 .001 .086 .003 .11000001 .003 C .14500001 .003 .18 .001 .21400002 0 L .21400002 .031000002 C .148 .031000002 .144 .036000004 .144 .075 L .144 .44200004 M .148 .61600008 C .148 .648 .123 .669 .095000009 .669 C .064 .669 .042000005 .642 .042000005 .61600008 C .042000005 .58900007 .064 .563 .095000009 .563 C .123 .563 .148 .58400008 .148 .61600008 Z "/>
</symbol>
<symbol id="font_2_8">
<path d="M .07800001 .344 L .07800001 .076000008 C .07800001 .031000002 .067 .031000002 0 .031000002 L 0 0 C .035 .001 .08600001 .003 .113000009 .003 C .139 .003 .191 .001 .225 0 L .225 .031000002 C .158 .031000002 .147 .031000002 .147 .076000008 L .147 .26000003 C .147 .36400003 .218 .42000003 .282 .42000003 C .345 .42000003 .356 .36600004 .356 .30900003 L .356 .076000008 C .356 .031000002 .345 .031000002 .278 .031000002 L .278 0 C .31300003 .001 .36400003 .003 .391 .003 C .41700004 .003 .46900005 .001 .503 0 L .503 .031000002 C .451 .031000002 .42600004 .031000002 .425 .061000006 L .425 .252 C .425 .33800004 .425 .36900003 .39400003 .40500004 C .38000003 .42200003 .347 .44200004 .289 .44200004 C .216 .44200004 .169 .39900003 .141 .337 L .141 .44200004 L 0 .43100003 L 0 .4 C .07000001 .4 .07800001 .393 .07800001 .344 Z "/>
</symbol>
<symbol id="font_2_4">
<path d="M .14200002 .43100003 L .14200002 .54700008 C .14200002 .63500007 .19 .683 .23400003 .683 C .23700002 .683 .25200004 .683 .26700003 .67600008 C .25500003 .67200008 .23700002 .65900006 .23700002 .634 C .23700002 .611 .25300003 .591 .28000004 .591 C .30900003 .591 .32400004 .611 .32400004 .63500007 C .32400004 .67200008 .28700004 .70500007 .23400003 .70500007 C .164 .70500007 .079 .652 .079 .546 L .079 .43100003 L 0 .43100003 L 0 .4 L .079 .4 L .079 .076000008 C .079 .031000002 .068 .031000002 .001000002 .031000002 L .001000002 0 C .040000008 .001 .087000008 .003 .115 .003 C .155 .003 .20200002 .003 .24200002 0 L .24200002 .031000002 L .22100002 .031000002 C .14700002 .031000002 .14500001 .042000005 .14500001 .078 L .14500001 .4 L .25900004 .4 L .25900004 .43100003 L .14200002 .43100003 Z "/>
</symbol>
<use xlink:href="#font_2_2" transform="matrix(9.9626,0,0,-9.9626,146.67574,48.418596)" fill="#006600"/>
<use xlink:href="#font_2_9" transform="matrix(9.9626,0,0,-9.9626,152.15515,48.418596)" fill="#006600"/>
<use xlink:href="#font_2_7" transform="matrix(9.9626,0,0,-9.9626,157.1763,48.309007)" fill="#006600"/>
<use xlink:href="#font_2_1" transform="matrix(9.9626,0,0,-9.9626,165.57477,48.418596)" fill="#006600"/>
<use xlink:href="#font_2_6" transform="matrix(9.9626,0,0,-9.9626,170.4664,48.309007)" fill="#006600"/>
<use xlink:href="#font_2_8" transform="matrix(9.9626,0,0,-9.9626,173.22605,48.309007)" fill="#006600"/>
<use xlink:href="#font_2_9" transform="matrix(9.9626,0,0,-9.9626,182.04294,48.418596)" fill="#006600"/>
<use xlink:href="#font_2_4" transform="matrix(9.9626,0,0,-9.9626,187.07405,48.309007)" fill="#006600"/>
<symbol id="font_3_2">
<path d="M .45600004 .582 C .45700003 .58800008 .45900006 .59300008 .45900006 .6 C .45900006 .61700007 .44700004 .62700006 .43 .62700006 C .42000003 .62700006 .393 .62 .389 .584 C .371 .62100008 .33600004 .6470001 .296 .6470001 C .18200001 .6470001 .058000007 .507 .058000007 .36300005 C .058000007 .26400004 .119 .20500002 .19100002 .20500002 C .25 .20500002 .297 .252 .30700005 .263 L .30800004 .26200003 C .287 .17300001 .27500005 .132 .27500005 .13000001 C .27100004 .12100001 .237 .022 .13100001 .022 C .112 .022 .079 .023000002 .051 .032000007 C .081 .04100001 .09200001 .067 .09200001 .08400001 C .09200001 .10000001 .081 .11900001 .054000006 .11900001 C .032 .11900001 0 .10100001 0 .061000006 C 0 .02000001 .037 0 .133 0 C .25800003 0 .33000005 .07800001 .34500004 .13800001 L .45600004 .582 M .32600004 .333 C .32 .307 .297 .282 .27500005 .263 C .254 .24500002 .223 .22700002 .194 .22700002 C .14400001 .22700002 .12900001 .279 .12900001 .319 C .12900001 .367 .158 .485 .185 .536 C .21200001 .58500006 .255 .625 .297 .625 C .36300005 .625 .37700004 .544 .37700004 .53900006 C .37700004 .53400006 .375 .528 .374 .52400007 L .32600004 .333 Z "/>
</symbol>
<use xlink:href="#font_3_2" transform="matrix(9.9626,0,0,-9.9626,193.25646,50.351339)" fill="#006600"/>
<path transform="matrix(1,0,0,-1,16.371,116.685009)" stroke-width="1" stroke-linecap="butt" stroke-miterlimit="10" stroke-linejoin="miter" fill="none" stroke="#0000ff" d="M 119.05655 5.66927 C 109.47714 15.46928 107.21367 30.28111 113.38728 42.51979 C 121.37799 58.3602 140.53943 65.06021 155.90708 56.69363 C 178.16074 44.5778 178.2044 12.55139 155.90708 0 C 143.85353 -6.78477 128.7666 -4.26395 119.05655 5.66927 Z "/>
<symbol id="font_2_a">
<path d="M .13900002 .33200003 L .13900002 .44200004 L 0 .43100003 L 0 .4 C .07000001 .4 .07800001 .393 .07800001 .344 L .07800001 .076000008 C .07800001 .031000002 .067 .031000002 0 .031000002 L 0 0 C .039 .001 .08600001 .003 .11400001 .003 C .15400002 .003 .20100002 .003 .24100003 0 L .24100003 .031000002 L .22000002 .031000002 C .14600002 .031000002 .14400001 .042000005 .14400001 .078 L .14400001 .23200001 C .14400001 .33100004 .18600002 .42000003 .26200003 .42000003 C .26900003 .42000003 .27100004 .42000003 .27300004 .41900004 C .27 .418 .25000004 .40600003 .25000004 .38000003 C .25000004 .35200004 .27100004 .337 .293 .337 C .31100003 .337 .33600004 .349 .33600004 .381 C .33600004 .41300003 .305 .44200004 .26200003 .44200004 C .18900001 .44200004 .15300001 .37500004 .13900002 .33200003 Z "/>
</symbol>
<symbol id="font_2_5">
<path d="M .19400002 .37800003 C .10700001 .37800003 .10700001 .47800005 .10700001 .50100007 C .10700001 .52800008 .10800001 .56 .12300001 .58500006 C .13100001 .59700009 .15400002 .62500008 .19400002 .62500008 C .28100003 .62500008 .28100003 .52500006 .28100003 .50200006 C .28100003 .47500003 .28000004 .44300003 .26500003 .41800005 C .25700004 .40600003 .23400003 .37800003 .19400002 .37800003 M .07800001 .33900003 C .07800001 .34300003 .07800001 .36600004 .095 .38600005 C .134 .35800005 .17500001 .35500003 .19400002 .35500003 C .28700004 .35500003 .356 .42400003 .356 .50100007 C .356 .53800007 .34000004 .57500007 .31500004 .59800007 C .351 .632 .38700003 .637 .40500004 .637 C .40700004 .637 .41200004 .637 .41500003 .63600006 C .404 .632 .39900003 .62100008 .39900003 .609 C .39900003 .592 .41200004 .58000007 .42800004 .58000007 C .43800003 .58000007 .45700003 .587 .45700003 .61 C .45700003 .62700006 .44500003 .65900006 .40600003 .65900006 C .38600005 .65900006 .342 .65300008 .3 .61200007 C .25800003 .64500007 .21600002 .64800009 .19400002 .64800009 C .10100001 .64800009 .032 .57900008 .032 .50200006 C .032 .458 .054 .42000003 .07900001 .39900003 C .066 .384 .048000006 .351 .048000006 .316 C .048000006 .28500004 .061 .24700001 .09200001 .22700002 C .032 .21000001 0 .16700001 0 .127 C 0 .055000009 .09900001 0 .22100002 0 C .33900003 0 .44300003 .051000015 .44300003 .12900001 C .44300003 .164 .42900003 .21500002 .37800003 .24300002 C .32500003 .27100004 .26700003 .27100004 .20600002 .27100004 C .18100001 .27100004 .13800001 .27100004 .13100001 .272 C .09900001 .27600003 .07800001 .307 .07800001 .33900003 M .222 .023000002 C .12100001 .023000002 .052000006 .074000019 .052000006 .127 C .052000006 .17300001 .09 .21000001 .134 .21300002 L .19300002 .21300002 C .279 .21300002 .39100004 .21300002 .39100004 .127 C .39100004 .073000017 .32000003 .023000002 .222 .023000002 Z "/>
</symbol>
<symbol id="font_2_3">
<path d="M .08400001 .263 C .09 .41200004 .17400001 .43700005 .20800002 .43700005 C .31100003 .43700005 .321 .30200003 .321 .263 L .08400001 .263 M .083000008 .24200002 L .36200003 .24200002 C .38400004 .24200002 .38700003 .24200002 .38700003 .263 C .38700003 .36200003 .33300004 .45900003 .20800002 .45900003 C .09200001 .45900003 0 .35600005 0 .23100002 C 0 .097 .105000007 0 .22000002 0 C .342 0 .38700003 .111 .38700003 .13000001 C .38700003 .14000002 .379 .14200002 .374 .14200002 C .365 .14200002 .36300005 .136 .36100004 .128 C .326 .025000003 .236 .025000003 .22600001 .025000003 C .17600002 .025000003 .136 .055000005 .113000009 .092 C .083000008 .14000002 .083000008 .20600002 .083000008 .24200002 Z "/>
</symbol>
<use xlink:href="#font_2_a" transform="matrix(9.9626,0,0,-9.9626,136.15995,105.00201)" fill="#0000ff"/>
<use xlink:href="#font_2_1" transform="matrix(9.9626,0,0,-9.9626,140.20476,105.111598)" fill="#0000ff"/>
<use xlink:href="#font_2_8" transform="matrix(9.9626,0,0,-9.9626,145.08643,105.00201)" fill="#0000ff"/>
<use xlink:href="#font_2_5" transform="matrix(9.9626,0,0,-9.9626,150.58577,107.054309)" fill="#0000ff"/>
<use xlink:href="#font_2_3" transform="matrix(9.9626,0,0,-9.9626,155.56707,105.111598)" fill="#0000ff"/>
<use xlink:href="#font_2_9" transform="matrix(9.9626,0,0,-9.9626,163.30802,105.111598)" fill="#0000ff"/>
<use xlink:href="#font_2_4" transform="matrix(9.9626,0,0,-9.9626,168.33913,105.00201)" fill="#0000ff"/>
<symbol id="font_3_1">
<path d="M .314 .605 L .4 .605 C .42000003 .605 .43 .605 .43 .625 C .43 .63600006 .42000003 .63600006 .40300004 .63600006 L .32000003 .63600006 L .34100003 .75 C .34500004 .771 .35900004 .842 .365 .8540001 C .374 .873 .39100004 .888 .41200004 .888 C .416 .888 .44200004 .888 .461 .87 C .41700004 .86600008 .407 .8310001 .407 .816 C .407 .793 .425 .781 .444 .781 C .47 .781 .49900005 .8030001 .49900005 .8410001 C .49900005 .8870001 .45300005 .9100001 .41200004 .9100001 C .37800003 .9100001 .31500004 .8920001 .28500004 .793 C .279 .7720001 .27600003 .7620001 .252 .63600006 L .18300002 .63600006 C .164 .63600006 .15300001 .63600006 .15300001 .61700007 C .15300001 .605 .162 .605 .18100001 .605 L .24700001 .605 L .172 .21000001 C .15400002 .113000009 .13700001 .022 .08500001 .022 C .081 .022 .056 .022 .037 .040000008 C .083000008 .043000014 .09200001 .07900001 .09200001 .094000007 C .09200001 .117000009 .074 .12900001 .055 .12900001 C .029 .12900001 0 .10700001 0 .069000009 C 0 .024000004 .044 0 .08500001 0 C .14 0 .18 .059 .19800002 .09700001 C .23000002 .16000001 .25300003 .28100003 .254 .28800003 L .314 .605 Z "/>
</symbol>
<use xlink:href="#font_3_1" transform="matrix(9.9626,0,0,-9.9626,174.904,107.04434)" fill="#0000ff"/>
<path transform="matrix(1,0,0,-1,16.371,116.685009)" stroke-width="1" stroke-linecap="butt" stroke-miterlimit="10" stroke-linejoin="miter" fill="none" stroke="#000000" d="M 311.81504 0 C 321.4922 17.38846 319.8624 38.38644 311.81504 56.69363 C 292.0212 101.72173 245.17649 78.84435 255.12139 56.69363 C 257.94068 50.41405 265.94825 48.47455 269.29438 42.51979 C 278.02687 26.97739 254.40857 15.3499 255.12139 0 C 256.2209 -23.67972 294.54985 -31.02336 311.81504 0 Z "/>
<use xlink:href="#font_0_1" transform="matrix(9.9626,0,0,-9.9626,259.67039,125.912)"/>
<symbol id="font_1_2">
<path d="M .075 .073 C .07100001 .060000004 .065 .035 .065 .032 C .065 .010000001 .083000008 0 .09900001 0 C .117 0 .133 .013 .138 .022 C .143 .031000004 .15100001 .063 .156 .084 C .161 .103 .172 .14900002 .178 .17400001 C .184 .19600001 .19000001 .21800001 .19500001 .24100001 C .20600002 .282 .20800002 .29 .237 .331 C .26500003 .37100003 .31200005 .423 .38700003 .423 C .44500003 .423 .44600005 .372 .44600005 .35300002 C .44600005 .293 .40300004 .18200001 .38700003 .14000002 C .37600003 .112 .37200005 .103 .37200005 .086 C .37200005 .033000005 .41600005 0 .467 0 C .56700006 0 .61100009 .13800001 .61100009 .15300001 C .61100009 .16600001 .59800007 .16600001 .595 .16600001 C .58100005 .16600001 .58000007 .16000001 .57600006 .14900002 C .55300006 .069000009 .51000007 .028 .47000004 .028 C .44900004 .028 .44500003 .042000005 .44500003 .063 C .44500003 .086 .45000003 .099 .46800006 .14400001 C .48000003 .17500001 .521 .28100003 .521 .337 C .521 .43400003 .44400005 .451 .39100004 .451 C .30800004 .451 .25200004 .4 .22200002 .36 C .21500002 .42900003 .156 .451 .114999998 .451 C .072 .451 .049 .42000003 .036000004 .397 C .014000002 .36 0 .303 0 .298 C 0 .285 .014000002 .285 .017 .285 C .031 .285 .032 .28800003 .039 .315 C .054 .374 .073 .423 .112 .423 C .138 .423 .145 .40100003 .145 .374 C .145 .35500003 .136 .31800003 .12900001 .291 C .12200001 .264 .112 .22300002 .10700001 .20100002 L .075 .073 Z "/>
</symbol>
<use xlink:href="#font_1_2" transform="matrix(6.9738,0,0,-6.9738,267.03376,121.868747)"/>
<use xlink:href="#font_3_1" transform="matrix(9.9626,0,0,-9.9626,93.294017,64.52534)"/>
<path transform="matrix(1,0,0,-1,16.371,116.685009)" stroke-width="1" stroke-linecap="butt" stroke-miterlimit="10" stroke-linejoin="miter" fill="none" stroke="#000000" d="M 48.18947 42.5202 C 78.08725 50.5313 97.66286 50.5313 125.63223 43.03687 "/>
<path transform="matrix(.96782,.25931,.25931,-.96782,142.00324,73.64813)" d="M 1.99252 0 L -1.19551 1.59401 L 0 0 L -1.19551 -1.59401 "/>
<use xlink:href="#font_3_2" transform="matrix(9.9626,0,0,-9.9626,240.73744,63.21034)"/>
<path transform="matrix(1,0,0,-1,16.371,116.685009)" stroke-width="1" stroke-linecap="butt" stroke-miterlimit="10" stroke-linejoin="miter" fill="none" stroke="#000000" d="M 195.5928 42.5202 C 218.01616 48.52852 232.69792 48.52852 253.19289 43.0369 "/>
<path transform="matrix(.96782,.25932,.25932,-.96782,269.56388,73.648097)" d="M 1.99252 0 L -1.19551 1.59401 L 0 0 L -1.19551 -1.59401 "/>
</svg>
