<?xml version="1.0" encoding="UTF-8" standalone="no"?>
<!DOCTYPE svg PUBLIC "-//W3C//DTD SVG 1.1//EN" "http://www.w3.org/Graphics/SVG/1.1/DTD/svg11.dtd">
<svg xmlns="http://www.w3.org/2000/svg" xmlns:xlink="http://www.w3.org/1999/xlink" version="1.1" width="147.873pt" height="147.397pt" viewBox="0 0 147.873 147.397">
<path transform="matrix(1,0,0,-1,71.065,76.332)" stroke-width="1" stroke-linecap="butt" stroke-miterlimit="10" stroke-linejoin="miter" fill="none" stroke="#000000" d="M -70.40874 0 L 70.40874 0 "/>
<path transform="matrix(-1,0,0,1,.65626528,76.332)" stroke-width="1" stroke-linecap="round" stroke-linejoin="round" fill="none" stroke="#000000" d="M -1.19551 1.59401 C -1.09587 .99626 0 .09961 .29886 0 C 0 -.09961 -1.09587 -.99626 -1.19551 -1.59401 "/>
<path transform="matrix(1,0,0,-1,141.47374,76.332)" stroke-width="1" stroke-linecap="round" stroke-linejoin="round" fill="none" stroke="#000000" d="M -1.19551 1.59401 C -1.09587 .99626 0 .09961 .29886 0 C 0 -.09961 -1.09587 -.99626 -1.19551 -1.59401 "/>
<path transform="matrix(1,0,0,-1,71.065,76.332)" stroke-width="1" stroke-linecap="butt" stroke-miterlimit="10" stroke-linejoin="miter" fill="none" stroke="#000000" d="M 0 -70.40874 L 0 70.40874 "/>
<path transform="matrix(0,1,1,0,71.065,146.74074)" stroke-width="1" stroke-linecap="round" stroke-linejoin="round" fill="none" stroke="#000000" d="M -1.19551 1.59401 C -1.09587 .99626 0 .09961 .29886 0 C 0 -.09961 -1.09587 -.99626 -1.19551 -1.59401 "/>
<path transform="matrix(0,-1,-1,0,71.065,5.9232637)" stroke-width="1" stroke-linecap="round" stroke-linejoin="round" fill="none" stroke="#000000" d="M -1.19551 1.59401 C -1.09587 .99626 0 .09961 .29886 0 C 0 -.09961 -1.09587 -.99626 -1.19551 -1.59401 "/>
<path transform="matrix(1,0,0,-1,71.065,76.332)" stroke-width="1" stroke-linecap="butt" stroke-miterlimit="10" stroke-linejoin="miter" fill="none" stroke="#000000" d="M -56.327 -42.24525 L 56.327 42.24522 "/>
<path transform="matrix(-.8,.59998,.59998,.8,14.738022,118.57724)" stroke-width="1" stroke-linecap="round" stroke-linejoin="round" fill="none" stroke="#000000" d="M -1.19551 1.59401 C -1.09587 .99626 0 .09961 .29886 0 C 0 -.09961 -1.09587 -.99626 -1.19551 -1.59401 "/>
<path transform="matrix(.8,-.60004,-.60004,-.8,127.39198,34.08678)" stroke-width="1" stroke-linecap="round" stroke-linejoin="round" fill="none" stroke="#000000" d="M -1.19551 1.59401 C -1.09587 .99626 0 .09961 .29886 0 C 0 -.09961 -1.09587 -.99626 -1.19551 -1.59401 "/>
<symbol id="font_0_5">
<path d="M .45700003 .586 C .461 .6 .461 .602 .461 .609 C .461 .62700006 .447 .63600006 .432 .63600006 C .42200003 .63600006 .40600003 .63 .397 .615 C .395 .61 .387 .579 .38300003 .561 C .37600003 .535 .36900003 .508 .363 .48100005 L .318 .301 C .314 .286 .271 .21600002 .20500002 .21600002 C .15400002 .21600002 .143 .26000003 .143 .29700003 C .143 .34300003 .16000001 .40500004 .194 .49300004 C .21000001 .53400006 .21400002 .545 .21400002 .56500008 C .21400002 .61 .18200001 .6470001 .13200002 .6470001 C .037 .6470001 0 .50200006 0 .49300004 C 0 .48300005 .01 .48300005 .012 .48300005 C .022000002 .48300005 .023 .485 .028000003 .50100007 C .055000009 .595 .095000009 .625 .12900001 .625 C .13700001 .625 .15400002 .625 .15400002 .59300008 C .15400002 .568 .14400001 .54200008 .13700001 .523 C .097 .41700004 .079 .36 .079 .31300003 C .079 .224 .142 .194 .201 .194 C .24000003 .194 .274 .21100001 .30200003 .23900002 C .289 .187 .277 .13800001 .237 .08500001 C .21100001 .051 .17300001 .022 .127 .022 C .113000009 .022 .068 .025000006 .051000008 .06400001 C .067 .06400001 .080000009 .06400001 .094000007 .076000008 C .104 .08500001 .11400001 .098000008 .11400001 .117000009 C .11400001 .148 .087000008 .15200001 .07700001 .15200001 C .054000006 .15200001 .021 .136 .021 .087000008 C .021 .037 .065000008 0 .127 0 C .23 0 .333 .091000009 .361 .20400001 L .45700003 .586 Z "/>
</symbol>
<use xlink:href="#font_0_5" transform="matrix(9.9626,0,0,-9.9626,139.5989,86.63634)"/>
<symbol id="font_0_6">
<path d="M .09 .094000007 C .14400001 .15200001 .17300001 .17700002 .209 .20800002 C .209 .20900002 .271 .26200003 .307 .298 C .402 .39100004 .424 .43900005 .424 .44300003 C .424 .45300005 .41500003 .45300005 .41300003 .45300005 C .40600003 .45300005 .403 .45100004 .398 .44200004 C .368 .39400003 .347 .37800003 .323 .37800003 C .299 .37800003 .287 .39300005 .272 .41000004 C .253 .43300004 .23600002 .45300005 .20300001 .45300005 C .128 .45300005 .082 .36 .082 .33900003 C .082 .33400003 .08500001 .328 .09400001 .328 C .103000018 .328 .105000007 .33300004 .10700001 .33900003 C .12600002 .38500003 .18400002 .38600005 .19200002 .38600005 C .21300002 .38600005 .23200001 .37900005 .255 .37100003 C .29500003 .35600005 .306 .35600005 .33200003 .35600005 C .296 .31300003 .21200003 .24100001 .19300002 .22500003 L .103000018 .14100002 C .035 .074 0 .017 0 .010000001 C 0 0 .010000002 0 .012000002 0 C .02 0 .022000004 .0020000004 .028 .013000001 C .051000004 .048 .081 .075 .113000009 .075 C .136 .075 .14600002 .06600001 .17100002 .037 C .18800001 .016 .20600002 0 .23500003 0 C .334 0 .39200003 .127 .39200003 .15400002 C .39200003 .15900001 .388 .16400002 .38 .16400002 C .37100003 .16400002 .36900003 .158 .366 .15100001 C .343 .086 .279 .067 .246 .067 C .22600003 .067 .20800002 .07300001 .187 .080000009 C .15300001 .093 .13800001 .097 .11700001 .097 C .11500001 .097 .09900001 .097 .09 .094000007 Z "/>
</symbol>
<use xlink:href="#font_0_6" transform="matrix(9.9626,0,0,-9.9626,60.45439,7.719589)"/>
<symbol id="font_0_4">
<path d="M .305 .31300003 C .311 .33900003 .334 .43100003 .404 .43100003 C .409 .43100003 .433 .43100003 .454 .418 C .426 .41300003 .40600003 .388 .40600003 .36400003 C .40600003 .34800003 .417 .32900004 .444 .32900004 C .46600003 .32900004 .498 .34700004 .498 .38700003 C .498 .43900005 .439 .45300005 .405 .45300005 C .347 .45300005 .312 .40000005 .3 .37700004 C .275 .44300003 .221 .45300005 .19200002 .45300005 C .08800001 .45300005 .031000002 .32400004 .031000002 .29900003 C .031000002 .28900004 .041 .28900004 .043000007 .28900004 C .051000008 .28900004 .054000006 .291 .056 .3 C .09 .40600003 .156 .43100003 .19000001 .43100003 C .209 .43100003 .244 .42200003 .244 .36400003 C .244 .33300004 .22700002 .26600004 .19000001 .126 C .17400001 .064 .13900002 .022000002 .095000009 .022000002 C .08900001 .022000002 .06600001 .022000002 .045 .035 C .07000001 .040000004 .09200001 .061 .09200001 .089 C .09200001 .116000007 .07000001 .124000009 .055000009 .124000009 C .025 .124000009 0 .098000008 0 .06600001 C 0 .020000002 .050000006 0 .094000007 0 C .16000001 0 .19600001 .07000001 .19900002 .076000008 C .21100001 .039 .24700003 0 .307 0 C .41 0 .467 .12900001 .467 .15400002 C .467 .16400002 .458 .16400002 .455 .16400002 C .446 .16400002 .444 .16000001 .442 .15300001 C .409 .046 .341 .022000002 .30900003 .022000002 C .27 .022000002 .254 .054 .254 .08800001 C .254 .11000001 .26 .13200002 .271 .17600002 L .305 .31300003 Z "/>
</symbol>
<use xlink:href="#font_0_4" transform="matrix(9.9626,0,0,-9.9626,11.814917,128.1926)"/>
<path transform="matrix(1,0,0,-1,71.065,76.332)" d="M 29.76413 28.3468 C 29.76413 29.12956 29.12956 29.76413 28.3468 29.76413 C 27.56404 29.76413 26.92947 29.12956 26.92947 28.3468 C 26.92947 27.56404 27.56404 26.92947 28.3468 26.92947 C 29.12956 26.92947 29.76413 27.56404 29.76413 28.3468 Z M 28.3468 28.3468 "/>
<path transform="matrix(1,0,0,-1,71.065,76.332)" stroke-width="1" stroke-linecap="butt" stroke-miterlimit="10" stroke-linejoin="miter" fill="none" stroke="#000000" d="M 29.76413 28.3468 C 29.76413 29.12956 29.12956 29.76413 28.3468 29.76413 C 27.56404 29.76413 26.92947 29.12956 26.92947 28.3468 C 26.92947 27.56404 27.56404 26.92947 28.3468 26.92947 C 29.12956 26.92947 29.76413 27.56404 29.76413 28.3468 Z M 28.3468 28.3468 "/>
<path transform="matrix(1,0,0,-1,71.065,76.332)" stroke-width="1" stroke-linecap="butt" stroke-dasharray="2.98883,2.98883" stroke-miterlimit="10" stroke-linejoin="miter" fill="none" stroke="#000000" d="M 28.3468 28.3468 L 28.3468 -21.2601 "/>
<path transform="matrix(1,0,0,-1,71.065,76.332)" stroke-width="1" stroke-linecap="butt" stroke-dasharray="2.98883,2.98883" stroke-miterlimit="10" stroke-linejoin="miter" fill="none" stroke="#000000" d="M 28.3468 -21.2601 L 0 0 "/>
<path transform="matrix(1,0,0,-1,71.065,76.332)" stroke-width="1" stroke-linecap="butt" stroke-miterlimit="10" stroke-linejoin="miter" fill="none" stroke="#000000" d="M -5.66927 -4.25183 C -2.1376 -5.53711 1.76234 -5.36691 5.16837 -3.77864 "/>
<symbol id="font_1_1">
<path d="M .23200003 .00999999 C .23200003 .012999982 .23200003 .014999986 .215 .03199999 C .09 .15799999 .058 .347 .058 .5 C .058 .674 .096 .84800007 .21900001 .97300007 C .23200003 .985 .23200003 .98700007 .23200003 .99 C .23200003 .99700006 .22800002 1 .222 1 C .21200001 1 .12200001 .93200007 .06299999 .805 C .012000002 .69500008 0 .584 0 .5 C 0 .422 .011 .301 .066 .188 C .126 .065 .21200001 0 .222 0 C .22800002 0 .23200003 .0029999912 .23200003 .00999999 Z "/>
</symbol>
<use xlink:href="#font_1_1" transform="matrix(9.9626,0,0,-9.9626,84.974308,46.163656)"/>
<symbol id="font_0_3">
<path d="M .059000009 .07000001 C .056 .055000005 .050000006 .032 .050000006 .027000003 C .050000006 .009000001 .064 0 .079 0 C .091000009 0 .10900001 .008000001 .11600001 .028 C .118 .032 .15200001 .16800002 .156 .18600002 C .164 .21900001 .18200001 .28900004 .18800001 .316 C .19200002 .32900004 .22000002 .37600003 .244 .39800004 C .252 .40500004 .281 .43100003 .324 .43100003 C .35 .43100003 .365 .41900004 .366 .41900004 C .336 .41400004 .314 .39000003 .314 .36400003 C .314 .34800003 .325 .32900004 .352 .32900004 C .379 .32900004 .407 .35200004 .407 .388 C .407 .42300005 .375 .45300005 .324 .45300005 C .259 .45300005 .21500002 .404 .19600001 .37600003 C .18800001 .42100004 .15200001 .45300005 .105000007 .45300005 C .059000009 .45300005 .040000008 .41400004 .031000002 .39600004 C .013000002 .36200003 0 .30200003 0 .29900003 C 0 .28900004 .01 .28900004 .012 .28900004 C .022000002 .28900004 .023 .29000003 .029000001 .31200005 C .046000005 .38300003 .06600001 .43100003 .10200001 .43100003 C .119 .43100003 .133 .42300005 .133 .38500003 C .133 .36400003 .13000001 .35300002 .11700001 .30100004 L .059000009 .07000001 Z "/>
</symbol>
<symbol id="font_0_2">
<path d="M .117000009 .194 C .117000009 .26 .092 .29900003 .05300001 .29900003 C .020000004 .29900003 0 .274 0 .246 C 0 .21900001 .020000004 .193 .05300001 .193 C .065000008 .193 .078 .197 .08800001 .206 C .091 .208 .092 .209 .093 .209 C .094000007 .209 .095000009 .208 .095000009 .194 C .095000009 .12 .06000001 .060000004 .027000003 .026999996 C .016000003 .016000003 .016000003 .013999999 .016000003 .0109999929 C .016000003 .003999993 .021000006 0 .026 0 C .037 0 .117000009 .077 .117000009 .194 Z "/>
</symbol>
<symbol id="font_0_1">
<path d="M .41300003 .511 C .41300003 .577 .395 .716 .293 .716 C .15400002 .716 0 .43400003 0 .20500002 C 0 .111 .029 0 .12 0 C .261 0 .41300003 .28700004 .41300003 .511 M .106 .374 C .123 .43800003 .143 .518 .183 .589 C .21000001 .638 .24700001 .694 .29200004 .694 C .34100003 .694 .34700004 .63 .34700004 .573 C .34700004 .524 .33900003 .47300003 .31500004 .374 L .106 .374 M .30600003 .34200005 C .29500003 .29600004 .27400003 .21100001 .23600003 .13900002 C .201 .071 .16300002 .022000002 .12 .022000002 C .087000008 .022000002 .066 .051000004 .066 .14400001 C .066 .18600002 .072000008 .24400002 .098 .34200005 L .30600003 .34200005 Z "/>
</symbol>
<use xlink:href="#font_0_3" transform="matrix(9.9626,0,0,-9.9626,88.151927,43.782594)"/>
<use xlink:href="#font_0_2" transform="matrix(9.9626,0,0,-9.9626,92.93397,45.595788)"/>
<use xlink:href="#font_0_1" transform="matrix(9.9626,0,0,-9.9626,96.92897,43.782594)"/>
<use xlink:href="#font_0_2" transform="matrix(9.9626,0,0,-9.9626,102.31874,45.595788)"/>
<use xlink:href="#font_0_6" transform="matrix(9.9626,0,0,-9.9626,106.31374,43.782594)"/>
<symbol id="font_1_2">
<path d="M .232 .5 C .232 .578 .22100002 .699 .16600001 .81200006 C .106 .93500009 .020000004 1 .009999998 1 C .0040000008 1 0 .99600008 0 .99 C 0 .98700007 0 .985 .019000002 .967 C .117000009 .86800006 .174 .709 .174 .5 C .174 .329 .137 .153 .012999997 .026999996 C 0 .014999986 0 .012999982 0 .00999999 C 0 .003999993 .0040000008 0 .009999998 0 C .020000004 0 .11000001 .06799999 .169 .195 C .22 .305 .232 .416 .232 .5 Z "/>
</symbol>
<use xlink:href="#font_1_2" transform="matrix(9.9626,0,0,-9.9626,111.52888,46.163656)"/>
<use xlink:href="#font_0_6" transform="matrix(9.9626,0,0,-9.9626,100.13939,71.49959)"/>
<use xlink:href="#font_0_3" transform="matrix(9.9626,0,0,-9.9626,85.97692,87.08959)"/>
<use xlink:href="#font_0_1" transform="matrix(9.9626,0,0,-9.9626,66.17243,89.821598)"/>
</svg>
