<?xml version="1.0" encoding="UTF-8" standalone="no"?>
<!DOCTYPE svg PUBLIC "-//W3C//DTD SVG 1.1//EN" "http://www.w3.org/Graphics/SVG/1.1/DTD/svg11.dtd">
<svg xmlns="http://www.w3.org/2000/svg" xmlns:xlink="http://www.w3.org/1999/xlink" version="1.1" width="340.556pt" height="198.824pt" viewBox="0 0 340.556 198.824">
<path transform="matrix(1,0,0,-1,56.892,141.932)" stroke-width="1" stroke-linecap="butt" stroke-miterlimit="10" stroke-linejoin="miter" fill="none" stroke="#000000" d="M -56.23534 0 L 283.0098 0 "/>
<path transform="matrix(-1,0,0,1,.6566582,141.932)" stroke-width="1" stroke-linecap="round" stroke-linejoin="round" fill="none" stroke="#000000" d="M -1.19551 1.59401 C -1.09587 .99626 0 .09961 .29886 0 C 0 -.09961 -1.09587 -.99626 -1.19551 -1.59401 "/>
<path transform="matrix(1,0,0,-1,339.9018,141.932)" stroke-width="1" stroke-linecap="round" stroke-linejoin="round" fill="none" stroke="#000000" d="M -1.19551 1.59401 C -1.09587 .99626 0 .09961 .29886 0 C 0 -.09961 -1.09587 -.99626 -1.19551 -1.59401 "/>
<path transform="matrix(1,0,0,-1,56.892,141.932)" stroke-width="1" stroke-linecap="butt" stroke-miterlimit="10" stroke-linejoin="miter" fill="none" stroke="#000000" d="M 0 -56.23534 L 0 141.27576 "/>
<path transform="matrix(0,1,1,0,56.892,198.16735)" stroke-width="1" stroke-linecap="round" stroke-linejoin="round" fill="none" stroke="#000000" d="M -1.19551 1.59401 C -1.09587 .99626 0 .09961 .29886 0 C 0 -.09961 -1.09587 -.99626 -1.19551 -1.59401 "/>
<path transform="matrix(0,-1,-1,0,56.892,.65625)" stroke-width="1" stroke-linecap="round" stroke-linejoin="round" fill="none" stroke="#000000" d="M -1.19551 1.59401 C -1.09587 .99626 0 .09961 .29886 0 C 0 -.09961 -1.09587 -.99626 -1.19551 -1.59401 "/>
<path transform="matrix(1,0,0,-1,56.892,141.932)" stroke-width="1" stroke-linecap="butt" stroke-miterlimit="10" stroke-linejoin="miter" fill="none" stroke="#000000" d="M 141.73404 2.98883 L 141.73404 -2.98883 "/>
<path transform="matrix(1,0,0,-1,56.892,141.932)" stroke-width="1" stroke-linecap="butt" stroke-miterlimit="10" stroke-linejoin="miter" fill="none" stroke="#000000" d="M 141.73404 0 L 141.73404 -2.98883 "/>
<symbol id="font_0_6">
<path d="M .39900003 .223 C .39900003 .34200005 .317 .44200004 .209 .44200004 C .16100002 .44200004 .118000019 .42600004 .082 .39100004 L .082 .586 C .10200001 .58000007 .135 .573 .16700001 .573 C .29 .573 .36 .66400006 .36 .67700007 C .36 .683 .357 .688 .35 .688 C .349 .688 .347 .688 .342 .68500009 C .322 .67600008 .273 .656 .20600002 .656 C .16600001 .656 .120000008 .66300007 .073 .6840001 C .065 .68700006 .06300001 .68700006 .061000009 .68700006 C .051000004 .68700006 .051000004 .679 .051000004 .66300007 L .051000004 .36700005 C .051000004 .34900005 .051000004 .34100003 .065 .34100003 C .07200001 .34100003 .074 .34400005 .07800001 .35000003 C .08900002 .36600004 .12600002 .42000006 .207 .42000006 C .259 .42000006 .284 .37400005 .292 .35600005 C .308 .31900005 .31 .28000004 .31 .23 C .31 .19500001 .31 .135 .286 .093 C .262 .054000006 .22500001 .028 .17900002 .028 C .106000009 .028 .049000008 .08100001 .032 .14000002 C .035 .13900002 .038000008 .13800001 .049000008 .13800001 C .082 .13800001 .09900001 .163 .09900001 .187 C .09900001 .21100001 .082 .23600002 .049000008 .23600002 C .035 .23600002 0 .22900002 0 .18300002 C 0 .097 .069000009 0 .18100001 0 C .297 0 .39900003 .096 .39900003 .223 Z "/>
</symbol>
<use xlink:href="#font_0_6" transform="matrix(9.9626,0,0,-9.9626,196.63213,155.08019)"/>
<path transform="matrix(1,0,0,-1,56.892,141.932)" stroke-width="1" stroke-linecap="butt" stroke-miterlimit="10" stroke-linejoin="miter" fill="none" stroke="#000000" d="M 2.98883 113.38724 L -2.98883 113.38724 "/>
<path transform="matrix(1,0,0,-1,56.892,141.932)" stroke-width="1" stroke-linecap="butt" stroke-miterlimit="10" stroke-linejoin="miter" fill="none" stroke="#000000" d="M 0 113.38724 L -2.98883 113.38724 "/>
<symbol id="font_0_5">
<path d="M .266 .165 L .266 .078 C .266 .042000005 .26400004 .031000002 .19000001 .031000002 L .16900002 .031000002 L .16900002 0 C .21000001 .003 .26200003 .003 .30400003 .003 C .34600003 .003 .39900003 .003 .44000004 0 L .44000004 .031000002 L .41900004 .031000002 C .34500004 .031000002 .34300003 .042000005 .34300003 .078 L .34300003 .165 L .44300003 .165 L .44300003 .19600001 L .34300003 .19600001 L .34300003 .651 C .34300003 .671 .34300003 .67700007 .32700003 .67700007 C .31800003 .67700007 .31500004 .67700007 .307 .665 L 0 .19600001 L 0 .165 L .266 .165 M .272 .19600001 L .028 .19600001 L .272 .569 L .272 .19600001 Z "/>
</symbol>
<use xlink:href="#font_0_5" transform="matrix(9.9626,0,0,-9.9626,45.680955,31.756012)"/>
<path transform="matrix(1,0,0,-1,56.892,141.932)" stroke-width="1.19553" stroke-linecap="butt" stroke-miterlimit="10" stroke-linejoin="miter" fill="none" stroke="#000000" d="M 0 0 L 84.13219 28.04405 "/>
<path transform="matrix(.94963,-.31654,-.31654,-.94963,141.02419,113.887958)" stroke-width="1" stroke-linecap="round" stroke-linejoin="round" fill="none" stroke="#000000" d="M -1.91284 2.55046 C -1.75343 1.59402 0 .15938 .4782 0 C 0 -.15938 -1.75343 -1.59402 -1.91284 -2.55046 "/>
<path transform="matrix(1,0,0,-1,56.892,141.932)" stroke-width="1.19553" stroke-linecap="butt" stroke-miterlimit="10" stroke-linejoin="miter" fill="none" stroke="#000000" d="M 0 0 L 27.67052 -27.67053 "/>
<path transform="matrix(.70712,.7071,.7071,-.70712,84.5625,169.60253)" stroke-width="1" stroke-linecap="round" stroke-linejoin="round" fill="none" stroke="#000000" d="M -1.91284 2.55046 C -1.75343 1.59402 0 .15938 .4782 0 C 0 -.15938 -1.75343 -1.59402 -1.91284 -2.55046 "/>
<path transform="matrix(1,0,0,-1,56.892,141.932)" stroke-width="1" stroke-linecap="butt" stroke-dasharray="2.98883,2.98883" stroke-miterlimit="10" stroke-linejoin="miter" fill="none" stroke="#000000" d="M -56.69362 -18.89757 L 283.4681 94.48921 "/>
<path transform="matrix(1,0,0,-1,56.892,141.932)" stroke-width="1" stroke-linecap="butt" stroke-dasharray="2.98883,2.98883" stroke-miterlimit="10" stroke-linejoin="miter" fill="none" stroke="#000000" d="M -56.69362 -56.69362 L 283.4681 56.69362 "/>
<path transform="matrix(1,0,0,-1,56.892,141.932)" stroke-width="1" stroke-linecap="butt" stroke-dasharray="2.98883,2.98883" stroke-miterlimit="10" stroke-linejoin="miter" fill="none" stroke="#000000" d="M 56.69362 -56.69362 L 283.4681 18.89757 "/>
<path transform="matrix(1,0,0,-1,56.892,141.932)" stroke-width="1" stroke-linecap="butt" stroke-dasharray="2.98883,2.98883" stroke-miterlimit="10" stroke-linejoin="miter" fill="none" stroke="#000000" d="M 170.08086 -56.69362 L 283.4681 -18.89757 "/>
<path transform="matrix(1,0,0,-1,56.892,141.932)" stroke-width="1" stroke-linecap="butt" stroke-dasharray="2.98883,2.98883" stroke-miterlimit="10" stroke-linejoin="miter" fill="none" stroke="#000000" d="M -56.69362 18.89757 L 283.4681 132.2848 "/>
<path transform="matrix(1,0,0,-1,56.892,141.932)" stroke-width="1" stroke-linecap="butt" stroke-dasharray="2.98883,2.98883" stroke-miterlimit="10" stroke-linejoin="miter" fill="none" stroke="#000000" d="M -56.69362 56.69362 L 198.42766 141.73404 "/>
<path transform="matrix(1,0,0,-1,56.892,141.932)" stroke-width="1" stroke-linecap="butt" stroke-dasharray="2.98883,2.98883" stroke-miterlimit="10" stroke-linejoin="miter" fill="none" stroke="#000000" d="M -56.69362 94.48921 L 85.04042 141.73404 "/>
<path transform="matrix(1,0,0,-1,56.892,141.932)" stroke-width="1" stroke-linecap="butt" stroke-dasharray="2.98883,2.98883" stroke-miterlimit="10" stroke-linejoin="miter" fill="none" stroke="#000000" d="M -56.69362 132.2848 L -28.3468 141.73404 "/>
<path transform="matrix(1,0,0,-1,56.892,141.932)" stroke-width="1" stroke-linecap="butt" stroke-dasharray="2.98883,2.98883" stroke-miterlimit="10" stroke-linejoin="miter" fill="none" stroke="#000000" d="M -56.69362 56.69362 L 56.69362 -56.69362 "/>
<path transform="matrix(1,0,0,-1,56.892,141.932)" stroke-width="1" stroke-linecap="butt" stroke-dasharray="2.98883,2.98883" stroke-miterlimit="10" stroke-linejoin="miter" fill="none" stroke="#000000" d="M -28.3468 141.73404 L 170.08086 -56.69362 "/>
<path transform="matrix(1,0,0,-1,56.892,141.932)" stroke-width="1" stroke-linecap="butt" stroke-dasharray="2.98883,2.98883" stroke-miterlimit="10" stroke-linejoin="miter" fill="none" stroke="#000000" d="M 85.04042 141.73404 L 283.4681 -56.69362 "/>
<path transform="matrix(1,0,0,-1,56.892,141.932)" stroke-width="1" stroke-linecap="butt" stroke-dasharray="2.98883,2.98883" stroke-miterlimit="10" stroke-linejoin="miter" fill="none" stroke="#000000" d="M 198.42766 141.73404 L 283.4681 56.69362 "/>
<path transform="matrix(1,0,0,-1,56.892,141.932)" d="M 256.5386 -28.3468 C 256.5386 -27.56404 255.90406 -26.92947 255.12128 -26.92947 C 254.33852 -26.92947 253.70395 -27.56404 253.70395 -28.3468 C 253.70395 -29.12956 254.33852 -29.76413 255.12128 -29.76413 C 255.90406 -29.76413 256.5386 -29.12956 256.5386 -28.3468 Z M 255.12128 -28.3468 "/>
<path transform="matrix(1,0,0,-1,56.892,141.932)" stroke-width="1" stroke-linecap="butt" stroke-miterlimit="10" stroke-linejoin="miter" fill="none" stroke="#000000" d="M 256.5386 -28.3468 C 256.5386 -27.56404 255.90406 -26.92947 255.12128 -26.92947 C 254.33852 -26.92947 253.70395 -27.56404 253.70395 -28.3468 C 253.70395 -29.12956 254.33852 -29.76413 255.12128 -29.76413 C 255.90406 -29.76413 256.5386 -29.12956 256.5386 -28.3468 Z M 255.12128 -28.3468 "/>
<symbol id="font_0_1">
<path d="M .23200003 .00999999 C .23200003 .012999982 .23200003 .014999986 .215 .03199999 C .09 .15799999 .058 .347 .058 .5 C .058 .674 .096 .84800007 .21900001 .97300007 C .23200003 .985 .23200003 .98700007 .23200003 .99 C .23200003 .99700006 .22800002 1 .222 1 C .21200001 1 .12200001 .93200007 .06299999 .805 C .012000002 .69500008 0 .584 0 .5 C 0 .422 .011 .301 .066 .188 C .126 .065 .21200001 0 .222 0 C .22800002 0 .23200003 .0029999912 .23200003 .00999999 Z "/>
</symbol>
<symbol id="font_0_3">
<path d="M .07700001 .07700001 L .18300002 .18 C .33900003 .31800003 .39900003 .372 .39900003 .47200004 C .39900003 .586 .30900003 .666 .18700002 .666 C .074 .666 0 .574 0 .485 C 0 .42900003 .05 .42900003 .053000008 .42900003 C .07000001 .42900003 .105000007 .441 .105000007 .48200003 C .105000007 .508 .08700001 .53400006 .052000006 .53400006 C .044000005 .53400006 .042000008 .53400006 .039 .53300008 C .062000004 .59800007 .11600001 .63500007 .17400001 .63500007 C .26500003 .63500007 .308 .554 .308 .47200004 C .308 .39200003 .25800003 .31300003 .20300003 .25100003 L .011000004 .037 C 0 .026 0 .024 0 0 L .37100003 0 L .39900003 .17400001 L .374 .17400001 C .36900003 .14400001 .36200003 .1 .352 .085 C .345 .07700001 .279 .07700001 .257 .07700001 L .07700001 .07700001 Z "/>
</symbol>
<use xlink:href="#font_0_1" transform="matrix(9.9626,0,0,-9.9626,298.1403,168.17266)"/>
<use xlink:href="#font_0_3" transform="matrix(9.9626,0,0,-9.9626,301.5276,165.682)"/>
<symbol id="font_1_1">
<path d="M .117000009 .194 C .117000009 .26 .092 .29900003 .05300001 .29900003 C .020000004 .29900003 0 .274 0 .246 C 0 .21900001 .020000004 .193 .05300001 .193 C .065000008 .193 .078 .197 .08800001 .206 C .091 .208 .092 .209 .093 .209 C .094000007 .209 .095000009 .208 .095000009 .194 C .095000009 .12 .06000001 .060000004 .027000003 .026999996 C .016000003 .016000003 .016000003 .013999999 .016000003 .0109999929 C .016000003 .003999993 .021000006 0 .026 0 C .037 0 .117000009 .077 .117000009 .194 Z "/>
</symbol>
<use xlink:href="#font_1_1" transform="matrix(9.9626,0,0,-9.9626,306.86677,167.60478)"/>
<symbol id="font_0_4">
<path d="M .24800003 .37400005 C .33 .40100003 .388 .47100006 .388 .55 C .388 .632 .3 .688 .204 .688 C .10300001 .688 .027000003 .628 .027000003 .55200007 C .027000003 .519 .049000004 .5 .078 .5 C .109000008 .5 .12900001 .522 .12900001 .55100008 C .12900001 .6010001 .082 .6010001 .067 .6010001 C .098 .65000006 .164 .66300007 .20000002 .66300007 C .24100003 .66300007 .29600004 .64100006 .29600004 .55100008 C .29600004 .53900006 .29400004 .48100005 .268 .43700005 C .238 .38900004 .204 .38600005 .17900002 .38500003 C .171 .38400004 .14700002 .38200004 .14000002 .38200004 C .132 .38100005 .125 .38000003 .125 .37000004 C .125 .35900004 .132 .35900004 .14900002 .35900004 L .19300002 .35900004 C .275 .35900004 .312 .29100005 .312 .193 C .312 .057000005 .24300003 .028 .199 .028 C .15600002 .028 .081 .045 .046000005 .104 C .081 .09900001 .11200001 .12100001 .11200001 .15900001 C .11200001 .19500001 .085 .215 .056 .215 C .031999999 .215 0 .201 0 .157 C 0 .06600001 .093 0 .20200002 0 C .32400004 0 .41500003 .091000009 .41500003 .193 C .41500003 .27500005 .35200004 .35300005 .24800003 .37400005 Z "/>
</symbol>
<symbol id="font_0_2">
<path d="M .232 .5 C .232 .578 .22100002 .699 .16600001 .81200006 C .106 .93500009 .020000004 1 .009999998 1 C .0040000008 1 0 .99600008 0 .99 C 0 .98700007 0 .985 .019000002 .967 C .117000009 .86800006 .174 .709 .174 .5 C .174 .329 .137 .153 .012999997 .026999996 C 0 .014999986 0 .012999982 0 .00999999 C 0 .003999993 .0040000008 0 .009999998 0 C .020000004 0 .11000001 .06799999 .169 .195 C .22 .305 .232 .416 .232 .5 Z "/>
</symbol>
<use xlink:href="#font_0_4" transform="matrix(9.9626,0,0,-9.9626,310.8564,165.90119)"/>
<use xlink:href="#font_0_2" transform="matrix(9.9626,0,0,-9.9626,315.98716,168.17266)"/>
<symbol id="font_2_1">
<path d="M .53300008 0 C .59800007 0 .66400006 .051 .79300007 .15 C .8090001 .18800001 .8170001 .208 .8170001 .25100003 C .8170001 .34500004 .74500009 .41000004 .62500008 .41000004 L .72300007 .47300003 C .7580001 .49500004 .7940001 .507 .83400008 .521 L .83400008 .54300007 C .81900009 .53800007 .80300006 .53400006 .78700008 .532 C .7160001 .532 .73600009 .66200008 .70100006 .69200006 C .68200007 .70800009 .65800008 .71300008 .632 .71300008 C .549 .71300008 .466 .66 .411 .60700008 C .382 .66200008 .317 .71800008 .255 .71800008 C .153 .71800008 .08100001 .656 .055 .632 C .024999999 .60400006 0 .57400009 0 .53400006 C 0 .46600003 .092 .40200005 .092 .374 C .092 .34100003 .052 .30800004 .022 .293 L .039000006 .28200004 C .07500001 .29800005 .17300001 .344 .17300001 .41600005 C .17300001 .46300004 .076 .536 .076 .568 C .076 .63100007 .123 .65500006 .18200001 .65500006 C .25 .65500006 .354 .591 .354 .42900003 C .354 .38200004 .349 .31100003 .34600003 .279 C .344 .25100003 .322 .19500001 .18599999 .12100001 L .051000008 .048 L .064 .027 C .11000001 .053000004 .164 .075 .22 .075 C .306 .075 .41700004 0 .53300008 0 M .443 .37700004 C .44400005 .39100004 .44500003 .41200004 .44500003 .42600004 C .44500003 .46900005 .441 .52500006 .43500004 .55 C .455 .605 .49000005 .661 .56700006 .661 C .61300006 .661 .63900008 .63400009 .65000006 .56700006 C .65500006 .53700008 .6650001 .49300004 .69100007 .48200003 C .59800007 .42300005 .55100008 .41200004 .443 .37700004 M .405 .23400001 C .426 .27100004 .437 .31100003 .441 .35200004 C .46800003 .36300005 .498 .36800004 .52700009 .36800004 C .62700006 .36800004 .72400006 .30100004 .72400006 .202 C .72400006 .13700001 .68500009 .064 .60200008 .064 C .51800009 .064 .395 .14400001 .277 .14400001 L .405 .23400001 Z "/>
</symbol>
<use xlink:href="#font_2_1" transform="matrix(6.9738,0,0,-6.9738,319.78816,167.3653)"/>
</svg>
