<?xml version="1.0" encoding="UTF-8" standalone="no"?>
<!DOCTYPE svg PUBLIC "-//W3C//DTD SVG 1.1//EN" "http://www.w3.org/Graphics/SVG/1.1/DTD/svg11.dtd">
<svg xmlns="http://www.w3.org/2000/svg" xmlns:xlink="http://www.w3.org/1999/xlink" version="1.1" width="249.194pt" height="62.563pt" viewBox="0 0 249.194 62.563">
<path transform="matrix(1,0,0,-1,22.223,59.628)" stroke-width="1" stroke-linecap="butt" stroke-miterlimit="10" stroke-linejoin="miter" fill="none" stroke="#000000" d="M 0 0 C -22.02444 1.92696 -22.02444 54.76665 0 56.69362 "/>
<path transform="matrix(1,0,0,-1,22.223,59.628)" stroke-width="1" stroke-linecap="butt" stroke-miterlimit="10" stroke-linejoin="miter" fill="none" stroke="#000000" d="M 0 56.69362 C 31.27242 59.42969 87.96603 -2.73607 56.69362 0 "/>
<path transform="matrix(1,0,0,-1,22.223,59.628)" stroke-width="1" stroke-linecap="butt" stroke-miterlimit="10" stroke-linejoin="miter" fill="none" stroke="#000000" d="M 56.69362 0 C 41.05745 1.36801 12.71065 29.71483 28.3468 28.3468 "/>
<path transform="matrix(1,0,0,-1,22.223,59.628)" stroke-width="1" stroke-linecap="butt" stroke-miterlimit="10" stroke-linejoin="miter" fill="none" stroke="#000000" d="M 113.38724 0 C 113.38724 22.81917 104.74146 56.69362 127.56062 56.69362 "/>
<path transform="matrix(1,0,0,-1,22.223,59.628)" stroke-width="1" stroke-linecap="butt" stroke-miterlimit="10" stroke-linejoin="miter" fill="none" stroke="#000000" d="M 127.56062 56.69362 C 139.96668 56.69362 141.73404 40.75285 141.73404 28.3468 "/>
<path transform="matrix(1,0,0,-1,22.223,59.628)" stroke-width="1" stroke-linecap="butt" stroke-miterlimit="10" stroke-linejoin="miter" fill="none" stroke="#000000" d="M 141.73404 28.3468 C 141.73404 15.94075 143.50139 0 155.90744 0 "/>
<path transform="matrix(1,0,0,-1,22.223,59.628)" stroke-width="1" stroke-linecap="butt" stroke-miterlimit="10" stroke-linejoin="miter" fill="none" stroke="#000000" d="M 155.90744 0 C 178.72661 0 147.26168 56.69362 170.08086 56.69362 "/>
<path transform="matrix(1,0,0,-1,22.223,59.628)" stroke-width="1" stroke-linecap="butt" stroke-miterlimit="10" stroke-linejoin="miter" fill="none" stroke="#000000" d="M 170.08086 56.69362 C 201.47303 56.69362 195.3823 0 226.77448 0 "/>
</svg>
