<?xml version="1.0" encoding="UTF-8" standalone="no"?>
<!DOCTYPE svg PUBLIC "-//W3C//DTD SVG 1.1//EN" "http://www.w3.org/Graphics/SVG/1.1/DTD/svg11.dtd">
<svg xmlns="http://www.w3.org/2000/svg" xmlns:xlink="http://www.w3.org/1999/xlink" version="1.1" width="227.17pt" height="170.477pt" viewBox="0 0 227.17 170.477">
<path transform="matrix(1,0,0,-1,113.585,141.931)" stroke-width="1" stroke-linecap="butt" stroke-miterlimit="10" stroke-linejoin="miter" fill="none" stroke="#ffffff" d="M -113.38724 0 L 113.38724 0 "/>
<path transform="matrix(1,0,0,-1,113.585,141.931)" stroke-width="1" stroke-linecap="butt" stroke-miterlimit="10" stroke-linejoin="miter" fill="none" stroke="#000000" d="M -27.88852 0 L 84.58214 0 "/>
<path transform="matrix(-1,0,0,1,85.69648,141.931)" stroke-width="1" stroke-linecap="round" stroke-linejoin="round" fill="none" stroke="#000000" d="M -1.19551 1.59401 C -1.09587 .99626 0 .09961 .29886 0 C 0 -.09961 -1.09587 -.99626 -1.19551 -1.59401 "/>
<path transform="matrix(1,0,0,-1,198.16715,141.931)" stroke-width="1" stroke-linecap="round" stroke-linejoin="round" fill="none" stroke="#000000" d="M -1.19551 1.59401 C -1.09587 .99626 0 .09961 .29886 0 C 0 -.09961 -1.09587 -.99626 -1.19551 -1.59401 "/>
<path transform="matrix(1,0,0,-1,113.585,141.931)" stroke-width="1" stroke-linecap="butt" stroke-miterlimit="10" stroke-linejoin="miter" fill="none" stroke="#000000" d="M 0 -27.88852 L 0 141.27576 "/>
<path transform="matrix(0,1,1,0,113.585,169.81952)" stroke-width="1" stroke-linecap="round" stroke-linejoin="round" fill="none" stroke="#000000" d="M -1.19551 1.59401 C -1.09587 .99626 0 .09961 .29886 0 C 0 -.09961 -1.09587 -.99626 -1.19551 -1.59401 "/>
<path transform="matrix(0,-1,-1,0,113.585,.6552429)" stroke-width="1" stroke-linecap="round" stroke-linejoin="round" fill="none" stroke="#000000" d="M -1.19551 1.59401 C -1.09587 .99626 0 .09961 .29886 0 C 0 -.09961 -1.09587 -.99626 -1.19551 -1.59401 "/>
<path transform="matrix(1,0,0,-1,113.585,141.931)" stroke-width="1" stroke-linecap="butt" stroke-miterlimit="10" stroke-linejoin="miter" fill="none" stroke="#000000" d="M 0 2.98883 L 0 -2.98883 "/>
<path transform="matrix(1,0,0,-1,113.585,141.931)" stroke-width="1" stroke-linecap="butt" stroke-miterlimit="10" stroke-linejoin="miter" fill="none" stroke="#000000" d="M 28.3468 2.98883 L 28.3468 -2.98883 "/>
<path transform="matrix(1,0,0,-1,113.585,141.931)" stroke-width="1" stroke-linecap="butt" stroke-miterlimit="10" stroke-linejoin="miter" fill="none" stroke="#000000" d="M 56.69362 2.98883 L 56.69362 -2.98883 "/>
<path transform="matrix(1,0,0,-1,113.585,141.931)" stroke-width="1" stroke-linecap="butt" stroke-miterlimit="10" stroke-linejoin="miter" fill="none" stroke="#000000" d="M 0 0 L 0 -2.98883 "/>
<symbol id="font_0_1">
<path d="M .421 .34200005 C .421 .42200003 .416 .50200006 .381 .57600006 C .335 .67200008 .25300003 .688 .211 .688 C .15100001 .688 .07800001 .66200008 .037000006 .56900009 C .0050000029 .5 0 .42200003 0 .34200005 C 0 .26700003 .0040000008 .177 .045000007 .101 C .088 .020000002 .161 0 .21000001 0 C .264 0 .34 .021000002 .384 .116000007 C .416 .185 .421 .263 .421 .34200005 M .21000001 .022000002 C .171 .022000002 .112 .047000003 .094 .143 C .083000008 .20300001 .083000008 .29500003 .083000008 .35400004 C .083000008 .41800005 .083000008 .48400004 .091000009 .53800007 C .11 .65700009 .185 .66600009 .21000001 .66600009 C .243 .66600009 .30900003 .64800009 .328 .549 C .338 .49300004 .338 .41700004 .338 .35400004 C .338 .279 .338 .21100001 .32700003 .147 C .312 .052 .255 .022000002 .21000001 .022000002 Z "/>
</symbol>
<use xlink:href="#font_0_1" transform="matrix(9.9626,0,0,-9.9626,111.482547,155.15319)"/>
<path transform="matrix(1,0,0,-1,113.585,141.931)" stroke-width="1" stroke-linecap="butt" stroke-miterlimit="10" stroke-linejoin="miter" fill="none" stroke="#000000" d="M 28.3468 0 L 28.3468 -2.98883 "/>
<symbol id="font_0_2">
<path d="M .205 .64000007 C .205 .66400006 .205 .666 .18200003 .666 C .120000008 .60200008 .032000007 .60200008 0 .60200008 L 0 .57100006 C .020000004 .57100006 .07900001 .57100006 .13100001 .597 L .13100001 .079 C .13100001 .043 .128 .031000002 .038000004 .031000002 L .0060000049 .031000002 L .0060000049 0 C .04100001 .003 .128 .003 .168 .003 C .20800002 .003 .29500003 .003 .33000005 0 L .33000005 .031000002 L .29800005 .031000002 C .20800002 .031000002 .205 .042000005 .205 .079 L .205 .64000007 Z "/>
</symbol>
<use xlink:href="#font_0_2" transform="matrix(9.9626,0,0,-9.9626,140.32767,154.934)"/>
<path transform="matrix(1,0,0,-1,113.585,141.931)" stroke-width="1" stroke-linecap="butt" stroke-miterlimit="10" stroke-linejoin="miter" fill="none" stroke="#000000" d="M 56.69362 0 L 56.69362 -2.98883 "/>
<symbol id="font_0_3">
<path d="M .07700001 .07700001 L .18300002 .18 C .33900003 .31800003 .39900003 .372 .39900003 .47200004 C .39900003 .586 .30900003 .666 .18700002 .666 C .074 .666 0 .574 0 .485 C 0 .42900003 .05 .42900003 .053000008 .42900003 C .07000001 .42900003 .105000007 .441 .105000007 .48200003 C .105000007 .508 .08700001 .53400006 .052000006 .53400006 C .044000005 .53400006 .042000008 .53400006 .039 .53300008 C .062000004 .59800007 .11600001 .63500007 .17400001 .63500007 C .26500003 .63500007 .308 .554 .308 .47200004 C .308 .39200003 .25800003 .31300003 .20300003 .25100003 L .011000004 .037 C 0 .026 0 .024 0 0 L .37100003 0 L .39900003 .17400001 L .374 .17400001 C .36900003 .14400001 .36200003 .1 .352 .085 C .345 .07700001 .279 .07700001 .257 .07700001 L .07700001 .07700001 Z "/>
</symbol>
<use xlink:href="#font_0_3" transform="matrix(9.9626,0,0,-9.9626,168.28513,154.934)"/>
<path transform="matrix(1,0,0,-1,113.585,141.931)" stroke-width="1" stroke-linecap="butt" stroke-miterlimit="10" stroke-linejoin="miter" fill="none" stroke="#000000" d="M 2.98883 0 L -2.98883 0 "/>
<path transform="matrix(1,0,0,-1,113.585,141.931)" stroke-width="1" stroke-linecap="butt" stroke-miterlimit="10" stroke-linejoin="miter" fill="none" stroke="#000000" d="M 2.98883 28.3468 L -2.98883 28.3468 "/>
<path transform="matrix(1,0,0,-1,113.585,141.931)" stroke-width="1" stroke-linecap="butt" stroke-miterlimit="10" stroke-linejoin="miter" fill="none" stroke="#000000" d="M 2.98883 113.38724 L -2.98883 113.38724 "/>
<path transform="matrix(1,0,0,-1,113.585,141.931)" stroke-width="1" stroke-linecap="butt" stroke-miterlimit="10" stroke-linejoin="miter" fill="none" stroke="#000000" d="M 0 0 L -2.98883 0 "/>
<use xlink:href="#font_0_1" transform="matrix(9.9626,0,0,-9.9626,102.40954,145.36019)"/>
<path transform="matrix(1,0,0,-1,113.585,141.931)" stroke-width="1" stroke-linecap="butt" stroke-miterlimit="10" stroke-linejoin="miter" fill="none" stroke="#000000" d="M 0 28.3468 L -2.98883 28.3468 "/>
<use xlink:href="#font_0_2" transform="matrix(9.9626,0,0,-9.9626,102.90767,116.79499)"/>
<path transform="matrix(1,0,0,-1,113.585,141.931)" stroke-width="1" stroke-linecap="butt" stroke-miterlimit="10" stroke-linejoin="miter" fill="none" stroke="#000000" d="M 0 113.38724 L -2.98883 113.38724 "/>
<symbol id="font_0_4">
<path d="M .266 .165 L .266 .078 C .266 .042000005 .26400004 .031000002 .19000001 .031000002 L .16900002 .031000002 L .16900002 0 C .21000001 .003 .26200003 .003 .30400003 .003 C .34600003 .003 .39900003 .003 .44000004 0 L .44000004 .031000002 L .41900004 .031000002 C .34500004 .031000002 .34300003 .042000005 .34300003 .078 L .34300003 .165 L .44300003 .165 L .44300003 .19600001 L .34300003 .19600001 L .34300003 .651 C .34300003 .671 .34300003 .67700007 .32700003 .67700007 C .31800003 .67700007 .31500004 .67700007 .307 .665 L 0 .19600001 L 0 .165 L .266 .165 M .272 .19600001 L .028 .19600001 L .272 .569 L .272 .19600001 Z "/>
</symbol>
<use xlink:href="#font_0_4" transform="matrix(9.9626,0,0,-9.9626,102.29995,31.755997)"/>
<path transform="matrix(1,0,0,-1,113.585,141.931)" d="M 1.41731 0 C 1.41731 .78276 .78276 1.41731 0 1.41731 C -.78276 1.41731 -1.41731 .78276 -1.41731 0 C -1.41731 -.78276 -.78276 -1.41731 0 -1.41731 C .78276 -1.41731 1.41731 -.78276 1.41731 0 Z M 0 0 "/>
<path transform="matrix(1,0,0,-1,113.585,141.931)" stroke-width="1" stroke-linecap="butt" stroke-miterlimit="10" stroke-linejoin="miter" fill="none" stroke="#000000" d="M 1.41731 0 C 1.41731 .78276 .78276 1.41731 0 1.41731 C -.78276 1.41731 -1.41731 .78276 -1.41731 0 C -1.41731 -.78276 -.78276 -1.41731 0 -1.41731 C .78276 -1.41731 1.41731 -.78276 1.41731 0 Z M 0 0 "/>
<path transform="matrix(1,0,0,-1,113.585,141.931)" stroke-width="1.19553" stroke-linecap="butt" stroke-miterlimit="10" stroke-linejoin="miter" fill="none" stroke="#000000" d="M 0 0 L 27.67052 27.67053 "/>
<path transform="matrix(.70712,-.7071,-.7071,-.70712,141.2555,114.26048)" stroke-width="1" stroke-linecap="round" stroke-linejoin="round" fill="none" stroke="#000000" d="M -1.91284 2.55046 C -1.75343 1.59402 0 .15938 .4782 0 C 0 -.15938 -1.75343 -1.59402 -1.91284 -2.55046 "/>
<path transform="matrix(1,0,0,-1,113.585,141.931)" d="M 29.76413 28.3468 C 29.76413 29.12956 29.12956 29.76413 28.3468 29.76413 C 27.56404 29.76413 26.92947 29.12956 26.92947 28.3468 C 26.92947 27.56404 27.56404 26.92947 28.3468 26.92947 C 29.12956 26.92947 29.76413 27.56404 29.76413 28.3468 Z M 28.3468 28.3468 "/>
<path transform="matrix(1,0,0,-1,113.585,141.931)" stroke-width="1" stroke-linecap="butt" stroke-miterlimit="10" stroke-linejoin="miter" fill="none" stroke="#000000" d="M 29.76413 28.3468 C 29.76413 29.12956 29.12956 29.76413 28.3468 29.76413 C 27.56404 29.76413 26.92947 29.12956 26.92947 28.3468 C 26.92947 27.56404 27.56404 26.92947 28.3468 26.92947 C 29.12956 26.92947 29.76413 27.56404 29.76413 28.3468 Z M 28.3468 28.3468 "/>
<path transform="matrix(1,0,0,-1,113.585,141.931)" stroke-width="1.19553" stroke-linecap="butt" stroke-miterlimit="10" stroke-linejoin="miter" fill="none" stroke="#000000" d="M 28.3468 28.3468 L 56.39087 112.479 "/>
<path transform="matrix(.31654,-.94962,-.94962,-.31654,169.97586,29.452004)" stroke-width="1" stroke-linecap="round" stroke-linejoin="round" fill="none" stroke="#000000" d="M -1.91284 2.55046 C -1.75343 1.59402 0 .15938 .4782 0 C 0 -.15938 -1.75343 -1.59402 -1.91284 -2.55046 "/>
<path transform="matrix(1,0,0,-1,113.585,141.931)" d="M 1.41731 0 C 1.41731 .78276 .78276 1.41731 0 1.41731 C -.78276 1.41731 -1.41731 .78276 -1.41731 0 C -1.41731 -.78276 -.78276 -1.41731 0 -1.41731 C .78276 -1.41731 1.41731 -.78276 1.41731 0 Z M 0 0 "/>
<path transform="matrix(1,0,0,-1,113.585,141.931)" stroke-width="1" stroke-linecap="butt" stroke-miterlimit="10" stroke-linejoin="miter" fill="none" stroke="#000000" d="M 1.41731 0 C 1.41731 .78276 .78276 1.41731 0 1.41731 C -.78276 1.41731 -1.41731 .78276 -1.41731 0 C -1.41731 -.78276 -.78276 -1.41731 0 -1.41731 C .78276 -1.41731 1.41731 -.78276 1.41731 0 Z M 0 0 "/>
<path transform="matrix(1,0,0,-1,113.585,141.931)" stroke-width="1.19553" stroke-linecap="butt" stroke-miterlimit="10" stroke-linejoin="miter" fill="none" stroke="#000000" d="M 0 0 L 56.26587 112.5318 "/>
<path transform="matrix(.44724,-.89442,-.89442,-.44724,169.85085,29.399224)" stroke-width="1" stroke-linecap="round" stroke-linejoin="round" fill="none" stroke="#000000" d="M -1.91284 2.55046 C -1.75343 1.59402 0 .15938 .4782 0 C 0 -.15938 -1.75343 -1.59402 -1.91284 -2.55046 "/>
<symbol id="font_1_1">
<path d="M .11900002 .00999999 C .11900002 .0119999949 .11900002 .013999984 .11199999 .023999989 C .058 .10599999 .049999998 .191 .049999998 .261 C .049999998 .397 .109 .768 .34900005 .97200009 C .36300005 .98600009 .36400003 .98700007 .36400003 .99 C .36400003 .99700006 .36 1 .35400004 1 C .34300003 1 .22800002 .919 .141 .777 C .031000004 .596 0 .404 0 .297 C 0 .238 .009000003 .175 .026999996 .125 C .052 .058 .095 0 .109 0 C .11500001 0 .11900002 .003999993 .11900002 .00999999 Z "/>
</symbol>
<symbol id="font_1_4">
<path d="M .34100003 .64100006 C .342 .64400008 .344 .652 .344 .65400007 C .344 .66200008 .338 .666 .33200003 .666 C .326 .666 .32500003 .665 .313 .65000006 C .236 .54700008 .16600001 .54 .137 .537 C .132 .536 .121 .535 .121 .518 C .121 .50600007 .13299999 .50600007 .137 .50600007 C .15200001 .50600007 .201 .512 .248 .54700008 L .13 .07300001 C .122 .041 .114 .031000002 .036000007 .031000002 L .028000005 .031000002 C .011 .031000002 0 .031000002 0 .012 C 0 0 .011 0 .014999993 0 C .058000007 0 .10300001 .003 .146 .003 C .19 .003 .236 0 .28 0 C .287 0 .3 0 .3 .019000002 C .3 .031000002 .29 .031000002 .27400003 .031000002 L .266 .031000002 C .253 .031000002 .236 .032 .22299999 .033 C .201 .036000004 .195 .037 .195 .051000004 C .195 .057000005 .197 .066 .19800002 .07 L .34100003 .64100006 Z "/>
</symbol>
<symbol id="font_1_3">
<path d="M .125 .208 C .11000001 .131 .059999996 .067 .012999997 .026999996 C .0009999946 .015000001 0 .013999999 0 .00999999 C 0 .0069999995 .0029999987 0 .009999998 0 C .027999998 0 .151 .121 .151 .24000001 C .151 .273 .137 .29900003 .105 .29900003 C .065000008 .29900003 .04 .264 .04 .23500002 C .04 .20300001 .063 .193 .084 .193 C .103999998 .193 .12 .20400001 .125 .208 Z "/>
</symbol>
<symbol id="font_1_2">
<path d="M .36400003 .703 C .36400003 .762 .35500003 .82500007 .337 .875 C .312 .94200006 .269 1 .255 1 C .24900002 1 .245 .99600008 .245 .99 C .245 .98800006 .245 .98600009 .252 .976 C .306 .89400008 .314 .809 .314 .739 C .314 .60300007 .255 .232 .014999999 .027999983 C .0010000002 .013999984 0 .012999982 0 .00999999 C 0 .0029999912 .0040000008 0 .01 0 C .021 0 .136 .080999989 .223 .223 C .333 .404 .36400003 .596 .36400003 .703 Z "/>
</symbol>
<use xlink:href="#font_1_1" transform="matrix(9.9626,0,0,-9.9626,132.75232,132.73964)"/>
<use xlink:href="#font_1_4" transform="matrix(9.9626,0,0,-9.9626,136.47834,130.249)"/>
<use xlink:href="#font_1_3" transform="matrix(9.9626,0,0,-9.9626,141.13086,132.17177)"/>
<use xlink:href="#font_1_4" transform="matrix(9.9626,0,0,-9.9626,144.62773,130.249)"/>
<use xlink:href="#font_1_2" transform="matrix(9.9626,0,0,-9.9626,148.73233,132.73964)"/>
<symbol id="font_1_6">
<path d="M .20900002 .37200005 C .192 .37200005 .18300003 .37200005 .18300003 .35100005 C .18300003 .34100003 .19100002 .34100003 .208 .34100003 L .23600003 .34100003 C .25500003 .34100003 .31300003 .33900003 .31300003 .25800003 C .31300003 .24000001 .30400003 .141 .252 .08100001 C .224 .047000003 .178 .022000002 .13300002 .022000002 C .083 .022000002 .033 .052 .030999996 .126 C .07400001 .122 .087000008 .15900001 .087000008 .17400001 C .087000008 .19000001 .076 .20600002 .052999997 .20600002 C .0019999967 .20600002 0 .14600002 0 .128 C 0 .060000004 .048 0 .13300002 0 C .259 0 .38500003 .105000007 .38500003 .22500001 C .38500003 .24400002 .381 .31700004 .305 .35200004 C .409 .38700003 .46700005 .47800005 .46700005 .554 C .46700005 .63900008 .402 .688 .32400004 .688 C .20500002 .688 .10400001 .58300009 .10400001 .49800004 C .10400001 .46300004 .123 .43400005 .16000003 .43400005 C .19700003 .43400005 .24300003 .46900005 .24300003 .519 C .24300003 .53800007 .23200003 .56900009 .22000003 .56900009 C .21400002 .56900009 .20900002 .56400009 .20900002 .558 C .20900002 .55500009 .21000001 .55300006 .21300003 .54700008 C .21400002 .54600009 .22100002 .53300008 .22100002 .518 C .22100002 .48400004 .18900001 .45600004 .16000003 .45600004 C .14000002 .45600004 .134 .47500003 .134 .49300004 C .134 .572 .22500003 .66600009 .32200004 .66600009 C .35900004 .66600009 .40700004 .64800009 .40700004 .57600006 C .40700004 .56000009 .397 .37200005 .23200003 .37200005 L .20900002 .37200005 Z "/>
</symbol>
<use xlink:href="#font_1_1" transform="matrix(9.9626,0,0,-9.9626,154.01232,90.21965)"/>
<use xlink:href="#font_1_4" transform="matrix(9.9626,0,0,-9.9626,157.73833,87.729007)"/>
<use xlink:href="#font_1_3" transform="matrix(9.9626,0,0,-9.9626,162.39087,89.65179)"/>
<use xlink:href="#font_1_6" transform="matrix(9.9626,0,0,-9.9626,165.66857,87.94818)"/>
<use xlink:href="#font_1_2" transform="matrix(9.9626,0,0,-9.9626,169.99234,90.21965)"/>
<symbol id="font_1_5">
<path d="M .068 .096 C .118 .18200001 .191 .223 .22200002 .24100001 C .376 .32800005 .467 .39000006 .467 .519 C .467 .63400009 .389 .688 .311 .688 C .163 .688 .081 .48600004 .081 .42100004 C .081 .40100003 .087 .35800005 .132 .35800005 C .21100001 .35800005 .25300003 .47800005 .25300003 .51600006 C .25300003 .53400006 .244 .56900009 .23100002 .56900009 C .22500001 .56900009 .22000002 .56400009 .22000002 .558 C .22000002 .55600008 .22000002 .554 .221 .55200007 C .22700002 .54 .23100002 .527 .23100002 .51500007 C .23100002 .48600004 .19400002 .38000003 .133 .38000003 C .12100001 .38000003 .111 .38500003 .111 .41300006 C .111 .47800005 .186 .66600009 .30800004 .66600009 C .34900005 .66600009 .39600004 .63900008 .39600004 .55600008 C .39600004 .41100005 .30900003 .32700003 .21 .268 C .165 .24100001 .12300001 .21700001 .081 .165 C .011 .08100001 0 .011000001 0 .010000002 C 0 0 .009999998 0 .015000001 0 C .027000003 0 .029 .0020000004 .031999999 .013000001 C .04 .041 .058 .07700001 .088 .07700001 C .120000008 .07700001 .148 .057000005 .173 .040000004 C .19900002 .022000002 .23 0 .26999999 0 C .385 0 .43100006 .17400001 .43100006 .185 C .43100006 .19500001 .42300005 .19500001 .416 .19500001 C .40400005 .19500001 .403 .194 .399 .178 C .385 .13700001 .34600003 .07 .27899999 .07 C .251 .07 .212 .078 .196 .082 C .16000001 .09 .12100001 .09900001 .09 .09900001 C .078999999 .09900001 .07000001 .097 .068 .096 Z "/>
</symbol>
<symbol id="font_1_7">
<path d="M .36900003 .389 C .37300004 .404 .37300004 .40600003 .37300004 .409 C .37300004 .435 .349 .43600003 .34600003 .43600003 C .316 .43600003 .31 .41000004 .30600003 .393 C .303 .38300003 .26500003 .23300001 .26400004 .227 C .19100002 .25300003 .23200003 .24000001 .20300001 .25 C .16600001 .261 .149 .261 .127 .261 C .11500001 .261 .113000009 .261 .10000001 .26 C .37000004 .51 .42800004 .83300009 .42800004 .83400008 C .42800004 .855 .411 .86 .40100003 .86 C .372 .86 .36600004 .837 .35900004 .81000009 C .326 .68500009 .282 .56500008 .21100003 .44900004 C .13200002 .321 .043 .25100003 .039 .24800001 C .032 .245 0 .22800002 0 .21200001 C 0 .208 .0069999995 .19500001 .015000001 .19500001 C .021000002 .19500001 .036000004 .207 .047000003 .215 C .055999999 .223 .065 .23 .12400001 .23 C .142 .23 .16200002 .23 .19700001 .21900001 C .21000001 .214 .23400003 .20400001 .256 .19600001 L .21900001 .047000007 C .215 .032000007 .215 .030000002 .215 .025999994 C .215 .004999995 .23200003 0 .24200002 0 C .261 0 .27400003 .0109999929 .28 .033999996 L .31700004 .18 C .323 .179 .33100004 .179 .337 .179 C .365 .179 .43000005 .192 .43000005 .208 C .43000005 .213 .42400003 .22500001 .41500003 .22500001 C .41300003 .22500001 .411 .22500001 .40100003 .221 C .38300003 .214 .358 .21000001 .34100003 .21000001 C .33400003 .21000001 .33 .21000001 .32500003 .21100001 L .36900003 .389 Z "/>
</symbol>
<use xlink:href="#font_1_1" transform="matrix(9.9626,0,0,-9.9626,125.66631,76.04664)"/>
<use xlink:href="#font_1_5" transform="matrix(9.9626,0,0,-9.9626,129.06356,73.77517)"/>
<use xlink:href="#font_1_3" transform="matrix(9.9626,0,0,-9.9626,134.04486,75.478778)"/>
<use xlink:href="#font_1_7" transform="matrix(9.9626,0,0,-9.9626,136.81447,75.48874)"/>
<use xlink:href="#font_1_2" transform="matrix(9.9626,0,0,-9.9626,141.64633,76.04664)"/>
</svg>
