<?xml version="1.0" encoding="UTF-8" standalone="no"?>
<!DOCTYPE svg PUBLIC "-//W3C//DTD SVG 1.1//EN" "http://www.w3.org/Graphics/SVG/1.1/DTD/svg11.dtd">
<svg xmlns="http://www.w3.org/2000/svg" xmlns:xlink="http://www.w3.org/1999/xlink" version="1.1" width="227.17pt" height="283.863pt" viewBox="0 0 227.17 283.863">
<path transform="matrix(1,0,0,-1,132.577,226.97101)" d="M .99628 0 C .99628 .55023 .55023 .99628 0 .99628 C -.55023 .99628 -.99628 .55023 -.99628 0 C -.99628 -.55023 -.55023 -.99628 0 -.99628 C .55023 -.99628 .99628 -.55023 .99628 0 Z M 0 0 "/>
<path transform="matrix(1,0,0,-1,132.577,226.97101)" stroke-width="1" stroke-linecap="butt" stroke-miterlimit="10" stroke-linejoin="miter" fill="none" stroke="#929292" d="M 94.39491 -56.69362 L -132.37953 226.77448 "/>
<path transform="matrix(1,0,0,-1,132.577,226.97101)" stroke-width="1.19553" stroke-linecap="butt" stroke-miterlimit="10" stroke-linejoin="miter" fill="none" stroke="#0000ff" d="M 0 0 L 18.56137 36.84587 "/>
<path transform="matrix(.45058,-.89442,-.89442,-.45058,151.13835,190.12516)" stroke-width="1" stroke-linecap="round" stroke-linejoin="round" fill="none" stroke="#0000ff" d="M -1.91284 2.55046 C -1.75343 1.59402 0 .15938 .4782 0 C 0 -.15938 -1.75343 -1.59402 -1.91284 -2.55046 "/>
<symbol id="font_0_3">
<path d="M .355 .078999999 C .341 .065999988 .308 .037999989 .308 .01999998 C .308 .00999999 .318 0 .32800005 0 C .33700005 0 .34200005 .0069999697 .34700004 .013000011 C .359 .027999998 .382 .055999996 .42600004 .07800001 C .433 .08200002 .443 .08700001 .443 .09899998 C .443 .10899997 .43600003 .11400002 .429 .11900002 C .40700004 .134 .396 .15200001 .38800005 .176 C .386 .185 .382 .19800002 .368 .19800002 C .354 .19800002 .34800003 .185 .34800003 .17699999 C .34800003 .17199999 .35600005 .13999999 .372 .11900002 L .034999998 .11900002 C .017999992 .11900002 0 .11900002 0 .09899998 C 0 .078999999 .017999992 .078999999 .034999998 .078999999 L .355 .078999999 Z "/>
</symbol>
<symbol id="font_0_1">
<path d="M .33300004 .38900004 C .31500004 .42600004 .286 .45300005 .24100001 .45300005 C .124 .45300005 0 .30600003 0 .16000001 C 0 .06600001 .055000005 0 .133 0 C .153 0 .20300001 .0040000008 .263 .075 C .27100004 .033000005 .30600003 0 .35400004 0 C .38900004 0 .41200004 .023000002 .42800004 .055000005 C .44500003 .091000009 .45800004 .15200001 .45800004 .15400002 C .45800004 .16400002 .44900004 .16400002 .44600005 .16400002 C .43600003 .16400002 .43500004 .16000001 .43200005 .14600002 C .41500003 .081 .397 .022000002 .35600005 .022000002 C .32900004 .022000002 .32600004 .048 .32600004 .068 C .32600004 .09 .32800005 .098000008 .33900003 .14200002 C .35000003 .18400002 .35200004 .19400002 .36100004 .23200003 L .397 .37200005 C .40400005 .40000005 .40400005 .40200005 .40400005 .40600003 C .40400005 .42300005 .39200003 .43300004 .37500004 .43300004 C .35100005 .43300004 .33600004 .411 .33300004 .38900004 M .26800005 .13000001 C .263 .112 .263 .11000001 .24800001 .093 C .20400001 .038000004 .163 .022000002 .135 .022000002 C .08499999 .022000002 .07100001 .077 .07100001 .116000007 C .07100001 .16600001 .103 .28900004 .126 .335 C .157 .39400003 .202 .43100003 .242 .43100003 C .307 .43100003 .32100005 .34900005 .32100005 .34300003 C .32100005 .337 .31900005 .33100004 .31800003 .32600004 L .26800005 .13000001 Z "/>
</symbol>
<use xlink:href="#font_0_3" transform="matrix(9.9626,0,0,-9.9626,156.35219,187.68831)" fill="#0000ff"/>
<use xlink:href="#font_0_1" transform="matrix(9.9626,0,0,-9.9626,155.56514,192.9386)" fill="#0000ff"/>
<path transform="matrix(1,0,0,-1,132.577,226.97101)" stroke-width="1.19553" stroke-linecap="butt" stroke-miterlimit="10" stroke-linejoin="miter" fill="none" stroke="#00ff00" d="M 0 0 L -56.316 131.49774 "/>
<path transform="matrix(-.39484,-.92198,-.92198,.39484,76.260997,95.47328)" stroke-width="1" stroke-linecap="round" stroke-linejoin="round" fill="none" stroke="#00ff00" d="M -1.91284 2.55046 C -1.75343 1.59402 0 .15938 .4782 0 C 0 -.15938 -1.75343 -1.59402 -1.91284 -2.55046 "/>
<symbol id="font_0_2">
<path d="M .305 .31300003 C .311 .33900003 .334 .43100003 .404 .43100003 C .409 .43100003 .433 .43100003 .454 .418 C .426 .41300003 .40600003 .388 .40600003 .36400003 C .40600003 .34800003 .417 .32900004 .444 .32900004 C .46600003 .32900004 .498 .34700004 .498 .38700003 C .498 .43900005 .439 .45300005 .405 .45300005 C .347 .45300005 .312 .40000005 .3 .37700004 C .275 .44300003 .221 .45300005 .19200002 .45300005 C .08800001 .45300005 .031000002 .32400004 .031000002 .29900003 C .031000002 .28900004 .041 .28900004 .043000007 .28900004 C .051000008 .28900004 .054000006 .291 .056 .3 C .09 .40600003 .156 .43100003 .19000001 .43100003 C .209 .43100003 .244 .42200003 .244 .36400003 C .244 .33300004 .22700002 .26600004 .19000001 .126 C .17400001 .064 .13900002 .022000002 .095000009 .022000002 C .08900001 .022000002 .06600001 .022000002 .045 .035 C .07000001 .040000004 .09200001 .061 .09200001 .089 C .09200001 .116000007 .07000001 .124000009 .055000009 .124000009 C .025 .124000009 0 .098000008 0 .06600001 C 0 .020000002 .050000006 0 .094000007 0 C .16000001 0 .19600001 .07000001 .19900002 .076000008 C .21100001 .039 .24700003 0 .307 0 C .41 0 .467 .12900001 .467 .15400002 C .467 .16400002 .458 .16400002 .455 .16400002 C .446 .16400002 .444 .16000001 .442 .15300001 C .409 .046 .341 .022000002 .30900003 .022000002 C .27 .022000002 .254 .054 .254 .08800001 C .254 .11000001 .26 .13200002 .271 .17600002 L .305 .31300003 Z "/>
</symbol>
<use xlink:href="#font_0_3" transform="matrix(9.9626,0,0,-9.9626,96.623188,159.34131)" fill="#00ff00"/>
<use xlink:href="#font_0_2" transform="matrix(9.9626,0,0,-9.9626,95.228427,164.5916)" fill="#00ff00"/>
<path transform="matrix(1,0,0,-1,132.577,226.97101)" stroke-width="1.19553" stroke-linecap="butt" stroke-miterlimit="10" stroke-linejoin="miter" fill="none" stroke="#bf0040" d="M 18.9923 37.7013 L -56.09364 131.62906 "/>
<path transform="matrix(-.62732,-.78468,-.78468,.62732,76.48335,95.341968)" stroke-width="1" stroke-linecap="round" stroke-linejoin="round" fill="none" stroke="#bf0040" d="M -1.91284 2.55046 C -1.75343 1.59402 0 .15938 .4782 0 C 0 -.15938 -1.75343 -1.59402 -1.91284 -2.55046 "/>
<use xlink:href="#font_0_3" transform="matrix(9.9626,0,0,-9.9626,118.858188,139.93431)" fill="#bf0040"/>
<use xlink:href="#font_0_2" transform="matrix(9.9626,0,0,-9.9626,117.463428,145.1846)" fill="#bf0040"/>
<symbol id="font_1_1">
<path d="M .57600006 0 C .59300008 0 .611 0 .611 .019999996 C .611 .040000008 .59300008 .040000008 .57600006 .040000008 L .035000005 .040000008 C .018 .040000008 0 .040000008 0 .019999996 C 0 0 .018 0 .035000005 0 L .57600006 0 Z "/>
</symbol>
<use xlink:href="#font_1_1" transform="matrix(9.9626,0,0,-9.9626,125.91289,142.78362)" fill="#bf0040"/>
<use xlink:href="#font_0_3" transform="matrix(9.9626,0,0,-9.9626,136.23818,139.93431)" fill="#bf0040"/>
<use xlink:href="#font_0_1" transform="matrix(9.9626,0,0,-9.9626,135.45114,145.1846)" fill="#bf0040"/>
<path transform="matrix(1,0,0,-1,132.577,226.97101)" stroke-width="1" stroke-linecap="butt" stroke-miterlimit="10" stroke-linejoin="miter" fill="none" stroke="#929292" d="M 94.39491 -56.69362 L -132.37953 226.77448 "/>
<path transform="matrix(1,0,0,-1,132.577,226.97101)" d="M .99628 0 C .99628 .55023 .55023 .99628 0 .99628 C -.55023 .99628 -.99628 .55023 -.99628 0 C -.99628 -.55023 -.55023 -.99628 0 -.99628 C .55023 -.99628 .99628 -.55023 .99628 0 Z M 0 0 "/>
</svg>
