<?xml version="1.0" encoding="UTF-8" standalone="no"?>
<!DOCTYPE svg PUBLIC "-//W3C//DTD SVG 1.1//EN" "http://www.w3.org/Graphics/SVG/1.1/DTD/svg11.dtd">
<svg xmlns="http://www.w3.org/2000/svg" xmlns:xlink="http://www.w3.org/1999/xlink" version="1.1" width="186.46pt" height="175.22pt" viewBox="0 0 186.46 175.22">
<path transform="matrix(1,0,0,-1,13.507,116.493)" stroke-width="1" stroke-linecap="butt" stroke-miterlimit="10" stroke-linejoin="miter" fill="none" stroke="#000000" d="M 0 0 C -9.67674 17.38846 -8.04736 38.38644 0 56.69363 C 19.79381 101.72258 66.63942 78.84435 56.69363 56.69363 C 53.87392 50.41362 45.86589 48.47496 42.51979 42.51979 C 33.78685 26.97696 57.40602 15.3499 56.69363 0 C 55.59456 -23.67972 17.26518 -31.02422 0 0 Z "/>
<symbol id="font_0_1">
<path d="M .458 .411 L .374 .61 C .37100003 .61800006 .36900003 .62200006 .36900003 .623 C .36900003 .629 .386 .648 .428 .652 C .43800003 .65300008 .448 .65400007 .448 .671 C .448 .683 .43600003 .683 .433 .683 C .39200003 .683 .349 .68 .307 .68 C .282 .68 .22000002 .683 .19500003 .683 C .18900001 .683 .17700002 .683 .17700002 .66300007 C .17700002 .652 .18700002 .652 .20000002 .652 C .26 .652 .266 .642 .275 .62 L .393 .34100003 L .18200001 .11400001 L .16900002 .10300001 C .12 .05 .073 .034 .022000002 .031000002 C .0090000019 .030000002 0 .030000002 0 .011000001 C 0 .010000001 0 0 .013000002 0 C .042999999 0 .076000008 .003 .107 .003 C .14400001 .003 .18300002 0 .21900001 0 C .22500001 0 .237 0 .237 .020000002 C .237 .030000002 .22700002 .031000002 .22500001 .031000002 C .21600002 .032 .18500002 .034 .18500002 .062000004 C .18500002 .078 .20000002 .094000007 .21200001 .10700001 L .314 .215 L .404 .31300003 L .505 .074 C .509 .063 .51 .062000004 .51 .060000004 C .51 .052 .491 .035 .45200003 .031000002 C .441 .030000002 .432 .029000001 .432 .012 C .432 0 .44300003 0 .44700004 0 C .47500003 0 .545 .003 .573 .003 C .598 .003 .65900006 0 .684 0 C .69100007 0 .703 0 .703 .019000002 C .703 .031000002 .693 .031000002 .685 .031000002 C .61800006 .032 .616 .035 .59900006 .075 C .56 .16800002 .49300004 .324 .47 .384 C .538 .45400004 .643 .573 .675 .601 C .704 .625 .74200007 .64900007 .80200007 .652 C .81500008 .65300008 .824 .65300008 .824 .67200008 C .824 .67300006 .824 .683 .81100007 .683 C .781 .683 .748 .68 .717 .68 C .68 .68 .642 .683 .606 .683 C .6 .683 .587 .683 .587 .66300007 C .587 .656 .592 .65300008 .59900006 .652 C .60800006 .651 .639 .64900007 .639 .62100008 C .639 .60700008 .628 .59400007 .62 .58500006 L .458 .411 Z "/>
</symbol>
<use xlink:href="#font_0_1" transform="matrix(9.9626,0,0,-9.9626,3.5899904,125.566)"/>
<symbol id="font_0_2">
<path d="M .562 .569 L .576 .583 C .606 .61300006 .639 .647 .707 .652 C .718 .65300008 .727 .65300008 .727 .671 C .727 .679 .722 .683 .714 .683 C .688 .683 .659 .68 .632 .68 C .599 .68 .564 .683 .532 .683 C .526 .683 .513 .683 .513 .66400006 C .513 .65300008 .523 .652 .528 .652 C .535 .652 .564 .65000006 .564 .629 C .564 .61200007 .541 .586 .537 .58100005 L .305 .314 L .19500001 .611 C .18900001 .625 .18900001 .62700006 .18900001 .628 C .18900001 .652 .238 .652 .24800003 .652 C .26200003 .652 .272 .652 .272 .67200008 C .272 .683 .26000003 .683 .25700004 .683 C .229 .683 .15900001 .68 .13100001 .68 C .106000009 .68 .044000005 .683 .019000002 .683 C .013 .683 0 .683 0 .66300007 C 0 .652 .010000002 .652 .023000002 .652 C .083000008 .652 .08700001 .643 .096000019 .61800006 L .21900001 .289 C .22000003 .286 .22300002 .275 .22300002 .272 C .22300002 .26900003 .18300002 .108 .17800002 .09 C .165 .035 .16400002 .032 .08400001 .031000002 C .065 .031000002 .057000009 .031000002 .057000009 .011000001 C .057000009 0 .069000009 0 .07100001 0 C .09900001 0 .16900002 .003 .19700001 .003 C .22500003 .003 .29700003 0 .32500003 0 C .33200003 0 .344 0 .344 .020000002 C .344 .031000002 .335 .031000002 .316 .031000002 C .314 .031000002 .29500003 .031000002 .27800004 .033 C .25700004 .035 .25100003 .037 .25100003 .049000004 C .25100003 .056 .26000003 .091000009 .26500003 .112 L .3 .25300003 C .305 .272 .30600003 .275 .314 .284 L .562 .569 Z "/>
</symbol>
<use xlink:href="#font_0_2" transform="matrix(9.9626,0,0,-9.9626,117.57269,125.566)"/>
<path transform="matrix(1,0,0,-1,13.507,116.493)" stroke-width="1" stroke-linecap="butt" stroke-miterlimit="10" stroke-linejoin="miter" fill="none" stroke="#000000" d="M 113.38728 0 C 115.19354 2.8422 118.23776 4.58316 120.47397 7.08669 C 132.90427 21.00317 117.39647 39.08673 113.38728 56.69363 C 102.39087 104.98695 161.54477 116.29565 170.08092 85.04045 C 172.75574 75.24736 165.48 66.3522 162.9942 56.69363 C 158.10524 37.69612 171.94948 19.30243 170.08092 0 C 164.41466 -58.52846 94.12117 -30.31572 113.38728 0 Z "/>
<symbol id="font_0_3">
<path d="M .314 .605 L .4 .605 C .42000003 .605 .43 .605 .43 .625 C .43 .63600006 .42000003 .63600006 .40300004 .63600006 L .32000003 .63600006 L .34100003 .75 C .34500004 .771 .35900004 .842 .365 .8540001 C .374 .873 .39100004 .888 .41200004 .888 C .416 .888 .44200004 .888 .461 .87 C .41700004 .86600008 .407 .8310001 .407 .816 C .407 .793 .425 .781 .444 .781 C .47 .781 .49900005 .8030001 .49900005 .8410001 C .49900005 .8870001 .45300005 .9100001 .41200004 .9100001 C .37800003 .9100001 .31500004 .8920001 .28500004 .793 C .279 .7720001 .27600003 .7620001 .252 .63600006 L .18300002 .63600006 C .164 .63600006 .15300001 .63600006 .15300001 .61700007 C .15300001 .605 .162 .605 .18100001 .605 L .24700001 .605 L .172 .21000001 C .15400002 .113000009 .13700001 .022 .08500001 .022 C .081 .022 .056 .022 .037 .040000008 C .083000008 .043000014 .09200001 .07900001 .09200001 .094000007 C .09200001 .117000009 .074 .12900001 .055 .12900001 C .029 .12900001 0 .10700001 0 .069000009 C 0 .024000004 .044 0 .08500001 0 C .14 0 .18 .059 .19800002 .09700001 C .23000002 .16000001 .25300003 .28100003 .254 .28800003 L .314 .605 Z "/>
</symbol>
<use xlink:href="#font_0_3" transform="matrix(9.9626,0,0,-9.9626,90.431018,24.648337)"/>
<path transform="matrix(1,0,0,-1,13.507,116.493)" stroke-width="1" stroke-linecap="butt" stroke-miterlimit="10" stroke-linejoin="miter" fill="none" stroke="#000000" d="M 48.18947 82.20555 C 69.251 94.3654 89.49083 94.3654 108.82132 83.205 "/>
<path transform="matrix(.86877,.5016,.5016,-.86877,122.32832,33.28798)" d="M 1.99252 0 L -1.19551 1.59401 L 0 0 L -1.19551 -1.59401 "/>
<path transform="matrix(1,0,0,-1,13.507,116.493)" d="M 36.42976 14.17339 C 36.42976 14.72363 35.98373 15.16966 35.43349 15.16966 C 34.88326 15.16966 34.43721 14.72363 34.43721 14.17339 C 34.43721 13.62315 34.88326 13.17711 35.43349 13.17711 C 35.98373 13.17711 36.42976 13.62315 36.42976 14.17339 Z M 35.43349 14.17339 "/>
<path transform="matrix(1,0,0,-1,13.507,116.493)" d="M 22.25638 28.3468 C 22.25638 28.89703 21.81033 29.34308 21.2601 29.34308 C 20.70985 29.34308 20.26382 28.89703 20.26382 28.3468 C 20.26382 27.79657 20.70985 27.35052 21.2601 27.35052 C 21.81033 27.35052 22.25638 27.79657 22.25638 28.3468 Z M 21.2601 28.3468 "/>
<path transform="matrix(1,0,0,-1,13.507,116.493)" d="M 36.42976 49.6069 C 36.42976 50.15714 35.98373 50.60318 35.43349 50.60318 C 34.88326 50.60318 34.43721 50.15714 34.43721 49.6069 C 34.43721 49.05667 34.88326 48.61063 35.43349 48.61063 C 35.98373 48.61063 36.42976 49.05667 36.42976 49.6069 Z M 35.43349 49.6069 "/>
<path transform="matrix(1,0,0,-1,13.507,116.493)" d="M 29.34308 56.69362 C 29.34308 57.24385 28.89703 57.6899 28.3468 57.6899 C 27.79657 57.6899 27.35052 57.24385 27.35052 56.69362 C 27.35052 56.14337 27.79657 55.69734 28.3468 55.69734 C 28.89703 55.69734 29.34308 56.14337 29.34308 56.69362 Z M 28.3468 56.69362 "/>
<path transform="matrix(1,0,0,-1,13.507,116.493)" d="M 32.17793 63.7803 C 32.17793 64.33054 31.73189 64.77658 31.18166 64.77658 C 30.63142 64.77658 30.18538 64.33054 30.18538 63.7803 C 30.18538 63.23007 30.63142 62.78403 31.18166 62.78403 C 31.73189 62.78403 32.17793 63.23007 32.17793 63.7803 Z M 31.18166 63.7803 "/>
<path transform="matrix(1,0,0,-1,13.507,116.493)" d="M 149.81707 14.17339 C 149.81707 14.72363 149.37102 15.16966 148.82079 15.16966 C 148.27054 15.16966 147.82451 14.72363 147.82451 14.17339 C 147.82451 13.62315 148.27054 13.17711 148.82079 13.17711 C 149.37102 13.17711 149.81707 13.62315 149.81707 14.17339 Z M 148.82079 14.17339 "/>
<path transform="matrix(1,0,0,-1,13.507,116.493)" d="M 135.64366 28.3468 C 135.64366 28.89703 135.19762 29.34308 134.64739 29.34308 C 134.09716 29.34308 133.65111 28.89703 133.65111 28.3468 C 133.65111 27.79657 134.09716 27.35052 134.64739 27.35052 C 135.19762 27.35052 135.64366 27.79657 135.64366 28.3468 Z M 134.64739 28.3468 "/>
<path transform="matrix(1,0,0,-1,13.507,116.493)" d="M 149.81707 49.6069 C 149.81707 50.15714 149.37102 50.60318 148.82079 50.60318 C 148.27054 50.60318 147.82451 50.15714 147.82451 49.6069 C 147.82451 49.05667 148.27054 48.61063 148.82079 48.61063 C 149.37102 48.61063 149.81707 49.05667 149.81707 49.6069 Z M 148.82079 49.6069 "/>
<path transform="matrix(1,0,0,-1,13.507,116.493)" d="M 135.64366 63.7803 C 135.64366 64.33054 135.19762 64.77658 134.64739 64.77658 C 134.09716 64.77658 133.65111 64.33054 133.65111 63.7803 C 133.65111 63.23007 134.09716 62.78403 134.64739 62.78403 C 135.19762 62.78403 135.64366 63.23007 135.64366 63.7803 Z M 134.64739 63.7803 "/>
<path transform="matrix(1,0,0,-1,13.507,116.493)" stroke-width="1" stroke-linecap="butt" stroke-miterlimit="10" stroke-linejoin="miter" fill="none" stroke="#000000" d="M 38.95331 13.23044 C 79.0127 2.49628 105.24158 2.49628 143.37256 12.71347 "/>
<path transform="matrix(.96782,-.25932,-.25932,-.96782,156.87957,103.77953)" d="M 1.99252 0 L -1.19551 1.59401 L 0 0 L -1.19551 -1.59401 "/>
<path transform="matrix(1,0,0,-1,13.507,116.493)" stroke-width="1" stroke-linecap="butt" stroke-miterlimit="10" stroke-linejoin="miter" fill="none" stroke="#000000" d="M 24.77992 27.40385 C 64.83931 16.6697 91.06818 16.6697 129.19916 26.88689 "/>
<path transform="matrix(.96782,-.25932,-.25932,-.96782,142.70616,89.606128)" d="M 1.99252 0 L -1.19551 1.59401 L 0 0 L -1.19551 -1.59401 "/>
<path transform="matrix(1,0,0,-1,13.507,116.493)" stroke-width="1" stroke-linecap="butt" stroke-miterlimit="10" stroke-linejoin="miter" fill="none" stroke="#000000" d="M 38.95331 49.91464 C 75.61742 53.12267 99.25385 48.78131 129.39652 31.37845 "/>
<path transform="matrix(.86877,.50157,.50157,-.86877,142.90352,85.11453)" d="M 1.99252 0 L -1.19551 1.59401 L 0 0 L -1.19551 -1.59401 "/>
<path transform="matrix(1,0,0,-1,13.507,116.493)" stroke-width="1" stroke-linecap="butt" stroke-miterlimit="10" stroke-linejoin="miter" fill="none" stroke="#000000" d="M 31.86662 57.63625 C 74.76237 69.13072 106.84163 73.84361 143.56992 52.63852 "/>
<path transform="matrix(.86877,.50156,.50156,-.86877,157.07692,63.854467)" d="M 1.99252 0 L -1.19551 1.59401 L 0 0 L -1.19551 -1.59401 "/>
<path transform="matrix(1,0,0,-1,13.507,116.493)" stroke-width="1" stroke-linecap="butt" stroke-miterlimit="10" stroke-linejoin="miter" fill="none" stroke="#000000" d="M 34.70148 64.72287 C 71.16548 74.49403 98.43478 84.6877 129.39652 66.812 "/>
<path transform="matrix(.86877,.5016,.5016,-.86877,142.90352,49.680986)" d="M 1.99252 0 L -1.19551 1.59401 L 0 0 L -1.19551 -1.59401 "/>
</svg>
