<?xml version="1.0" encoding="UTF-8" standalone="no"?>
<!DOCTYPE svg PUBLIC "-//W3C//DTD SVG 1.1//EN" "http://www.w3.org/Graphics/SVG/1.1/DTD/svg11.dtd">
<svg xmlns="http://www.w3.org/2000/svg" xmlns:xlink="http://www.w3.org/1999/xlink" version="1.1" width="215.89pt" height="175.22pt" viewBox="0 0 215.89 175.22">
<path transform="matrix(1,0,0,-1,13.507,116.493)" stroke-width="1" stroke-linecap="butt" stroke-miterlimit="10" stroke-linejoin="miter" fill="none" stroke="#000000" d="M 0 0 C -9.67674 17.38846 -8.04736 38.38644 0 56.69363 C 19.79381 101.72258 66.63942 78.84435 56.69363 56.69363 C 53.87392 50.41362 45.86589 48.47496 42.51979 42.51979 C 33.78685 26.97696 57.40602 15.3499 56.69363 0 C 55.59456 -23.67972 17.26518 -31.02422 0 0 Z "/>
<symbol id="font_0_1">
<path d="M .458 .411 L .374 .61 C .37100003 .61800006 .36900003 .62200006 .36900003 .623 C .36900003 .629 .386 .648 .428 .652 C .43800003 .65300008 .448 .65400007 .448 .671 C .448 .683 .43600003 .683 .433 .683 C .39200003 .683 .349 .68 .307 .68 C .282 .68 .22000002 .683 .19500003 .683 C .18900001 .683 .17700002 .683 .17700002 .66300007 C .17700002 .652 .18700002 .652 .20000002 .652 C .26 .652 .266 .642 .275 .62 L .393 .34100003 L .18200001 .11400001 L .16900002 .10300001 C .12 .05 .073 .034 .022000002 .031000002 C .0090000019 .030000002 0 .030000002 0 .011000001 C 0 .010000001 0 0 .013000002 0 C .042999999 0 .076000008 .003 .107 .003 C .14400001 .003 .18300002 0 .21900001 0 C .22500001 0 .237 0 .237 .020000002 C .237 .030000002 .22700002 .031000002 .22500001 .031000002 C .21600002 .032 .18500002 .034 .18500002 .062000004 C .18500002 .078 .20000002 .094000007 .21200001 .10700001 L .314 .215 L .404 .31300003 L .505 .074 C .509 .063 .51 .062000004 .51 .060000004 C .51 .052 .491 .035 .45200003 .031000002 C .441 .030000002 .432 .029000001 .432 .012 C .432 0 .44300003 0 .44700004 0 C .47500003 0 .545 .003 .573 .003 C .598 .003 .65900006 0 .684 0 C .69100007 0 .703 0 .703 .019000002 C .703 .031000002 .693 .031000002 .685 .031000002 C .61800006 .032 .616 .035 .59900006 .075 C .56 .16800002 .49300004 .324 .47 .384 C .538 .45400004 .643 .573 .675 .601 C .704 .625 .74200007 .64900007 .80200007 .652 C .81500008 .65300008 .824 .65300008 .824 .67200008 C .824 .67300006 .824 .683 .81100007 .683 C .781 .683 .748 .68 .717 .68 C .68 .68 .642 .683 .606 .683 C .6 .683 .587 .683 .587 .66300007 C .587 .656 .592 .65300008 .59900006 .652 C .60800006 .651 .639 .64900007 .639 .62100008 C .639 .60700008 .628 .59400007 .62 .58500006 L .458 .411 Z "/>
</symbol>
<use xlink:href="#font_0_1" transform="matrix(9.9626,0,0,-9.9626,3.5899904,125.566)"/>
<symbol id="font_0_2">
<path d="M .562 .569 L .576 .583 C .606 .61300006 .639 .647 .707 .652 C .718 .65300008 .727 .65300008 .727 .671 C .727 .679 .722 .683 .714 .683 C .688 .683 .659 .68 .632 .68 C .599 .68 .564 .683 .532 .683 C .526 .683 .513 .683 .513 .66400006 C .513 .65300008 .523 .652 .528 .652 C .535 .652 .564 .65000006 .564 .629 C .564 .61200007 .541 .586 .537 .58100005 L .305 .314 L .19500001 .611 C .18900001 .625 .18900001 .62700006 .18900001 .628 C .18900001 .652 .238 .652 .24800003 .652 C .26200003 .652 .272 .652 .272 .67200008 C .272 .683 .26000003 .683 .25700004 .683 C .229 .683 .15900001 .68 .13100001 .68 C .106000009 .68 .044000005 .683 .019000002 .683 C .013 .683 0 .683 0 .66300007 C 0 .652 .010000002 .652 .023000002 .652 C .083000008 .652 .08700001 .643 .096000019 .61800006 L .21900001 .289 C .22000003 .286 .22300002 .275 .22300002 .272 C .22300002 .26900003 .18300002 .108 .17800002 .09 C .165 .035 .16400002 .032 .08400001 .031000002 C .065 .031000002 .057000009 .031000002 .057000009 .011000001 C .057000009 0 .069000009 0 .07100001 0 C .09900001 0 .16900002 .003 .19700001 .003 C .22500003 .003 .29700003 0 .32500003 0 C .33200003 0 .344 0 .344 .020000002 C .344 .031000002 .335 .031000002 .316 .031000002 C .314 .031000002 .29500003 .031000002 .27800004 .033 C .25700004 .035 .25100003 .037 .25100003 .049000004 C .25100003 .056 .26000003 .091000009 .26500003 .112 L .3 .25300003 C .305 .272 .30600003 .275 .314 .284 L .562 .569 Z "/>
</symbol>
<use xlink:href="#font_0_2" transform="matrix(9.9626,0,0,-9.9626,117.57269,125.566)"/>
<path transform="matrix(1,0,0,-1,13.507,116.493)" stroke-width="1" stroke-linecap="butt" stroke-miterlimit="10" stroke-linejoin="miter" fill="none" stroke="#000000" d="M 113.38728 0 C 115.19354 2.8422 118.23776 4.58316 120.47397 7.08669 C 132.90427 21.00317 117.39647 39.08673 113.38728 56.69363 C 102.39087 104.98695 161.54477 116.29565 170.08092 85.04045 C 172.75574 75.24736 165.48 66.3522 162.9942 56.69363 C 158.10524 37.69612 171.94948 19.30243 170.08092 0 C 164.41466 -58.52846 94.12117 -30.31572 113.38728 0 Z "/>
<symbol id="font_1_3">
<path d="M .18900001 .37500004 L .18900001 .63400009 C .18900001 .65700009 .18900001 .669 .21100001 .67200008 C .22100002 .674 .25000004 .674 .27 .674 C .36 .674 .47200004 .67 .47200004 .52500006 C .47200004 .45600004 .448 .37500004 .3 .37500004 L .18900001 .37500004 M .40000005 .36200003 C .497 .38600005 .575 .44700004 .575 .52500006 C .575 .62100008 .46100004 .70500007 .314 .70500007 L 0 .70500007 L 0 .674 L .024000004 .674 C .10100001 .674 .103000018 .66300007 .103000018 .62700006 L .103000018 .1 C .103000018 .064 .10100001 .053000004 .024000004 .053000004 L 0 .053000004 L 0 .022000002 C .036000004 .025000003 .10700001 .025000003 .14600002 .025000003 C .18500002 .025000003 .256 .025000003 .29200004 .022000002 L .29200004 .053000004 L .268 .053000004 C .19100002 .053000004 .18900001 .064 .18900001 .1 L .18900001 .35300005 L .30400003 .35300005 C .32000003 .35300005 .36200003 .35300005 .397 .31900005 C .43500004 .28300003 .43500004 .252 .43500004 .185 C .43500004 .120000008 .43500004 .080000009 .47600005 .042000005 C .517 .006000001 .572 0 .602 0 C .68 0 .697 .082 .697 .11000001 C .697 .116000007 .697 .127 .684 .127 C .673 .127 .673 .118 .672 .111 C .666 .040000004 .631 .022000002 .606 .022000002 C .557 .022000002 .549 .07300001 .535 .16600001 L .522 .246 C .504 .31000004 .455 .34300003 .40000005 .36200003 Z "/>
</symbol>
<symbol id="font_1_4">
<path d="M .291 .087000008 C .29500003 .047000003 .32200004 .005000001 .36900003 .005000001 C .39000003 .005000001 .45100004 .019000002 .45100004 .1 L .45100004 .15600002 L .42600004 .15600002 L .42600004 .1 C .42600004 .042000005 .40100003 .036000004 .39000003 .036000004 C .35700003 .036000004 .35300002 .081 .35300002 .086 L .35300002 .286 C .35300002 .328 .35300002 .367 .31700004 .404 C .27800004 .44300003 .22800002 .45900003 .18 .45900003 C .098 .45900003 .029 .41200004 .029 .34600003 C .029 .316 .049000004 .29900003 .075 .29900003 C .10300001 .29900003 .121 .31900005 .121 .34500004 C .121 .35700003 .116000007 .39000003 .07 .39100004 C .09700001 .42600004 .146 .43700005 .178 .43700005 C .22700003 .43700005 .284 .39800004 .284 .30900003 L .284 .272 C .23300001 .26900003 .16300002 .26600004 .1 .23600002 C .024999999 .20200002 0 .15000002 0 .106000009 C 0 .025000003 .09700001 0 .16 0 C .22600001 0 .272 .040000004 .291 .087000008 M .284 .25100003 L .284 .15100001 C .284 .056 .21200001 .022000002 .167 .022000002 C .11800001 .022000002 .077 .057000005 .077 .107 C .077 .16200002 .11900001 .24500002 .284 .25100003 Z "/>
</symbol>
<symbol id="font_1_7">
<path d="M .07800001 .344 L .07800001 .076000008 C .07800001 .031000002 .067 .031000002 0 .031000002 L 0 0 C .035 .001 .08600001 .003 .113000009 .003 C .139 .003 .191 .001 .225 0 L .225 .031000002 C .158 .031000002 .147 .031000002 .147 .076000008 L .147 .26000003 C .147 .36400003 .218 .42000003 .282 .42000003 C .345 .42000003 .356 .36600004 .356 .30900003 L .356 .076000008 C .356 .031000002 .345 .031000002 .278 .031000002 L .278 0 C .31300003 .001 .36400003 .003 .391 .003 C .41700004 .003 .46900005 .001 .503 0 L .503 .031000002 C .451 .031000002 .42600004 .031000002 .425 .061000006 L .425 .252 C .425 .33800004 .425 .36900003 .39400003 .40500004 C .38000003 .42200003 .347 .44200004 .289 .44200004 C .216 .44200004 .169 .39900003 .141 .337 L .141 .44200004 L 0 .43100003 L 0 .4 C .07000001 .4 .07800001 .393 .07800001 .344 Z "/>
</symbol>
<symbol id="font_1_6">
<path d="M .19400002 .37800003 C .10700001 .37800003 .10700001 .47800005 .10700001 .50100007 C .10700001 .52800008 .10800001 .56 .12300001 .58500006 C .13100001 .59700009 .15400002 .62500008 .19400002 .62500008 C .28100003 .62500008 .28100003 .52500006 .28100003 .50200006 C .28100003 .47500003 .28000004 .44300003 .26500003 .41800005 C .25700004 .40600003 .23400003 .37800003 .19400002 .37800003 M .07800001 .33900003 C .07800001 .34300003 .07800001 .36600004 .095 .38600005 C .134 .35800005 .17500001 .35500003 .19400002 .35500003 C .28700004 .35500003 .356 .42400003 .356 .50100007 C .356 .53800007 .34000004 .57500007 .31500004 .59800007 C .351 .632 .38700003 .637 .40500004 .637 C .40700004 .637 .41200004 .637 .41500003 .63600006 C .404 .632 .39900003 .62100008 .39900003 .609 C .39900003 .592 .41200004 .58000007 .42800004 .58000007 C .43800003 .58000007 .45700003 .587 .45700003 .61 C .45700003 .62700006 .44500003 .65900006 .40600003 .65900006 C .38600005 .65900006 .342 .65300008 .3 .61200007 C .25800003 .64500007 .21600002 .64800009 .19400002 .64800009 C .10100001 .64800009 .032 .57900008 .032 .50200006 C .032 .458 .054 .42000003 .07900001 .39900003 C .066 .384 .048000006 .351 .048000006 .316 C .048000006 .28500004 .061 .24700001 .09200001 .22700002 C .032 .21000001 0 .16700001 0 .127 C 0 .055000009 .09900001 0 .22100002 0 C .33900003 0 .44300003 .051000015 .44300003 .12900001 C .44300003 .164 .42900003 .21500002 .37800003 .24300002 C .32500003 .27100004 .26700003 .27100004 .20600002 .27100004 C .18100001 .27100004 .13800001 .27100004 .13100001 .272 C .09900001 .27600003 .07800001 .307 .07800001 .33900003 M .222 .023000002 C .12100001 .023000002 .052000006 .074000019 .052000006 .127 C .052000006 .17300001 .09 .21000001 .134 .21300002 L .19300002 .21300002 C .279 .21300002 .39100004 .21300002 .39100004 .127 C .39100004 .073000017 .32000003 .023000002 .222 .023000002 Z "/>
</symbol>
<symbol id="font_1_5">
<path d="M .08400001 .263 C .09 .41200004 .17400001 .43700005 .20800002 .43700005 C .31100003 .43700005 .321 .30200003 .321 .263 L .08400001 .263 M .083000008 .24200002 L .36200003 .24200002 C .38400004 .24200002 .38700003 .24200002 .38700003 .263 C .38700003 .36200003 .33300004 .45900003 .20800002 .45900003 C .09200001 .45900003 0 .35600005 0 .23100002 C 0 .097 .105000007 0 .22000002 0 C .342 0 .38700003 .111 .38700003 .13000001 C .38700003 .14000002 .379 .14200002 .374 .14200002 C .365 .14200002 .36300005 .136 .36100004 .128 C .326 .025000003 .236 .025000003 .22600001 .025000003 C .17600002 .025000003 .136 .055000005 .113000009 .092 C .083000008 .14000002 .083000008 .20600002 .083000008 .24200002 Z "/>
</symbol>
<symbol id="font_1_1">
<path d="M .23200003 .00999999 C .23200003 .012999982 .23200003 .014999986 .215 .03199999 C .09 .15799999 .058 .347 .058 .5 C .058 .674 .096 .84800007 .21900001 .97300007 C .23200003 .985 .23200003 .98700007 .23200003 .99 C .23200003 .99700006 .22800002 1 .222 1 C .21200001 1 .12200001 .93200007 .06299999 .805 C .012000002 .69500008 0 .584 0 .5 C 0 .422 .011 .301 .066 .188 C .126 .065 .21200001 0 .222 0 C .22800002 0 .23200003 .0029999912 .23200003 .00999999 Z "/>
</symbol>
<use xlink:href="#font_1_3" transform="matrix(9.9626,0,0,-9.9626,171.9597,112.11618)"/>
<use xlink:href="#font_1_4" transform="matrix(9.9626,0,0,-9.9626,179.36191,112.00659)"/>
<use xlink:href="#font_1_7" transform="matrix(9.9626,0,0,-9.9626,184.24358,111.897)"/>
<use xlink:href="#font_1_6" transform="matrix(9.9626,0,0,-9.9626,189.74292,113.949298)"/>
<use xlink:href="#font_1_5" transform="matrix(9.9626,0,0,-9.9626,194.72422,112.00659)"/>
<use xlink:href="#font_1_1" transform="matrix(9.9626,0,0,-9.9626,199.85497,114.38765)"/>
<symbol id="font_0_3">
<path d="M .314 .605 L .4 .605 C .42000003 .605 .43 .605 .43 .625 C .43 .63600006 .42000003 .63600006 .40300004 .63600006 L .32000003 .63600006 L .34100003 .75 C .34500004 .771 .35900004 .842 .365 .8540001 C .374 .873 .39100004 .888 .41200004 .888 C .416 .888 .44200004 .888 .461 .87 C .41700004 .86600008 .407 .8310001 .407 .816 C .407 .793 .425 .781 .444 .781 C .47 .781 .49900005 .8030001 .49900005 .8410001 C .49900005 .8870001 .45300005 .9100001 .41200004 .9100001 C .37800003 .9100001 .31500004 .8920001 .28500004 .793 C .279 .7720001 .27600003 .7620001 .252 .63600006 L .18300002 .63600006 C .164 .63600006 .15300001 .63600006 .15300001 .61700007 C .15300001 .605 .162 .605 .18100001 .605 L .24700001 .605 L .172 .21000001 C .15400002 .113000009 .13700001 .022 .08500001 .022 C .081 .022 .056 .022 .037 .040000008 C .083000008 .043000014 .09200001 .07900001 .09200001 .094000007 C .09200001 .117000009 .074 .12900001 .055 .12900001 C .029 .12900001 0 .10700001 0 .069000009 C 0 .024000004 .044 0 .08500001 0 C .14 0 .18 .059 .19800002 .09700001 C .23000002 .16000001 .25300003 .28100003 .254 .28800003 L .314 .605 Z "/>
</symbol>
<use xlink:href="#font_0_3" transform="matrix(9.9626,0,0,-9.9626,203.27303,113.93934)"/>
<symbol id="font_1_2">
<path d="M .232 .5 C .232 .578 .22100002 .699 .16600001 .81200006 C .106 .93500009 .020000004 1 .009999998 1 C .0040000008 1 0 .99600008 0 .99 C 0 .98700007 0 .985 .019000002 .967 C .117000009 .86800006 .174 .709 .174 .5 C .174 .329 .137 .153 .012999997 .026999996 C 0 .014999986 0 .012999982 0 .00999999 C 0 .003999993 .0040000008 0 .009999998 0 C .020000004 0 .11000001 .06799999 .169 .195 C .22 .305 .232 .416 .232 .5 Z "/>
</symbol>
<use xlink:href="#font_1_2" transform="matrix(9.9626,0,0,-9.9626,209.26288,114.38765)"/>
<path transform="matrix(1,0,0,-1,13.507,116.493)" stroke-width="1" stroke-linecap="butt" stroke-miterlimit="10" stroke-linejoin="miter" fill="none" stroke="#000000" d="M 127.56024 7.08669 C 128.97032 10.22649 132.97434 11.19537 134.64739 14.17296 C 139.01473 21.94438 127.20384 27.75812 127.56024 35.4335 C 128.10958 47.27339 147.27448 50.94562 155.90708 35.4335 C 160.74544 26.7395 159.93054 16.2405 155.90708 7.08669 C 146.01016 -15.42906 122.5865 -3.98842 127.56024 7.08669 Z "/>
<use xlink:href="#font_0_3" transform="matrix(9.9626,0,0,-9.9626,90.431018,24.648337)"/>
<path transform="matrix(1,0,0,-1,13.507,116.493)" stroke-width="1" stroke-linecap="butt" stroke-miterlimit="10" stroke-linejoin="miter" fill="none" stroke="#000000" d="M 48.18947 82.20555 C 69.251 94.3654 89.49083 94.3654 108.82132 83.205 "/>
<path transform="matrix(.86877,.5016,.5016,-.86877,122.32832,33.28798)" d="M 1.99252 0 L -1.19551 1.59401 L 0 0 L -1.19551 -1.59401 "/>
<path transform="matrix(1,0,0,-1,13.507,116.493)" d="M 36.42976 14.17339 C 36.42976 14.72363 35.98373 15.16966 35.43349 15.16966 C 34.88326 15.16966 34.43721 14.72363 34.43721 14.17339 C 34.43721 13.62315 34.88326 13.17711 35.43349 13.17711 C 35.98373 13.17711 36.42976 13.62315 36.42976 14.17339 Z M 35.43349 14.17339 "/>
<path transform="matrix(1,0,0,-1,13.507,116.493)" d="M 22.25638 28.3468 C 22.25638 28.89703 21.81033 29.34308 21.2601 29.34308 C 20.70985 29.34308 20.26382 28.89703 20.26382 28.3468 C 20.26382 27.79657 20.70985 27.35052 21.2601 27.35052 C 21.81033 27.35052 22.25638 27.79657 22.25638 28.3468 Z M 21.2601 28.3468 "/>
<path transform="matrix(1,0,0,-1,13.507,116.493)" d="M 36.42976 49.6069 C 36.42976 50.15714 35.98373 50.60318 35.43349 50.60318 C 34.88326 50.60318 34.43721 50.15714 34.43721 49.6069 C 34.43721 49.05667 34.88326 48.61063 35.43349 48.61063 C 35.98373 48.61063 36.42976 49.05667 36.42976 49.6069 Z M 35.43349 49.6069 "/>
<path transform="matrix(1,0,0,-1,13.507,116.493)" d="M 149.81707 14.17339 C 149.81707 14.72363 149.37102 15.16966 148.82079 15.16966 C 148.27054 15.16966 147.82451 14.72363 147.82451 14.17339 C 147.82451 13.62315 148.27054 13.17711 148.82079 13.17711 C 149.37102 13.17711 149.81707 13.62315 149.81707 14.17339 Z M 148.82079 14.17339 "/>
<path transform="matrix(1,0,0,-1,13.507,116.493)" d="M 135.64366 28.3468 C 135.64366 28.89703 135.19762 29.34308 134.64739 29.34308 C 134.09716 29.34308 133.65111 28.89703 133.65111 28.3468 C 133.65111 27.79657 134.09716 27.35052 134.64739 27.35052 C 135.19762 27.35052 135.64366 27.79657 135.64366 28.3468 Z M 134.64739 28.3468 "/>
<path transform="matrix(1,0,0,-1,13.507,116.493)" d="M 149.81707 49.6069 C 149.81707 50.15714 149.37102 50.60318 148.82079 50.60318 C 148.27054 50.60318 147.82451 50.15714 147.82451 49.6069 C 147.82451 49.05667 148.27054 48.61063 148.82079 48.61063 C 149.37102 48.61063 149.81707 49.05667 149.81707 49.6069 Z M 148.82079 49.6069 "/>
<path transform="matrix(1,0,0,-1,13.507,116.493)" d="M 135.64366 63.7803 C 135.64366 64.33054 135.19762 64.77658 134.64739 64.77658 C 134.09716 64.77658 133.65111 64.33054 133.65111 63.7803 C 133.65111 63.23007 134.09716 62.78403 134.64739 62.78403 C 135.19762 62.78403 135.64366 63.23007 135.64366 63.7803 Z M 134.64739 63.7803 "/>
<path transform="matrix(1,0,0,-1,13.507,116.493)" stroke-width="1" stroke-linecap="butt" stroke-miterlimit="10" stroke-linejoin="miter" fill="none" stroke="#000000" d="M 38.95331 13.23044 C 79.0127 2.49628 105.24158 2.49628 143.37256 12.71347 "/>
<path transform="matrix(.96782,-.25932,-.25932,-.96782,156.87957,103.77953)" d="M 1.99252 0 L -1.19551 1.59401 L 0 0 L -1.19551 -1.59401 "/>
<path transform="matrix(1,0,0,-1,13.507,116.493)" stroke-width="1" stroke-linecap="butt" stroke-miterlimit="10" stroke-linejoin="miter" fill="none" stroke="#000000" d="M 24.77992 27.40385 C 64.83931 16.6697 91.06818 16.6697 129.19916 26.88689 "/>
<path transform="matrix(.96782,-.25932,-.25932,-.96782,142.70616,89.606128)" d="M 1.99252 0 L -1.19551 1.59401 L 0 0 L -1.19551 -1.59401 "/>
<path transform="matrix(1,0,0,-1,13.507,116.493)" stroke-width="1" stroke-linecap="butt" stroke-miterlimit="10" stroke-linejoin="miter" fill="none" stroke="#000000" d="M 38.95331 49.91464 C 75.61742 53.12267 99.25385 48.78131 129.39652 31.37845 "/>
<path transform="matrix(.86877,.50157,.50157,-.86877,142.90352,85.11453)" d="M 1.99252 0 L -1.19551 1.59401 L 0 0 L -1.19551 -1.59401 "/>
</svg>
