<?xml version="1.0" encoding="UTF-8" standalone="no"?>
<!DOCTYPE svg PUBLIC "-//W3C//DTD SVG 1.1//EN" "http://www.w3.org/Graphics/SVG/1.1/DTD/svg11.dtd">
<svg xmlns="http://www.w3.org/2000/svg" xmlns:xlink="http://www.w3.org/1999/xlink" version="1.1" width="347.419pt" height="113.316pt" viewBox="0 0 347.419 113.316">
<path transform="matrix(1,0,0,-1,60.342,59.323)" stroke-width="1" stroke-linecap="butt" stroke-miterlimit="10" stroke-linejoin="miter" fill="none" stroke="#000000" d="M 0 0 C 0 0 18.90797 30.11179 28.3468 37.1909 C 37.78563 44.27002 47.25478 44.28998 56.69362 42.5202 C 66.13245 40.75041 75.6016 33.63997 85.04042 26.56084 C 94.47925 19.48172 103.9484 8.84413 113.38724 0 C 122.82607 -8.84413 132.29521 -19.48172 141.73404 -26.56084 C 151.17287 -33.63997 160.64202 -40.75041 170.08086 -42.5202 C 179.51969 -44.28998 188.98883 -44.27002 198.42766 -37.1909 C 207.8665 -30.11179 226.77448 0 226.77448 0 "/>
<path transform="matrix(1,0,0,-1,60.342,59.323)" d="M .99628 0 C .99628 .55023 .55023 .99628 0 .99628 C -.55023 .99628 -.99628 .55023 -.99628 0 C -.99628 -.55023 -.55023 -.99628 0 -.99628 C .55023 -.99628 .99628 -.55023 .99628 0 Z M 0 0 "/>
<path transform="matrix(1,0,0,-1,60.342,59.323)" stroke-width="1" stroke-linecap="butt" stroke-miterlimit="10" stroke-linejoin="miter" fill="none" stroke="#000000" d="M .99628 0 C .99628 .55023 .55023 .99628 0 .99628 C -.55023 .99628 -.99628 .55023 -.99628 0 C -.99628 -.55023 -.55023 -.99628 0 -.99628 C .55023 -.99628 .99628 -.55023 .99628 0 Z M 0 0 "/>
<symbol id="font_0_5">
<path d="M .355 .078999999 C .341 .065999988 .308 .037999989 .308 .01999998 C .308 .00999999 .318 0 .32800005 0 C .33700005 0 .34200005 .0069999697 .34700004 .013000011 C .359 .027999998 .382 .055999996 .42600004 .07800001 C .433 .08200002 .443 .08700001 .443 .09899998 C .443 .10899997 .43600003 .11400002 .429 .11900002 C .40700004 .134 .396 .15200001 .38800005 .176 C .386 .185 .382 .19800002 .368 .19800002 C .354 .19800002 .34800003 .185 .34800003 .17699999 C .34800003 .17199999 .35600005 .13999999 .372 .11900002 L .034999998 .11900002 C .017999992 .11900002 0 .11900002 0 .09899998 C 0 .078999999 .017999992 .078999999 .034999998 .078999999 L .355 .078999999 Z "/>
</symbol>
<symbol id="font_0_4">
<path d="M .305 .31300003 C .311 .33900003 .334 .43100003 .404 .43100003 C .409 .43100003 .433 .43100003 .454 .418 C .426 .41300003 .40600003 .388 .40600003 .36400003 C .40600003 .34800003 .417 .32900004 .444 .32900004 C .46600003 .32900004 .498 .34700004 .498 .38700003 C .498 .43900005 .439 .45300005 .405 .45300005 C .347 .45300005 .312 .40000005 .3 .37700004 C .275 .44300003 .221 .45300005 .19200002 .45300005 C .08800001 .45300005 .031000002 .32400004 .031000002 .29900003 C .031000002 .28900004 .041 .28900004 .043000007 .28900004 C .051000008 .28900004 .054000006 .291 .056 .3 C .09 .40600003 .156 .43100003 .19000001 .43100003 C .209 .43100003 .244 .42200003 .244 .36400003 C .244 .33300004 .22700002 .26600004 .19000001 .126 C .17400001 .064 .13900002 .022000002 .095000009 .022000002 C .08900001 .022000002 .06600001 .022000002 .045 .035 C .07000001 .040000004 .09200001 .061 .09200001 .089 C .09200001 .116000007 .07000001 .124000009 .055000009 .124000009 C .025 .124000009 0 .098000008 0 .06600001 C 0 .020000002 .050000006 0 .094000007 0 C .16000001 0 .19600001 .07000001 .19900002 .076000008 C .21100001 .039 .24700003 0 .307 0 C .41 0 .467 .12900001 .467 .15400002 C .467 .16400002 .458 .16400002 .455 .16400002 C .446 .16400002 .444 .16000001 .442 .15300001 C .409 .046 .341 .022000002 .30900003 .022000002 C .27 .022000002 .254 .054 .254 .08800001 C .254 .11000001 .26 .13200002 .271 .17600002 L .305 .31300003 Z "/>
</symbol>
<use xlink:href="#font_0_5" transform="matrix(9.9626,0,0,-9.9626,5.0001928,48.1713)"/>
<use xlink:href="#font_0_4" transform="matrix(9.9626,0,0,-9.9626,3.605428,53.42159)"/>
<symbol id="font_1_1">
<path d="M .23200003 .00999999 C .23200003 .012999982 .23200003 .014999986 .215 .03199999 C .09 .15799999 .058 .347 .058 .5 C .058 .674 .096 .84800007 .21900001 .97300007 C .23200003 .985 .23200003 .98700007 .23200003 .99 C .23200003 .99700006 .22800002 1 .222 1 C .21200001 1 .12200001 .93200007 .06299999 .805 C .012000002 .69500008 0 .584 0 .5 C 0 .422 .011 .301 .066 .188 C .126 .065 .21200001 0 .222 0 C .22800002 0 .23200003 .0029999912 .23200003 .00999999 Z "/>
</symbol>
<use xlink:href="#font_1_1" transform="matrix(9.9626,0,0,-9.9626,10.000297,55.80265)"/>
<symbol id="font_0_1">
<path d="M .33300004 .38900004 C .31500004 .42600004 .286 .45300005 .24100001 .45300005 C .124 .45300005 0 .30600003 0 .16000001 C 0 .06600001 .055000005 0 .133 0 C .153 0 .20300001 .0040000008 .263 .075 C .27100004 .033000005 .30600003 0 .35400004 0 C .38900004 0 .41200004 .023000002 .42800004 .055000005 C .44500003 .091000009 .45800004 .15200001 .45800004 .15400002 C .45800004 .16400002 .44900004 .16400002 .44600005 .16400002 C .43600003 .16400002 .43500004 .16000001 .43200005 .14600002 C .41500003 .081 .397 .022000002 .35600005 .022000002 C .32900004 .022000002 .32600004 .048 .32600004 .068 C .32600004 .09 .32800005 .098000008 .33900003 .14200002 C .35000003 .18400002 .35200004 .19400002 .36100004 .23200003 L .397 .37200005 C .40400005 .40000005 .40400005 .40200005 .40400005 .40600003 C .40400005 .42300005 .39200003 .43300004 .37500004 .43300004 C .35100005 .43300004 .33600004 .411 .33300004 .38900004 M .26800005 .13000001 C .263 .112 .263 .11000001 .24800001 .093 C .20400001 .038000004 .163 .022000002 .135 .022000002 C .08499999 .022000002 .07100001 .077 .07100001 .116000007 C .07100001 .16600001 .103 .28900004 .126 .335 C .157 .39400003 .202 .43100003 .242 .43100003 C .307 .43100003 .32100005 .34900005 .32100005 .34300003 C .32100005 .337 .31900005 .33100004 .31800003 .32600004 L .26800005 .13000001 Z "/>
</symbol>
<use xlink:href="#font_0_1" transform="matrix(9.9626,0,0,-9.9626,13.287503,53.42159)"/>
<symbol id="font_1_2">
<path d="M .232 .5 C .232 .578 .22100002 .699 .16600001 .81200006 C .106 .93500009 .020000004 1 .009999998 1 C .0040000008 1 0 .99600008 0 .99 C 0 .98700007 0 .985 .019000002 .967 C .117000009 .86800006 .174 .709 .174 .5 C .174 .329 .137 .153 .012999997 .026999996 C 0 .014999986 0 .012999982 0 .00999999 C 0 .003999993 .0040000008 0 .009999998 0 C .020000004 0 .11000001 .06799999 .169 .195 C .22 .305 .232 .416 .232 .5 Z "/>
</symbol>
<symbol id="font_1_3">
<path d="M .63100007 .19400002 C .646 .19400002 .665 .19400002 .665 .214 C .665 .23400001 .646 .23400001 .632 .23400001 L .033 .23400001 C .019000002 .23400001 0 .23400001 0 .214 C 0 .19400002 .019000002 .19400002 .034 .19400002 L .63100007 .19400002 M .632 0 C .646 0 .665 0 .665 .02000001 C .665 .040000008 .646 .040000008 .63100007 .040000008 L .034 .040000008 C .019000002 .040000008 0 .040000008 0 .02000001 C 0 0 .019000002 0 .033 0 L .632 0 Z "/>
</symbol>
<use xlink:href="#font_1_2" transform="matrix(9.9626,0,0,-9.9626,18.722867,55.80265)"/>
<use xlink:href="#font_1_3" transform="matrix(9.9626,0,0,-9.9626,25.357958,51.986974)"/>
<use xlink:href="#font_0_5" transform="matrix(9.9626,0,0,-9.9626,36.993196,48.1713)"/>
<use xlink:href="#font_0_4" transform="matrix(9.9626,0,0,-9.9626,35.598428,53.42159)"/>
<use xlink:href="#font_1_1" transform="matrix(9.9626,0,0,-9.9626,41.993299,55.80265)"/>
<symbol id="font_0_3">
<path d="M .18300002 .411 L .277 .411 C .29700003 .411 .307 .411 .307 .43100003 C .307 .44200004 .29700003 .44200004 .279 .44200004 L .19100002 .44200004 C .227 .584 .23200003 .60400006 .23200003 .61 C .23200003 .62700006 .22000002 .637 .20300001 .637 C .2 .637 .172 .636 .163 .601 L .124 .44200004 L .030000002 .44200004 C .009999998 .44200004 0 .44200004 0 .42300005 C 0 .411 .007999999 .411 .028 .411 L .11600001 .411 C .044 .127 .04 .11000001 .04 .092 C .04 .038000004 .078 0 .132 0 C .234 0 .291 .14600002 .291 .15400002 C .291 .16400002 .28300003 .16400002 .279 .16400002 C .27 .16400002 .26900003 .16100002 .264 .15000002 C .22100002 .046 .16800002 .022000002 .134 .022000002 C .113000009 .022000002 .103 .035 .103 .068 C .103 .092 .105000007 .09900001 .109 .116000007 L .18300002 .411 Z "/>
</symbol>
<use xlink:href="#font_0_3" transform="matrix(9.9626,0,0,-9.9626,45.11014,53.42159)"/>
<symbol id="font_2_1">
<path d="M .46400006 .33900003 C .46400006 .44900004 .45100004 .528 .40500004 .598 C .374 .644 .31200005 .684 .23200001 .684 C 0 .684 0 .41100005 0 .33900003 C 0 .26700003 0 0 .23200001 0 C .46400006 0 .46400006 .26700003 .46400006 .33900003 M .23200001 .028 C .186 .028 .125 .055 .105000007 .13700001 C .091000009 .19600001 .091000009 .27800004 .091000009 .35200004 C .091000009 .42500005 .091000009 .50100007 .106000009 .556 C .127 .635 .19100002 .656 .23200001 .656 C .286 .656 .338 .623 .356 .565 C .37200005 .51100006 .37300004 .43900005 .37300004 .35200004 C .37300004 .27800004 .37300004 .20400001 .36 .141 C .34000004 .050000006 .272 .028 .23200001 .028 Z "/>
</symbol>
<use xlink:href="#font_2_1" transform="matrix(6.9738,0,0,-6.9738,48.841638,54.946477)"/>
<use xlink:href="#font_1_2" transform="matrix(9.9626,0,0,-9.9626,53.515867,55.80265)"/>
<path transform="matrix(1,0,0,-1,60.342,59.323)" d="M 227.77075 0 C 227.77075 .55023 227.3247 .99628 226.77448 .99628 C 226.22425 .99628 225.7782 .55023 225.7782 0 C 225.7782 -.55023 226.22425 -.99628 226.77448 -.99628 C 227.3247 -.99628 227.77075 -.55023 227.77075 0 Z M 226.77448 0 "/>
<path transform="matrix(1,0,0,-1,60.342,59.323)" stroke-width="1" stroke-linecap="butt" stroke-miterlimit="10" stroke-linejoin="miter" fill="none" stroke="#000000" d="M 227.77075 0 C 227.77075 .55023 227.3247 .99628 226.77448 .99628 C 226.22425 .99628 225.7782 .55023 225.7782 0 C 225.7782 -.55023 226.22425 -.99628 226.77448 -.99628 C 227.3247 -.99628 227.77075 -.55023 227.77075 0 Z M 226.77448 0 "/>
<use xlink:href="#font_0_5" transform="matrix(9.9626,0,0,-9.9626,292.3132,48.1713)"/>
<use xlink:href="#font_0_4" transform="matrix(9.9626,0,0,-9.9626,290.91844,53.42159)"/>
<use xlink:href="#font_1_1" transform="matrix(9.9626,0,0,-9.9626,297.3133,55.80265)"/>
<symbol id="font_0_2">
<path d="M .192 .694 C .192 .695 .192 .705 .179 .705 C .156 .705 .083000008 .697 .057 .695 C .049 .694 .038 .693 .038 .675 C .038 .663 .047000003 .663 .062000004 .663 C .11 .663 .112 .656 .112 .646 C .112 .639 .103 .605 .098000008 .584 L .015999999 .25800003 C .0040000008 .20800002 0 .19200002 0 .15700002 C 0 .062000004 .053 0 .127 0 C .24500002 0 .36800004 .14900002 .36800004 .293 C .36800004 .38400004 .31500004 .45300005 .235 .45300005 C .18900001 .45300005 .148 .42400003 .118 .39300005 L .192 .694 M .098000008 .316 C .104 .33800004 .104 .34000004 .113000009 .351 C .162 .41600005 .207 .43100003 .233 .43100003 C .26900003 .43100003 .29600004 .40100003 .29600004 .337 C .29600004 .27800004 .263 .16300002 .24500002 .12500002 C .212 .058000003 .16600001 .022000002 .127 .022000002 C .092999998 .022000002 .060000007 .049000004 .060000007 .123 C .060000007 .14200002 .060000007 .16100002 .076000008 .22400002 L .098000008 .316 Z "/>
</symbol>
<use xlink:href="#font_0_2" transform="matrix(9.9626,0,0,-9.9626,300.67024,53.42159)"/>
<use xlink:href="#font_1_2" transform="matrix(9.9626,0,0,-9.9626,305.04487,55.80265)"/>
<use xlink:href="#font_1_3" transform="matrix(9.9626,0,0,-9.9626,311.67994,51.986974)"/>
<use xlink:href="#font_0_5" transform="matrix(9.9626,0,0,-9.9626,323.3152,48.1713)"/>
<use xlink:href="#font_0_4" transform="matrix(9.9626,0,0,-9.9626,321.9204,53.42159)"/>
<use xlink:href="#font_1_1" transform="matrix(9.9626,0,0,-9.9626,328.31529,55.80265)"/>
<use xlink:href="#font_0_3" transform="matrix(9.9626,0,0,-9.9626,331.4321,53.42159)"/>
<symbol id="font_3_1">
<path d="M .075 .073 C .07100001 .060000004 .065 .035 .065 .032 C .065 .010000001 .083000008 0 .09900001 0 C .117 0 .133 .013 .138 .022 C .143 .031000004 .15100001 .063 .156 .084 C .161 .103 .172 .14900002 .178 .17400001 C .184 .19600001 .19000001 .21800001 .19500001 .24100001 C .20600002 .282 .20800002 .29 .237 .331 C .26500003 .37100003 .31200005 .423 .38700003 .423 C .44500003 .423 .44600005 .372 .44600005 .35300002 C .44600005 .293 .40300004 .18200001 .38700003 .14000002 C .37600003 .112 .37200005 .103 .37200005 .086 C .37200005 .033000005 .41600005 0 .467 0 C .56700006 0 .61100009 .13800001 .61100009 .15300001 C .61100009 .16600001 .59800007 .16600001 .595 .16600001 C .58100005 .16600001 .58000007 .16000001 .57600006 .14900002 C .55300006 .069000009 .51000007 .028 .47000004 .028 C .44900004 .028 .44500003 .042000005 .44500003 .063 C .44500003 .086 .45000003 .099 .46800006 .14400001 C .48000003 .17500001 .521 .28100003 .521 .337 C .521 .43400003 .44400005 .451 .39100004 .451 C .30800004 .451 .25200004 .4 .22200002 .36 C .21500002 .42900003 .156 .451 .114999998 .451 C .072 .451 .049 .42000003 .036000004 .397 C .014000002 .36 0 .303 0 .298 C 0 .285 .014000002 .285 .017 .285 C .031 .285 .032 .28800003 .039 .315 C .054 .374 .073 .423 .112 .423 C .138 .423 .145 .40100003 .145 .374 C .145 .35500003 .136 .31800003 .12900001 .291 C .12200001 .264 .112 .22300002 .10700001 .20100002 L .075 .073 Z "/>
</symbol>
<use xlink:href="#font_3_1" transform="matrix(6.9738,0,0,-6.9738,335.12873,54.876737)"/>
<use xlink:href="#font_1_2" transform="matrix(9.9626,0,0,-9.9626,340.79185,55.80265)"/>
<path transform="matrix(1,0,0,-1,60.342,59.323)" stroke-width="1" stroke-linecap="butt" stroke-miterlimit="10" stroke-linejoin="miter" fill="none" stroke="#0000ff" d="M 0 0 L 28.3468 37.1909 "/>
<path transform="matrix(1,0,0,-1,60.342,59.323)" d="M 29.34308 37.1909 C 29.34308 37.74113 28.89703 38.18718 28.3468 38.18718 C 27.79657 38.18718 27.35052 37.74113 27.35052 37.1909 C 27.35052 36.64067 27.79657 36.19463 28.3468 36.19463 C 28.89703 36.19463 29.34308 36.64067 29.34308 37.1909 Z M 28.3468 37.1909 " fill="#0000ff"/>
<path transform="matrix(1,0,0,-1,60.342,59.323)" stroke-width="1" stroke-linecap="butt" stroke-miterlimit="10" stroke-linejoin="miter" fill="none" stroke="#0000ff" d="M 29.34308 37.1909 C 29.34308 37.74113 28.89703 38.18718 28.3468 38.18718 C 27.79657 38.18718 27.35052 37.74113 27.35052 37.1909 C 27.35052 36.64067 27.79657 36.19463 28.3468 36.19463 C 28.89703 36.19463 29.34308 36.64067 29.34308 37.1909 Z M 28.3468 37.1909 "/>
<use xlink:href="#font_0_5" transform="matrix(9.9626,0,0,-9.9626,65.339199,10.9813)" fill="#0000ff"/>
<use xlink:href="#font_0_4" transform="matrix(9.9626,0,0,-9.9626,63.944429,16.23159)" fill="#0000ff"/>
<use xlink:href="#font_1_1" transform="matrix(9.9626,0,0,-9.9626,70.3393,18.612652)" fill="#0000ff"/>
<use xlink:href="#font_0_3" transform="matrix(9.9626,0,0,-9.9626,73.45615,16.23159)" fill="#0000ff"/>
<symbol id="font_2_2">
<path d="M .22600001 .63600006 C .22600001 .66300007 .224 .66400006 .19600001 .66400006 C .132 .601 .041 .6 0 .6 L 0 .564 C .023999997 .564 .09000001 .564 .14500001 .592 L .14500001 .082 C .14500001 .049000004 .14500001 .036000004 .04500001 .036000004 L .0069999995 .036000004 L .0069999995 0 C .024999999 .001 .148 .004 .185 .004 C .21600002 .004 .34200005 .001 .36400003 0 L .36400003 .036000004 L .32600004 .036000004 C .22600001 .036000004 .22600001 .049000004 .22600001 .082 L .22600001 .63600006 Z "/>
</symbol>
<use xlink:href="#font_2_2" transform="matrix(6.9738,0,0,-6.9738,77.58515,17.616005)" fill="#0000ff"/>
<use xlink:href="#font_1_2" transform="matrix(9.9626,0,0,-9.9626,81.86188,18.612652)" fill="#0000ff"/>
<path transform="matrix(1,0,0,-1,60.342,59.323)" stroke-width="1" stroke-linecap="butt" stroke-miterlimit="10" stroke-linejoin="miter" fill="none" stroke="#0000ff" d="M 28.3468 37.1909 L 56.69362 42.5202 "/>
<path transform="matrix(1,0,0,-1,60.342,59.323)" d="M 57.6899 42.5202 C 57.6899 43.07043 57.24385 43.51648 56.69362 43.51648 C 56.14337 43.51648 55.69734 43.07043 55.69734 42.5202 C 55.69734 41.96997 56.14337 41.52393 56.69362 41.52393 C 57.24385 41.52393 57.6899 41.96997 57.6899 42.5202 Z M 56.69362 42.5202 " fill="#0000ff"/>
<path transform="matrix(1,0,0,-1,60.342,59.323)" stroke-width="1" stroke-linecap="butt" stroke-miterlimit="10" stroke-linejoin="miter" fill="none" stroke="#0000ff" d="M 57.6899 42.5202 C 57.6899 43.07043 57.24385 43.51648 56.69362 43.51648 C 56.14337 43.51648 55.69734 43.07043 55.69734 42.5202 C 55.69734 41.96997 56.14337 41.52393 56.69362 41.52393 C 57.24385 41.52393 57.6899 41.96997 57.6899 42.5202 Z M 56.69362 42.5202 "/>
<use xlink:href="#font_0_5" transform="matrix(9.9626,0,0,-9.9626,107.9602,5.652305)" fill="#0000ff"/>
<use xlink:href="#font_0_4" transform="matrix(9.9626,0,0,-9.9626,106.56544,10.9025959)" fill="#0000ff"/>
<use xlink:href="#font_1_1" transform="matrix(9.9626,0,0,-9.9626,112.960308,13.283657)" fill="#0000ff"/>
<use xlink:href="#font_0_3" transform="matrix(9.9626,0,0,-9.9626,116.07715,10.9025959)" fill="#0000ff"/>
<symbol id="font_2_3">
<path d="M .442 .18200001 L .40800003 .18200001 C .40500004 .16000001 .39500005 .101 .38200004 .091000009 C .374 .085 .29700003 .085 .28300003 .085 L .099 .085 C .20400003 .178 .23900002 .20600002 .29900003 .25300003 C .37300004 .312 .442 .374 .442 .469 C .442 .59000006 .33600004 .66400006 .20800004 .66400006 C .084 .66400006 0 .577 0 .485 C 0 .43400003 .043000007 .42900003 .053000004 .42900003 C .077 .42900003 .10600001 .446 .10600001 .48200003 C .10600001 .5 .099 .535 .047000007 .535 C .078 .606 .146 .628 .19300002 .628 C .293 .628 .34500004 .55 .34500004 .469 C .34500004 .38200004 .28300003 .31300003 .25100003 .277 L .010000005 .039 C 0 .030000002 0 .028 0 0 L .41200004 0 L .442 .18200001 Z "/>
</symbol>
<use xlink:href="#font_2_3" transform="matrix(6.9738,0,0,-6.9738,119.88535,12.28701)" fill="#0000ff"/>
<use xlink:href="#font_1_2" transform="matrix(9.9626,0,0,-9.9626,124.48288,13.283657)" fill="#0000ff"/>
<path transform="matrix(1,0,0,-1,60.342,59.323)" stroke-width="1" stroke-linecap="butt" stroke-miterlimit="10" stroke-linejoin="miter" fill="none" stroke="#0000ff" d="M 56.69362 42.5202 L 85.04042 26.56084 "/>
<path transform="matrix(1,0,0,-1,60.342,59.323)" d="M 86.0367 26.56084 C 86.0367 27.11108 85.59065 27.55711 85.04042 27.55711 C 84.49019 27.55711 84.04414 27.11108 84.04414 26.56084 C 84.04414 26.0106 84.49019 25.56456 85.04042 25.56456 C 85.59065 25.56456 86.0367 26.0106 86.0367 26.56084 Z M 85.04042 26.56084 " fill="#0000ff"/>
<path transform="matrix(1,0,0,-1,60.342,59.323)" stroke-width="1" stroke-linecap="butt" stroke-miterlimit="10" stroke-linejoin="miter" fill="none" stroke="#0000ff" d="M 86.0367 26.56084 C 86.0367 27.11108 85.59065 27.55711 85.04042 27.55711 C 84.49019 27.55711 84.04414 27.11108 84.04414 26.56084 C 84.04414 26.0106 84.49019 25.56456 85.04042 25.56456 C 85.59065 25.56456 86.0367 26.0106 86.0367 26.56084 Z M 85.04042 26.56084 "/>
<use xlink:href="#font_0_5" transform="matrix(9.9626,0,0,-9.9626,150.58119,21.611306)" fill="#0000ff"/>
<use xlink:href="#font_0_4" transform="matrix(9.9626,0,0,-9.9626,149.18642,26.861596)" fill="#0000ff"/>
<use xlink:href="#font_1_1" transform="matrix(9.9626,0,0,-9.9626,155.5813,29.242657)" fill="#0000ff"/>
<use xlink:href="#font_0_3" transform="matrix(9.9626,0,0,-9.9626,158.69814,26.861596)" fill="#0000ff"/>
<symbol id="font_2_4">
<path d="M .219 .35400004 C .29700003 .35400004 .35300002 .3 .35300002 .193 C .35300002 .069000009 .28100003 .032 .223 .032 C .18300002 .032 .095 .043000007 .053000008 .102000009 C .10000001 .10400001 .111 .13700001 .111 .158 C .111 .19 .087 .213 .056000007 .213 C .028 .213 0 .19600001 0 .155 C 0 .061000006 .104 0 .22500001 0 C .36400003 0 .46 .09300001 .46 .193 C .46 .27100004 .39600004 .34900005 .286 .37200005 C .39100004 .41000004 .42900003 .48500005 .42900003 .546 C .42900003 .625 .33800004 .684 .22700002 .684 C .116 .684 .031 .63 .031 .55 C .031 .51600006 .053000008 .49700005 .083000008 .49700005 C .11400001 .49700005 .134 .52 .134 .548 C .134 .577 .11400001 .598 .083000008 .6 C .118 .644 .187 .65500006 .22400002 .65500006 C .26900003 .65500006 .33200003 .633 .33200003 .546 C .33200003 .504 .31800003 .45800004 .29200004 .42700003 C .25900004 .38900004 .23100002 .38700003 .18100001 .38400004 C .156 .38200004 .154 .38200004 .149 .38100005 C .147 .38100005 .139 .37900005 .139 .36800004 C .139 .35400004 .148 .35400004 .165 .35400004 L .219 .35400004 Z "/>
</symbol>
<use xlink:href="#font_2_4" transform="matrix(6.9738,0,0,-6.9738,162.44359,28.385487)" fill="#0000ff"/>
<use xlink:href="#font_1_2" transform="matrix(9.9626,0,0,-9.9626,167.10387,29.242657)" fill="#0000ff"/>
<path transform="matrix(1,0,0,-1,60.342,59.323)" stroke-width="1" stroke-linecap="butt" stroke-miterlimit="10" stroke-linejoin="miter" fill="none" stroke="#0000ff" d="M 85.04042 26.56084 L 113.38724 0 "/>
<path transform="matrix(1,0,0,-1,60.342,59.323)" stroke-width="1" stroke-linecap="butt" stroke-miterlimit="10" stroke-linejoin="miter" fill="none" stroke="#0000ff" d="M 113.38724 0 L 141.73404 -26.56084 "/>
<path transform="matrix(1,0,0,-1,60.342,59.323)" stroke-width="1" stroke-linecap="butt" stroke-miterlimit="10" stroke-linejoin="miter" fill="none" stroke="#0000ff" d="M 141.73404 -26.56084 L 170.08086 -42.5202 "/>
<path transform="matrix(1,0,0,-1,60.342,59.323)" stroke-width="1" stroke-linecap="butt" stroke-miterlimit="10" stroke-linejoin="miter" fill="none" stroke="#0000ff" d="M 170.08086 -42.5202 L 198.42766 -37.1909 "/>
<path transform="matrix(1,0,0,-1,60.342,59.323)" d="M 199.42394 -37.1909 C 199.42394 -36.64067 198.97789 -36.19463 198.42766 -36.19463 C 197.87743 -36.19463 197.43138 -36.64067 197.43138 -37.1909 C 197.43138 -37.74113 197.87743 -38.18718 198.42766 -38.18718 C 198.97789 -38.18718 199.42394 -37.74113 199.42394 -37.1909 Z M 198.42766 -37.1909 " fill="#0000ff"/>
<path transform="matrix(1,0,0,-1,60.342,59.323)" stroke-width="1" stroke-linecap="butt" stroke-miterlimit="10" stroke-linejoin="miter" fill="none" stroke="#0000ff" d="M 199.42394 -37.1909 C 199.42394 -36.64067 198.97789 -36.19463 198.42766 -36.19463 C 197.87743 -36.19463 197.43138 -36.64067 197.43138 -37.1909 C 197.43138 -37.74113 197.87743 -38.18718 198.42766 -38.18718 C 198.97789 -38.18718 199.42394 -37.74113 199.42394 -37.1909 Z M 198.42766 -37.1909 "/>
<use xlink:href="#font_0_5" transform="matrix(9.9626,0,0,-9.9626,263.96723,102.3643)" fill="#0000ff"/>
<use xlink:href="#font_0_4" transform="matrix(9.9626,0,0,-9.9626,262.57246,107.61459)" fill="#0000ff"/>
<use xlink:href="#font_1_1" transform="matrix(9.9626,0,0,-9.9626,268.96733,109.99565)" fill="#0000ff"/>
<use xlink:href="#font_0_3" transform="matrix(9.9626,0,0,-9.9626,272.08415,107.61459)" fill="#0000ff"/>
<use xlink:href="#font_3_1" transform="matrix(6.9738,0,0,-6.9738,275.78077,109.06874)" fill="#0000ff"/>
<symbol id="font_4_1">
<path d="M .63600006 0 C .65200009 0 .67600008 0 .67600008 .023999989 C .67600008 .048999996 .65300008 .048999996 .63600006 .048999996 L .04 .048999996 C .023999997 .048999996 0 .048999996 0 .025000006 C 0 0 .02300001 0 .04 0 L .63600006 0 Z "/>
</symbol>
<use xlink:href="#font_4_1" transform="matrix(6.9738,0,0,-6.9738,281.13117,107.42292)" fill="#0000ff"/>
<use xlink:href="#font_2_2" transform="matrix(6.9738,0,0,-6.9738,287.36415,108.999)" fill="#0000ff"/>
<use xlink:href="#font_1_2" transform="matrix(9.9626,0,0,-9.9626,291.64189,109.99565)" fill="#0000ff"/>
<path transform="matrix(1,0,0,-1,60.342,59.323)" stroke-width="1" stroke-linecap="butt" stroke-miterlimit="10" stroke-linejoin="miter" fill="none" stroke="#0000ff" d="M 198.42766 -37.1909 L 226.77448 0 "/>
</svg>
