<?xml version="1.0" encoding="UTF-8" standalone="no"?>
<!DOCTYPE svg PUBLIC "-//W3C//DTD SVG 1.1//EN" "http://www.w3.org/Graphics/SVG/1.1/DTD/svg11.dtd">
<svg xmlns="http://www.w3.org/2000/svg" xmlns:xlink="http://www.w3.org/1999/xlink" version="1.1" width="276.879pt" height="74.691pt" viewBox="0 0 276.879 74.691">
<path transform="matrix(1,0,0,-1,25.549,73.495)" stroke-width="1" stroke-linecap="butt" stroke-miterlimit="10" stroke-linejoin="miter" fill="none" stroke="#000000" d="M 0 0 L 0 56.69362 L 113.38724 56.69362 "/>
<path transform="matrix(1,0,0,-1,25.549,73.495)" stroke-width="1" stroke-linecap="butt" stroke-miterlimit="10" stroke-linejoin="miter" fill="none" stroke="#000000" d="M 113.38724 56.69362 C 113.38724 56.69362 138.61632 0 170.08086 0 C 201.5454 0 226.77448 56.69362 226.77448 56.69362 "/>
<path transform="matrix(1,0,0,-1,25.549,73.495)" d="M .99628 0 C .99628 .55023 .55023 .99628 0 .99628 C -.55023 .99628 -.99628 .55023 -.99628 0 C -.99628 -.55023 -.55023 -.99628 0 -.99628 C .55023 -.99628 .99628 -.55023 .99628 0 Z M 0 0 "/>
<path transform="matrix(1,0,0,-1,25.549,73.495)" stroke-width="1" stroke-linecap="butt" stroke-miterlimit="10" stroke-linejoin="miter" fill="none" stroke="#000000" d="M .99628 0 C .99628 .55023 .55023 .99628 0 .99628 C -.55023 .99628 -.99628 .55023 -.99628 0 C -.99628 -.55023 -.55023 -.99628 0 -.99628 C .55023 -.99628 .99628 -.55023 .99628 0 Z M 0 0 "/>
<symbol id="font_0_4">
<path d="M .355 .078999999 C .341 .065999988 .308 .037999989 .308 .01999998 C .308 .00999999 .318 0 .32800005 0 C .33700005 0 .34200005 .0069999697 .34700004 .013000011 C .359 .027999998 .382 .055999996 .42600004 .07800001 C .433 .08200002 .443 .08700001 .443 .09899998 C .443 .10899997 .43600003 .11400002 .429 .11900002 C .40700004 .134 .396 .15200001 .38800005 .176 C .386 .185 .382 .19800002 .368 .19800002 C .354 .19800002 .34800003 .185 .34800003 .17699999 C .34800003 .17199999 .35600005 .13999999 .372 .11900002 L .034999998 .11900002 C .017999992 .11900002 0 .11900002 0 .09899998 C 0 .078999999 .017999992 .078999999 .034999998 .078999999 L .355 .078999999 Z "/>
</symbol>
<symbol id="font_0_3">
<path d="M .305 .31300003 C .311 .33900003 .334 .43100003 .404 .43100003 C .409 .43100003 .433 .43100003 .454 .418 C .426 .41300003 .40600003 .388 .40600003 .36400003 C .40600003 .34800003 .417 .32900004 .444 .32900004 C .46600003 .32900004 .498 .34700004 .498 .38700003 C .498 .43900005 .439 .45300005 .405 .45300005 C .347 .45300005 .312 .40000005 .3 .37700004 C .275 .44300003 .221 .45300005 .19200002 .45300005 C .08800001 .45300005 .031000002 .32400004 .031000002 .29900003 C .031000002 .28900004 .041 .28900004 .043000007 .28900004 C .051000008 .28900004 .054000006 .291 .056 .3 C .09 .40600003 .156 .43100003 .19000001 .43100003 C .209 .43100003 .244 .42200003 .244 .36400003 C .244 .33300004 .22700002 .26600004 .19000001 .126 C .17400001 .064 .13900002 .022000002 .095000009 .022000002 C .08900001 .022000002 .06600001 .022000002 .045 .035 C .07000001 .040000004 .09200001 .061 .09200001 .089 C .09200001 .116000007 .07000001 .124000009 .055000009 .124000009 C .025 .124000009 0 .098000008 0 .06600001 C 0 .020000002 .050000006 0 .094000007 0 C .16000001 0 .19600001 .07000001 .19900002 .076000008 C .21100001 .039 .24700003 0 .307 0 C .41 0 .467 .12900001 .467 .15400002 C .467 .16400002 .458 .16400002 .455 .16400002 C .446 .16400002 .444 .16000001 .442 .15300001 C .409 .046 .341 .022000002 .30900003 .022000002 C .27 .022000002 .254 .054 .254 .08800001 C .254 .11000001 .26 .13200002 .271 .17600002 L .305 .31300003 Z "/>
</symbol>
<use xlink:href="#font_0_4" transform="matrix(9.9626,0,0,-9.9626,5.0001928,62.3443)"/>
<use xlink:href="#font_0_3" transform="matrix(9.9626,0,0,-9.9626,3.605428,67.59459)"/>
<symbol id="font_1_1">
<path d="M .23200003 .00999999 C .23200003 .012999982 .23200003 .014999986 .215 .03199999 C .09 .15799999 .058 .347 .058 .5 C .058 .674 .096 .84800007 .21900001 .97300007 C .23200003 .985 .23200003 .98700007 .23200003 .99 C .23200003 .99700006 .22800002 1 .222 1 C .21200001 1 .12200001 .93200007 .06299999 .805 C .012000002 .69500008 0 .584 0 .5 C 0 .422 .011 .301 .066 .188 C .126 .065 .21200001 0 .222 0 C .22800002 0 .23200003 .0029999912 .23200003 .00999999 Z "/>
</symbol>
<use xlink:href="#font_1_1" transform="matrix(9.9626,0,0,-9.9626,10.000297,69.97565)"/>
<symbol id="font_0_1">
<path d="M .33300004 .38900004 C .31500004 .42600004 .286 .45300005 .24100001 .45300005 C .124 .45300005 0 .30600003 0 .16000001 C 0 .06600001 .055000005 0 .133 0 C .153 0 .20300001 .0040000008 .263 .075 C .27100004 .033000005 .30600003 0 .35400004 0 C .38900004 0 .41200004 .023000002 .42800004 .055000005 C .44500003 .091000009 .45800004 .15200001 .45800004 .15400002 C .45800004 .16400002 .44900004 .16400002 .44600005 .16400002 C .43600003 .16400002 .43500004 .16000001 .43200005 .14600002 C .41500003 .081 .397 .022000002 .35600005 .022000002 C .32900004 .022000002 .32600004 .048 .32600004 .068 C .32600004 .09 .32800005 .098000008 .33900003 .14200002 C .35000003 .18400002 .35200004 .19400002 .36100004 .23200003 L .397 .37200005 C .40400005 .40000005 .40400005 .40200005 .40400005 .40600003 C .40400005 .42300005 .39200003 .43300004 .37500004 .43300004 C .35100005 .43300004 .33600004 .411 .33300004 .38900004 M .26800005 .13000001 C .263 .112 .263 .11000001 .24800001 .093 C .20400001 .038000004 .163 .022000002 .135 .022000002 C .08499999 .022000002 .07100001 .077 .07100001 .116000007 C .07100001 .16600001 .103 .28900004 .126 .335 C .157 .39400003 .202 .43100003 .242 .43100003 C .307 .43100003 .32100005 .34900005 .32100005 .34300003 C .32100005 .337 .31900005 .33100004 .31800003 .32600004 L .26800005 .13000001 Z "/>
</symbol>
<use xlink:href="#font_0_1" transform="matrix(9.9626,0,0,-9.9626,13.287503,67.59459)"/>
<symbol id="font_1_2">
<path d="M .232 .5 C .232 .578 .22100002 .699 .16600001 .81200006 C .106 .93500009 .020000004 1 .009999998 1 C .0040000008 1 0 .99600008 0 .99 C 0 .98700007 0 .985 .019000002 .967 C .117000009 .86800006 .174 .709 .174 .5 C .174 .329 .137 .153 .012999997 .026999996 C 0 .014999986 0 .012999982 0 .00999999 C 0 .003999993 .0040000008 0 .009999998 0 C .020000004 0 .11000001 .06799999 .169 .195 C .22 .305 .232 .416 .232 .5 Z "/>
</symbol>
<use xlink:href="#font_1_2" transform="matrix(9.9626,0,0,-9.9626,18.722867,69.97565)"/>
<path transform="matrix(1,0,0,-1,25.549,73.495)" d="M 227.77075 56.69362 C 227.77075 57.24385 227.3247 57.6899 226.77448 57.6899 C 226.22425 57.6899 225.7782 57.24385 225.7782 56.69362 C 225.7782 56.14337 226.22425 55.69734 226.77448 55.69734 C 227.3247 55.69734 227.77075 56.14337 227.77075 56.69362 Z M 226.77448 56.69362 "/>
<path transform="matrix(1,0,0,-1,25.549,73.495)" stroke-width="1" stroke-linecap="butt" stroke-miterlimit="10" stroke-linejoin="miter" fill="none" stroke="#000000" d="M 227.77075 56.69362 C 227.77075 57.24385 227.3247 57.6899 226.77448 57.6899 C 226.22425 57.6899 225.7782 57.24385 225.7782 56.69362 C 225.7782 56.14337 226.22425 55.69734 226.77448 55.69734 C 227.3247 55.69734 227.77075 56.14337 227.77075 56.69362 Z M 226.77448 56.69362 "/>
<use xlink:href="#font_0_4" transform="matrix(9.9626,0,0,-9.9626,257.5202,5.651302)"/>
<use xlink:href="#font_0_3" transform="matrix(9.9626,0,0,-9.9626,256.12544,10.901592)"/>
<use xlink:href="#font_1_1" transform="matrix(9.9626,0,0,-9.9626,262.5203,13.282654)"/>
<symbol id="font_0_2">
<path d="M .192 .694 C .192 .695 .192 .705 .179 .705 C .156 .705 .083000008 .697 .057 .695 C .049 .694 .038 .693 .038 .675 C .038 .663 .047000003 .663 .062000004 .663 C .11 .663 .112 .656 .112 .646 C .112 .639 .103 .605 .098000008 .584 L .015999999 .25800003 C .0040000008 .20800002 0 .19200002 0 .15700002 C 0 .062000004 .053 0 .127 0 C .24500002 0 .36800004 .14900002 .36800004 .293 C .36800004 .38400004 .31500004 .45300005 .235 .45300005 C .18900001 .45300005 .148 .42400003 .118 .39300005 L .192 .694 M .098000008 .316 C .104 .33800004 .104 .34000004 .113000009 .351 C .162 .41600005 .207 .43100003 .233 .43100003 C .26900003 .43100003 .29600004 .40100003 .29600004 .337 C .29600004 .27800004 .263 .16300002 .24500002 .12500002 C .212 .058000003 .16600001 .022000002 .127 .022000002 C .092999998 .022000002 .060000007 .049000004 .060000007 .123 C .060000007 .14200002 .060000007 .16100002 .076000008 .22400002 L .098000008 .316 Z "/>
</symbol>
<use xlink:href="#font_0_2" transform="matrix(9.9626,0,0,-9.9626,265.87724,10.901592)"/>
<use xlink:href="#font_1_2" transform="matrix(9.9626,0,0,-9.9626,270.25187,13.282654)"/>
</svg>
